<svg xmlns="http://www.w3.org/2000/svg" viewBox="0 0 1600 1200"><defs><style>.cls-1{fill:#f7beb2;}.cls-1,.cls-9{stroke:#000;stroke-linecap:round;stroke-linejoin:round;stroke-width:3px;}.cls-2{fill:#fee502;}.cls-3{fill:#ffdf8c;}.cls-4{fill:#aead8c;}.cls-5{fill:#f4424f;}.cls-6{fill:#d5d4b3;}.cls-7{fill:#edeee1;}.cls-8{fill:#e2b725;}.cls-9{fill:none;}</style></defs><g id="protected"><path class="cls-1" d="M1182,964.64c93.6-157,109.43-427.45,98.21-562.81,0,0-51.25-1.38-158.1-5.61s-239-34.13-344.58-135.64c-27.67,34.66-73.31,72.9-130.25,100.08s-227.62,54-330.62,61.59c-.21,54.09-.17,133,13,210.37,12.2,71.41,43.88,225.1,143.34,332Z"/><path class="cls-2" d="M1203.21,919.81c9.44,25.64,19,51.49,19,51.49L1193.5,982s-10.29-26.51-14-36.9c-7.08-20-14.56-40.28-21.48-60.37-1.8-5.22-3.75-10.56-5.57-15.88-.89-2.57-1.74-5.13-2.53-7.67-1-3.31-4.25-14-4.25-14s22.87-8.79,26.73-9.7c0,0,9.18,22.25,12.94,33.36C1187.19,876.24,1195.15,897.94,1203.21,919.81Z"/><path class="cls-2" d="M1143.38,956.69c-5.5-.11-11.23-.21-15.49-.27-7.09-.09-14.25-.1-21.41-.2-8-.1-15.93-.31-23.8-.86-18.28-1.28-56.19-.84-56.19-.84l-.94,0c.2-4.61.42-9.24.69-13.91.2-3.31.5-13.62.5-13.62s35.68-1.24,46.59-.58c8.47.5,24.05.82,39.73,1,8.32.1,16.68.17,24,.22,13.39.09,23.38.1,23.63.11.74,3.14,1.48,16.14,1.45,29.37h-.92S1152.62,956.87,1143.38,956.69Z"/><path class="cls-2" d="M1161.23,957.07h.92c0,9.25-.42,18.62-1.45,24.81v.64h-18v-.77l.65-25.07C1152.62,956.87,1161.23,957.07,1161.23,957.07Z"/><path class="cls-3" d="M1146.7,479.66c4.21,2.68,15.72,2.67,22.59,4.8-11.33,9.1-22.91,18-34.5,26.93-7.83,6.05-11.11,12.17-19.44,6.65a67.64,67.64,0,0,1-12.57-11.18c-5.19-5.71-9.86-11.94-15.07-17.53-7.24-7.76-16.72-19.07-16.72-19.07l-.65,0c1-14.54,2-29.46,1-43.73-.34-5.14-1.24-8.44-3-10.51,5.43,0,10.35-.09,16.9,2C1093.84,420.72,1142.48,477,1146.7,479.66Z"/><path class="cls-2" d="M1149.66,869.83c.28,3.2,3.92,30.62.19,30.92-4.35.35-8.83.33-13.23.45l-92.94-2-14.92-.31v-.56l1-30s33.83-.52,42.82.16c10,.75,20,.67,30,.55,6.41-.07,12.83-.17,19.23-.08C1131.08,869.16,1149.66,869.83,1149.66,869.83Z"/><path class="cls-2" d="M1143.38,956.69l-.65,25.07v.77h-36.51V977.6c-.12-5.53.69-11,.2-16.52l.06-4.86c7.16.1,14.32.11,21.41.2C1132.15,956.48,1137.88,956.58,1143.38,956.69Z"/><path class="cls-2" d="M1136.75,908.55l.33,17.86v1.19c-7.33-.05-15.69-.12-24-.22l0-1.33.43-19.59,0-.23Z"/><polygon points="1136.62 901.2 1136.75 908.55 1113.53 906.23 1043.68 899.26 1043.68 899.25 1136.62 901.2"/><path class="cls-3" d="M1120.29,317.32c2.35,5.86,3,12.13-1.3,17.34-5.5,6.71-11.26,8.63-16.38,7.51a17.18,17.18,0,0,1-8.88-5.55l1.29-.77c12.25-3.57,18.63-10.06,24.89-18.38Z"/><path class="cls-3" d="M1120.29,317.32l-.38.15c-6.26,8.32-12.64,14.81-24.89,18.38l-1.29.77a29,29,0,0,1-5.89-10.52l.9-.27c7.28,0,21.3-12.06,24.13-18.23l1.15-1a20.66,20.66,0,0,1,1.71,2.27A48.91,48.91,0,0,1,1120.29,317.32Z"/><path class="cls-3" d="M1114,306.56l-1.15,1c-2.83,6.17-16.85,18.22-24.13,18.23l-.9.27a31,31,0,0,1-1.43-7.74,8.14,8.14,0,0,1,3.15-6.95c1.46-1.12,3-2.4,4.72-3.63C1100.43,303.27,1107.74,299.42,1114,306.56Z"/><path class="cls-2" d="M1113.53,906.23l0,.23-.43,19.59,0,1.33c-15.68-.19-31.26-.51-39.73-1-10.91-.66-46.59.58-46.59.58a186.58,186.58,0,0,1-24.06-.73c-.31-1.68-.68-27.84-.68-27.84l26.76.56,14.92.31h0Z"/><path class="cls-2" d="M1106.42,961.08c.49,5.48-.32,11-.2,16.52v4.93h-81.74v-.35c.24-5.89.44-11.71.66-17.51.13-3.4.26-6.79.41-10.19l.94,0s37.91-.44,56.19.84c7.87.55,15.83.76,23.8.86Z"/><path class="cls-4" d="M1102.78,506.86l-.19.18V869.12c-10,.12-20,.2-30-.55-9-.68-42.82-.16-42.82-.16l-1,30v.56l-26.76-.56s.37,26.16.68,27.84a186.58,186.58,0,0,0,24.06.73s-.3,10.31-.5,13.62c-.27,4.67-.49,9.3-.69,13.91-.15,3.4-.28,6.79-.41,10.19l-.66,0H930.29v-1.11s.5-38.78-.1-57.11c-1.28-38.32-.78-77-.78-115.54,0-44.1-3-87.86-4.62-131.87-2.54-67.33-2.37-135-2.37-202.28v-1.56h95.07c-.39,9.54-1.16,28.44-1.46,39.52-.47,17.42-2.55,36.3-.69,53.54,7.52,1.1,19.7-.68,28.57-2.15,12.35-2.05,21.69-3.09,33.5-8-3.15-2.64-9.91-8.15-9.91-8.15s-.1-14,.48-20.72c.81-9.33,1.1-18.91,1.66-28.25.21-3.56.46-7.16.7-10.79l.65,0s9.48,11.31,16.72,19.07C1092.92,494.92,1097.59,501.15,1102.78,506.86Z"/><path class="cls-3" d="M1017.49,455.17H942.24v-.9c-4.72-3.92-3.25-65.22-3.25-65.22s-17.85,38-22,45.71c-2.93,5.43-10.75,18.8-17.31,20.32v.09H854.44v-.9C853.62,446.22,865,445,869,442c8-5.94,13.1-21.34,17.59-30.38,12.32-24.85,23.19-44.93,36-69.59,8.2-15.81,28.82-17,45.15-20.2,12.73-2.47,33.12-9,46-6.51,20.47,3.9,26.14,28.32,36.56,42.56,0,0,24.38-33.86,25.78-40.91s-1.83-18.13-3.13-25c-.9-4.71,11.79-2.63,13.9-.61,4,3.85,6.8,15.84,6.8,15.84l.6.61c-1.67,1.23-3.26,2.51-4.72,3.63a8.14,8.14,0,0,0-3.15,6.95,31,31,0,0,0,1.43,7.74,29,29,0,0,0,5.89,10.52,17.18,17.18,0,0,0,8.88,5.55l0,.3s-16.27,26.32-23.46,37.68c-5,7.8-10.42,17.07-17.65,22.9-5.87,4.73-13.38,6.94-20.4,3.83-3.95-1.75-12.12-9.13-12.12-9.13h-.09c.93,8,1.76,14.63,1.76,14.63V413c9.29-.13,18.31-.17,26.39-.22,5.54,0,9.12.64,11.34,3.23,1.77,2.07,2.67,5.37,3,10.51.94,14.27-.05,29.19-1,43.73-.24,3.63-.49,7.23-.7,10.79-.56,9.34-.85,18.92-1.66,28.25-.58,6.76-.48,20.72-.48,20.72s6.76,5.51,9.91,8.15c-11.81,4.86-21.15,5.9-33.5,8-8.87,1.47-21.05,3.25-28.57,2.15-1.86-17.24.22-36.12.69-53.54C1016.33,483.61,1017.1,464.71,1017.49,455.17Z"/><path class="cls-3" d="M961.22,254.35c27.3-.71,42,39.64,22.77,58a21.47,21.47,0,0,1-12.17,6.17c-13.23,1.67-26.1-11.05-29.64-24.35C938.12,278.92,941.15,254.88,961.22,254.35Zm19,41.61c.67-2.74.83-10.13-3.77-9.15-2,.42-4,2.06-6.08,2.51a23.54,23.54,0,0,1-8.89.15c-2.8-.39-5,.06-4.59,3.37A12.77,12.77,0,0,0,958.8,298c2,3,5.15,5.37,8.73,5.32a17.21,17.21,0,0,0,9.38-2.62A8,8,0,0,0,980.21,296Z"/><path d="M976.44,286.81c4.6-1,4.44,6.41,3.77,9.15a8,8,0,0,1-3.3,4.69l-.15-.51a11.51,11.51,0,0,0-6.63-4.52c-2.9-.71-8.39.35-10.76,2.24l-.57.09a12.77,12.77,0,0,1-1.92-5.11c-.44-3.31,1.79-3.76,4.59-3.37a23.54,23.54,0,0,0,8.89-.15C972.49,288.87,974.48,287.23,976.44,286.81Z"/><path class="cls-5" d="M976.76,300.14l.15.51a17.21,17.21,0,0,1-9.38,2.62c-3.58.05-6.77-2.28-8.73-5.32l.57-.09c2.37-1.89,7.86-2.95,10.76-2.24A11.51,11.51,0,0,1,976.76,300.14Z"/><path class="cls-6" d="M930.19,906.42c.6,18.33.1,57.11.1,57.11v1.11H604V502.25a48.82,48.82,0,0,0,9.79,3.79c28.44-5.55,43.83-26.8,49.73-50.87h258.9v1.56c0,67.3-.17,134.95,2.37,202.28,1.66,44,4.62,87.77,4.62,131.87C929.41,829.37,928.91,868.1,930.19,906.42ZM895.36,596.11c.49-9.11.66-19.05-.77-27.73l-6.13-5.7c-5.32-.26-14.34-.28-22.56-.22v-1.22c-.77-10.45-.39-32.88-.39-32.88-25.73,0-54.31-.53-80.13.58-43.11,1.86-75.76-.58-132.89,3.33v51.78c0,75.47-4.81,151.24-3.88,226.94.39,31.37-2.43,63.59-.78,94.78.43,8,.06,8.58,7.77,9.38,33.61,3.5,67.91.77,101.73.77,19.13,0,37.81.23,56.8-.71,9.72-.48,19.35-.87,29.06-1.68,7.53-.63,20.77-1.23,27.86-3.65.28-15.78-.63-40.47-.63-40.47,8.56-.34,16.91-1,24.86-1,.48-9.11.65-19.05-.78-27.72l-6-7c-4.54-.22-11.77-.26-18.9-.23h0c-.56-47.5.62-95-.18-142.55-.51-29.91-2-91-2-94.31v0C880.83,596.22,895.36,596.11,895.36,596.11Z"/><path d="M894.59,568.38c1.43,8.68,1.26,18.62.77,27.73,0,0-14.53.11-28,.43-5,.12-9.89.28-13.81.46l-6.13-5.7c14.45-.69,41.82-.9,41.82-.9.49-9.11.66-19-.77-27.72Z"/><path d="M894.49,840.72c1.43,8.67,1.26,18.61.78,27.72-7.95-.05-16.3.63-24.86,1a160.05,160.05,0,0,1-17-.08l-6-7c14.43,1,28.69-1,41.82-.89.49-9.11.66-19-.77-27.73Z"/><path class="cls-6" d="M888.46,562.68c1.43,8.67,1.26,18.61.77,27.72,0,0-27.37.21-41.82.9-2.41-5.87.15-28.61.15-28.61s8.61-.17,18.34-.23C874.12,562.4,883.14,562.42,888.46,562.68Z"/><path class="cls-6" d="M888.46,833.68c1.43,8.68,1.26,18.62.77,27.73-13.13-.09-27.39,1.84-41.82.89-1.73-6.1.15-28.6.15-28.6s10.87-.21,22-.25C876.69,833.42,883.92,833.46,888.46,833.68Z"/><path class="cls-6" d="M870.41,869.41s.91,24.69.63,40.47c-7.09,2.42-20.33,3-27.86,3.65-9.71.81-19.34,1.2-29.06,1.68-19,.94-37.67.71-56.8.71-33.82,0-68.12,2.73-101.73-.77-7.71-.8-7.34-1.35-7.77-9.38-1.65-31.19,1.17-63.41.78-94.78-.93-75.7,3.9-151.47,3.88-226.94V532.27c57.13-3.91,89.78-1.47,132.89-3.33,25.82-1.11,54.4-.58,80.13-.58,0,0-.38,22.43.39,32.88v1.22c-9.73.06-18.34.23-18.34.23s-2.56,22.74-.15,28.61l6.13,5.7c3.92-.18,8.79-.34,13.81-.46v0c0,3.28,1.52,64.4,2,94.31.8,47.54-.38,95.05.18,142.55h0c-11.13,0-22,.25-22,.25s-1.88,22.5-.15,28.6l6,7A160.05,160.05,0,0,0,870.41,869.41ZM750.51,713.54q.09-1.37.09-2.76a41,41,0,0,0-82-1.35c0,.45,0,.9,0,1.35a40.68,40.68,0,0,0,5,19.53,41.07,41.07,0,0,0,44.77,20.52h0a41,41,0,0,0,32.16-37.28Z"/><path class="cls-6" d="M750.6,710.78q0,1.4-.09,2.76l-1.39-.09c-6.63-1.06-17.65-.62-25-.62h0a10.66,10.66,0,0,0-.33-1.38,52.3,52.3,0,0,0-3.2-6.4l0,0a11.82,11.82,0,0,0-1-1.73.43.43,0,0,0,0-.07s16.14-11.87,23-14.82l1-.53A40.76,40.76,0,0,1,750.6,710.78Z"/><path class="cls-6" d="M749.12,713.45l1.39.09a40.8,40.8,0,0,1-9.27,23.31l-1-.56s-11-8.71-17.82-13.52a13.72,13.72,0,0,0,1.7-9.94h0C731.47,712.83,742.49,712.39,749.12,713.45Z"/><path class="cls-6" d="M743.6,687.87l-1,.53c-6.85,3-23,14.82-23,14.82a11.18,11.18,0,0,0-5.52-4.33l.38-1c2.1-7.21,6.74-19,8.66-24.56l.39-1.09A41.12,41.12,0,0,1,743.6,687.87Z"/><path class="cls-6" d="M740.27,736.29l1,.56a41,41,0,0,1-22.89,14l-.27-1.2S714,735,712.86,727.85a11.17,11.17,0,0,0,9.59-5.08C729.23,727.58,740.27,736.29,740.27,736.29Z"/><path d="M724.15,712.83a13.72,13.72,0,0,1-1.7,9.94,11.17,11.17,0,0,1-9.59,5.08,15.37,15.37,0,0,1-2.22-.08,11.58,11.58,0,0,1-7.45-3.65,43.88,43.88,0,0,1-3.47-5.71,11.54,11.54,0,0,0,8.44,4.88c12.33,1.25,16.11-10.38,12.46-18.24a52.3,52.3,0,0,1,3.2,6.4A10.66,10.66,0,0,1,724.15,712.83Z"/><path class="cls-6" d="M723.49,672.21l-.39,1.09c-1.92,5.52-6.56,17.35-8.66,24.56l-.38,1a13.45,13.45,0,0,0-6.77-.5l-.1,0-.05-.29c-.68-6.29-5.13-21.12-6.86-27.24h0a41.19,41.19,0,0,1,23.21,1.34Z"/><path class="cls-6" d="M720.62,705.05c3.65,7.86-.13,19.49-12.46,18.24a11.54,11.54,0,0,1-8.44-4.88.21.21,0,0,0,0-.06c-.74-1.35-1.31-2.44-1.39-2.6v0a14.05,14.05,0,0,1-1-5.77,12.62,12.62,0,0,1,2.76-7.59,11.52,11.52,0,0,1,7.14-4l.1,0a13.45,13.45,0,0,1,6.77.5,11.18,11.18,0,0,1,5.52,4.33.43.43,0,0,1,0,.07c.12.21.5.87,1,1.73Z"/><path class="cls-7" d="M719.62,703.29a11.82,11.82,0,0,1,1,1.73C720.12,704.16,719.74,703.5,719.62,703.29Z"/><path class="cls-6" d="M718.35,750.82h0a41.27,41.27,0,0,1-8.74.93,40.79,40.79,0,0,1-22.09-6.46l3.43-.53c2.27-4,12.24-20.65,12.24-20.65a11.58,11.58,0,0,0,7.45,3.65,15.37,15.37,0,0,0,2.22.08c1.15,7.14,5.22,21.77,5.22,21.77Z"/><path class="cls-6" d="M707.14,698.12l.05.29a11.52,11.52,0,0,0-7.14,4l-.42-.57c-5.81-6-13.6-12.33-19.93-17.92l-.57-.5a41,41,0,0,1,21.15-12.51h0C702,677,706.46,691.83,707.14,698.12Z"/><path class="cls-6" d="M699.72,718.41a43.88,43.88,0,0,0,3.47,5.71s-10,16.68-12.24,20.65l-3.43.53a41.11,41.11,0,0,1-13.94-15l1.38-.2c6.49-4.58,16.23-8.54,23.32-12l.84-.64c.18.3.36.59.56.88A.21.21,0,0,1,699.72,718.41Z"/><path class="cls-6" d="M699.63,701.8l.42.57a12.62,12.62,0,0,0-2.76,7.59l-.81,0a230,230,0,0,0-27.23-.47l-.6,0a40.92,40.92,0,0,1,10.48-26l.57.5C686,689.47,693.82,695.75,699.63,701.8Z"/><path class="cls-7" d="M699.68,718.35c-.2-.29-.38-.58-.56-.88a12.37,12.37,0,0,1-.83-1.72C698.37,715.91,698.94,717,699.68,718.35Z"/><path class="cls-6" d="M699.12,717.47l-.84.64c-7.09,3.46-16.83,7.42-23.32,12l-1.38.2a40.68,40.68,0,0,1-5-19.53c0-.45,0-.9,0-1.35l.6,0a230,230,0,0,1,27.23.47l.81,0a14.05,14.05,0,0,0,1,5.77v0A12.37,12.37,0,0,0,699.12,717.47Z"/><path class="cls-8" d="M604,502.25c-12-6-24.81-17-30.65-26.2-8.29-13.11-13.21-39.77-9.05-54.62,16-3.27,34-4,49.47-18.79,6.7,5.16,11.13,9.45,20.33,11.66,10.25,2.46,20.75,1.1,31.23,1.63a105.7,105.7,0,0,1-1.81,39.24c-5.9,24.07-21.29,45.32-49.73,50.87A48.82,48.82,0,0,1,604,502.25ZM639,470l-2-24.32c-3.24-.16-6.61-.23-10.06-.18v0c.16-26.64-30.64-25.49-26.18,2.34-3.11.55-6.12,1.22-9,2a119.7,119.7,0,0,0,.68,23.21C606.6,473.76,624.91,471.32,639,470Z"/><path class="cls-2" d="M615,458.08c.78-.14,2.08.05,2.22-1.41s-4.31-1.7-4.34,0c0,1.57,1.16,1.71,1.86,1.37Zm22-12.41L639,470c-14.12,1.33-32.43,3.77-46.56,3a119.7,119.7,0,0,1-.68-23.21c2.86-.77,5.87-1.44,9-2A159.36,159.36,0,0,1,627,445.49C630.4,445.44,633.77,445.51,637,445.67Z"/><path class="cls-8" d="M627,445.47v0a159.36,159.36,0,0,0-26.18,2.32C596.31,420,627.11,418.83,627,445.47Z"/><path class="cls-3" d="M507.59,875.23c-6.54-7.85-20.49-24-22.11-34.48-.86-5.51.88-12.44,2-17.84,3.62-17.59,25.86-87.26,25.86-87.26l-.3-.83c7.91-2.87,15.73-7.81,21.35-11l.06-.13.08,0c15.31,7.95,36.91,21.73,50.58,4.7,5.88-7.33,14.33-18.26,18.11-26.7h.8v59.08h-.13s-21.33,52.68-37,93.79c-5.23,13.78-9.83,26.26-12.77,35-2.16,6.45-6.1,18-10.25,30.09-5.08,14.88-10.5,30.64-13.37,39a8.86,8.86,0,0,1-8.38,6H476.67a1.14,1.14,0,0,1-1-1.77l10.68-14.74C492.08,927.84,501.43,896.21,507.59,875.23Z"/><path class="cls-3" d="M534.43,723.67l-.06.13c-5.62,3.21-13.44,8.15-21.35,11-6.1,2.19-12.24,3.17-17.47,1.17-11.56-4.42-11.79-18.23-7.9-27.66,3-7.28,8-13.63,12.5-20.12,5.91-8.45,12-18.24,19.28-25.67,8.23-8.37,18.08-8.18,29.41-9.17,7.24-.64,13.93-2,21.4-2,5.14,0,26.28-.84,32,0H604v50.33h-.8c-3.78,8.44-12.23,19.37-18.11,26.7-13.67,17-35.27,3.25-50.58-4.7Zm32.65-13.45c14.56-5.75,10-16.17,3.41-27.12-4.5-.22-28.7,6.57-28.2,10.41C550,706,549.81,717,567.08,710.22Z"/><path class="cls-3" d="M600.62,905.66a11,11,0,0,1-.17,13.1c-5.13,6.69-11.87,16.78-15.54,21.45-3.94,5-13.53,16.87-18.71,22.2a2.25,2.25,0,0,1-1.62.7,2.29,2.29,0,0,1-2.31-2.3l0-18.47c-2.15-4-7.8-9.56-10.68-13.16-1.45-1.81-4.18-5.2-7.65-9.48,4.15-12.11,8.09-23.64,10.25-30.09,2.94-8.77,7.54-21.25,12.77-35,6.05,9.82,12.29,19.45,18.84,29C588.57,887.66,595.44,898.54,600.62,905.66Z"/><path class="cls-3" d="M559.41,587.48c23.18-3.78,28.72,24.65,24.34,40.84-3,11.08-6.66,17-18.41,20.42C535.56,654.76,530.52,592.19,559.41,587.48Z"/><path class="cls-3" d="M570.49,683.1c6.6,10.95,11.15,21.37-3.41,27.12C549.81,717,550,706,542.29,693.51,541.79,689.67,566,682.88,570.49,683.1Z"/><line class="cls-9" x1="1102.59" y1="868.71" x2="1102.59" y2="507.04"/><polyline class="cls-9" points="604 502.19 604 502.25 604 651.38 604 701.71 604 760.79 604 912.1 604 964.64 930.29 964.64 1024.48 964.64"/><polyline class="cls-9" points="1017.49 455.17 942.24 455.17 922.42 455.17 899.68 455.17 854.44 455.17 663.52 455.17 663.51 455.17"/><path class="cls-9" d="M922.42,456.73c0,67.3-.17,134.95,2.37,202.28,1.66,44,4.62,87.77,4.62,131.87,0,38.49-.5,77.22.78,115.54.6,18.33.1,57.11.1,57.11"/><path class="cls-9" d="M847.41,591.3c-2.41-5.87.15-28.61.15-28.61s8.61-.17,18.34-.23c8.22-.06,17.24,0,22.56.22,1.43,8.67,1.26,18.61.77,27.72C889.23,590.4,861.86,590.61,847.41,591.3Z"/><path class="cls-9" d="M888.46,562.68l6.13,5.7c1.43,8.68,1.26,18.62.77,27.73,0,0-14.53.11-28,.43-5,.12-9.89.28-13.81.46l-6.13-5.7"/><path class="cls-9" d="M847.41,862.3c-1.73-6.1.15-28.6.15-28.6s10.87-.21,22-.25c7.13,0,14.36,0,18.9.23,1.43,8.68,1.26,18.62.77,27.73C876.1,861.32,861.84,863.25,847.41,862.3Z"/><path class="cls-9" d="M888.46,833.68l6,7c1.43,8.67,1.26,18.61.78,27.72-7.95-.05-16.3.63-24.86,1a160.05,160.05,0,0,1-17-.08l-6-7"/><path class="cls-9" d="M870.41,869.41s.91,24.69.63,40.47c-7.09,2.42-20.33,3-27.86,3.65-9.71.81-19.34,1.2-29.06,1.68-19,.94-37.67.71-56.8.71-33.82,0-68.12,2.73-101.73-.77-7.71-.8-7.34-1.35-7.77-9.38-1.65-31.19,1.17-63.41.78-94.78-.93-75.7,3.9-151.47,3.88-226.94V532.27c57.13-3.91,89.78-1.47,132.89-3.33,25.82-1.11,54.4-.58,80.13-.58,0,0-.38,22.43.39,32.88"/><path class="cls-9" d="M867.35,596.58c0,3.28,1.52,64.4,2,94.31.8,47.54-.38,95.05.18,142.55"/><path class="cls-9" d="M743.6,687.87a40.76,40.76,0,0,1,7,22.91q0,1.4-.09,2.76a41,41,0,0,1-32.16,37.28h0a41.27,41.27,0,0,1-8.74.93,41,41,0,0,1-41-41c0-.45,0-.9,0-1.35a41,41,0,0,1,75-21.56Z"/><path class="cls-9" d="M698.28,715.73a14.05,14.05,0,0,1-1-5.77,12.62,12.62,0,0,1,2.76-7.59,11.52,11.52,0,0,1,7.14-4l.1,0a13.45,13.45,0,0,1,6.77.5,11.18,11.18,0,0,1,5.52,4.33"/><path class="cls-9" d="M699.68,718.35c-.2-.29-.38-.58-.56-.88a12.37,12.37,0,0,1-.83-1.72"/><path class="cls-9" d="M720.62,705.05c3.65,7.86-.13,19.49-12.46,18.24a11.54,11.54,0,0,1-8.44-4.88"/><path class="cls-9" d="M719.62,703.29a11.82,11.82,0,0,1,1,1.73"/><path class="cls-9" d="M719.58,703.22a.43.43,0,0,1,0,.07c.12.21.5.87,1,1.73l0,0a52.3,52.3,0,0,1,3.2,6.4,10.66,10.66,0,0,1,.33,1.38,13.72,13.72,0,0,1-1.7,9.94,11.17,11.17,0,0,1-9.59,5.08,15.37,15.37,0,0,1-2.22-.08,11.58,11.58,0,0,1-7.45-3.65,43.88,43.88,0,0,1-3.47-5.71.21.21,0,0,0,0-.06c-.74-1.35-1.31-2.44-1.39-2.6v0"/><path class="cls-9" d="M703.19,724.12s-10,16.68-12.24,20.65"/><path class="cls-9" d="M698.28,718.11c-7.09,3.46-16.83,7.42-23.32,12"/><path class="cls-9" d="M669.25,709.45a230,230,0,0,1,27.23.47"/><path class="cls-9" d="M699.63,701.8c-5.81-6-13.6-12.33-19.93-17.92"/><path class="cls-9" d="M707.14,698.12c-.68-6.29-5.13-21.12-6.86-27.24"/><path class="cls-9" d="M714.44,697.86c2.1-7.21,6.74-19,8.66-24.56"/><path class="cls-9" d="M719.58,703.22s16.14-11.87,23-14.82"/><path class="cls-9" d="M724.16,712.83c7.31,0,18.33-.44,25,.62"/><path class="cls-9" d="M722.45,722.77c6.78,4.81,17.82,13.52,17.82,13.52"/><path class="cls-9" d="M712.86,727.85c1.15,7.14,5.22,21.77,5.22,21.77"/><path class="cls-9" d="M604,502.25c-12-6-24.81-17-30.65-26.2-8.29-13.11-13.21-39.77-9.05-54.62,16-3.27,34-4,49.47-18.79,6.7,5.16,11.13,9.45,20.33,11.66,10.25,2.46,20.75,1.1,31.23,1.63a105.7,105.7,0,0,1-1.81,39.24c-5.9,24.07-21.29,45.32-49.73,50.87A48.82,48.82,0,0,1,604,502.25Z"/><path class="cls-9" d="M627,445.49c3.45-.05,6.82,0,10.06.18L639,470c-14.12,1.33-32.43,3.77-46.56,3a119.7,119.7,0,0,1-.68-23.21c2.86-.77,5.87-1.44,9-2A159.36,159.36,0,0,1,627,445.49Z"/><path class="cls-9" d="M614.92,458l-.18.1c-.7.34-1.88.2-1.86-1.37,0-1.73,4.47-1.49,4.34,0s-1.44,1.27-2.22,1.41a39.58,39.58,0,0,1,.11,5.44"/><path class="cls-9" d="M600.77,447.81c-4.46-27.83,26.34-29,26.18-2.34"/><line class="cls-9" x1="514.68" y1="420.51" x2="492.78" y2="411.81"/><line class="cls-9" x1="536.31" y1="386.19" x2="521.54" y2="374.01"/><line class="cls-9" x1="607.24" y1="355.82" x2="603.89" y2="334.52"/><line class="cls-9" x1="626.69" y1="355.04" x2="631.09" y2="338.78"/><line class="cls-9" x1="673.76" y1="376.43" x2="690.3" y2="365.9"/><path class="cls-9" d="M565.34,648.74c-29.78,6-34.82-56.55-5.93-61.26,23.18-3.78,28.72,24.65,24.34,40.84C580.76,639.4,577.09,645.34,565.34,648.74Z"/><path class="cls-9" d="M542.29,693.51C550,706,549.81,717,567.08,710.22c14.56-5.75,10-16.17,3.41-27.12C566,682.88,541.79,689.67,542.29,693.51Z"/><path class="cls-9" d="M578.38,676.1c-2,3.07-4.37,6-6.46,8.86"/><path class="cls-9" d="M602.2,651.38c-5.68-.84-26.82,0-32,0-7.47,0-14.16,1.35-21.4,2-11.33,1-21.18.8-29.41,9.17-7.31,7.43-13.37,17.22-19.28,25.67-4.52,6.49-9.5,12.84-12.5,20.12-3.89,9.43-3.66,23.24,7.9,27.66,5.23,2,11.37,1,17.47-1.17,7.91-2.87,15.73-7.81,21.35-11"/><path class="cls-9" d="M603.2,701.71c-3.78,8.44-12.23,19.37-18.11,26.7-13.67,17-35.27,3.25-50.58-4.7l-.08,0c-7.91-4.09-19.32-7.93-24.7-15.48-3.22-4.53-1.69-7.4,2.29-11.8,7.13-7.89,20.83-10.58,29.61-4.19"/><path class="cls-9" d="M568,707.34c.5-4.41-1.48-10.66-2.64-13.83"/><path class="cls-9" d="M559.09,711.29a37.83,37.83,0,0,0-3-14.48"/><path class="cls-9" d="M522.14,964.64a8.86,8.86,0,0,0,8.38-6c2.87-8.33,8.29-24.09,13.37-39,4.15-12.11,8.09-23.64,10.25-30.09,2.94-8.77,7.54-21.25,12.77-35,15.63-41.11,37-93.79,37-93.79"/><path class="cls-9" d="M547.56,745.87s-5.29,16.22-7.72,24.12c-2.34,7.6-4.24,15.12-6.75,22.73-8.87,26.83-17,53.59-25,80.72-.17.59-.35,1.18-.53,1.79-6.16,21-15.51,52.61-21.2,72.9l-10.68,14.74a1.14,1.14,0,0,0,1,1.77"/><path class="cls-9" d="M543.8,919.59l.09.11c3.47,4.28,6.2,7.67,7.65,9.48,2.88,3.6,8.53,9.18,10.68,13.16l0,18.47a2.29,2.29,0,0,0,2.31,2.3,2.25,2.25,0,0,0,1.62-.7c5.18-5.33,14.77-17.17,18.71-22.2,3.67-4.67,10.41-14.76,15.54-21.45a11,11,0,0,0,.17-13.1c-5.18-7.12-12-18-14.87-22.09-6.55-9.54-12.79-19.17-18.84-29l-.3-.49"/><path class="cls-9" d="M513.32,735.65s-22.24,69.67-25.86,87.26c-1.1,5.4-2.84,12.33-2,17.84,1.62,10.5,15.57,26.63,22.11,34.48h0"/><path class="cls-9" d="M553.36,610.6c.15-1.12.25-1.93.38-3.06"/><path class="cls-9" d="M556.83,624.71c2.27,1.52,11.08.07,12.13-2.42"/><path class="cls-9" d="M566.53,610.6c.15-1.12.25-1.93.38-3.06"/><path class="cls-9" d="M1160.7,981.89c1-6.19,1.43-15.56,1.45-24.81,0-13.23-.71-26.23-1.45-29.37-.25,0-10.24,0-23.63-.11-7.33-.05-15.69-.12-24-.22-15.68-.19-31.26-.51-39.73-1-10.91-.66-46.59.58-46.59.58s-.3,10.31-.5,13.62c-.27,4.67-.49,9.3-.69,13.91-.15,3.4-.28,6.79-.41,10.19-.22,5.8-.42,11.62-.66,17.51"/><path class="cls-9" d="M1161.23,957.07s-8.61-.2-17.85-.38c-5.5-.11-11.23-.21-15.49-.27-7.09-.09-14.25-.1-21.41-.2-8-.1-15.93-.31-23.8-.86-18.28-1.28-56.19-.84-56.19-.84"/><path class="cls-9" d="M1137.08,926.41l-.33-17.86-.13-7.35-92.94-2-14.92-.31-26.76-.56s.37,26.16.68,27.84a186.58,186.58,0,0,0,24.06.73"/><path class="cls-9" d="M1136.62,901.2c4.4-.12,8.88-.1,13.23-.45,3.73-.3.09-27.72-.19-30.92,0,0-18.58-.67-27.84-.79-6.4-.09-12.82,0-19.23.08-10,.12-20,.2-30-.55-9-.68-42.82-.16-42.82-.16l-1,30"/><path class="cls-9" d="M1193.5,982s-10.29-26.51-14-36.9c-7.08-20-14.56-40.28-21.48-60.37-1.8-5.22-3.75-10.56-5.57-15.88-.89-2.57-1.74-5.13-2.53-7.67-1-3.31-4.25-14-4.25-14s22.87-8.79,26.73-9.7c0,0,9.18,22.25,12.94,33.36,1.81,5.37,9.77,27.07,17.83,48.94,9.44,25.64,19,51.49,19,51.49Z"/><polyline class="cls-9" points="1143.9 936.59 1143.38 956.69 1142.73 981.76"/><path class="cls-9" d="M1123.42,954.91a142.57,142.57,0,0,1,.21-15.89"/><line class="cls-9" x1="1080.84" y1="954.76" x2="1081.36" y2="942.11"/><path class="cls-9" d="M1056.65,952.85c-.35-4.92.89-14.63.89-14.63"/><path class="cls-9" d="M1047.14,953.74a64.44,64.44,0,0,1,.42-8.27"/><path class="cls-9" d="M1106.22,977.6c-.12-5.53.69-11,.2-16.52"/><path class="cls-9" d="M1092.22,976.7c0-3.28.45-9.09.35-10.81"/><line class="cls-9" x1="1065.14" y1="976.48" x2="1065.82" y2="963.41"/><path class="cls-9" d="M1036.19,981.64s.72-10.39.46-16.19"/><line class="cls-9" x1="1113.08" y1="926.05" x2="1113.51" y2="906.46"/><path class="cls-9" d="M1097.07,919.39c0-5.63.35-8.83.22-13.89"/><path class="cls-9" d="M1072.84,916.21c-.1-4,0-13.31,0-13.31"/><path class="cls-9" d="M1050.86,926.05c-.1-3.87.43-19.95.43-19.95"/><path class="cls-9" d="M1015,915.19c-.42-3.68.32-16.08.32-16.08"/><path class="cls-9" d="M1044.86,890.9c-.47-6.67.83-15.9.72-21"/><line class="cls-9" x1="1062.62" y1="885.8" x2="1063.39" y2="868.71"/><line class="cls-9" x1="1089.65" y1="892.11" x2="1089.64" y2="878.29"/><path class="cls-9" d="M1116.83,890.84c0-6,.68-16.54.4-21.1"/><path class="cls-9" d="M1133,882.23c-.1-4,.12-7.63.33-11.44"/><line class="cls-9" x1="1177.01" y1="851.63" x2="1161.31" y2="857.39"/><line class="cls-9" x1="1184.89" y1="870.78" x2="1173.22" y2="875.51"/><line class="cls-9" x1="1190.32" y1="884.98" x2="1171.06" y2="892.18"/><line class="cls-9" x1="1199.5" y1="910.49" x2="1179.38" y2="917.64"/><polyline class="cls-9" points="1203.24 919.8 1203.21 919.81 1192.36 924.68"/><path class="cls-9" d="M1211,944.43s-13.2,5.45-18.61,7.82"/><polyline class="cls-9" points="1214.07 982.53 1193.5 982.53 1160.7 982.53 1142.73 982.53 1106.22 982.53 1024.48 982.53 1003.09 982.53"/><polyline class="cls-9" points="1043.68 899.26 1113.53 906.23 1136.75 908.55"/><path class="cls-9" d="M971.82,318.5c-13.23,1.67-26.1-11.05-29.64-24.35-4.06-15.23-1-39.27,19-39.8,27.3-.71,42,39.64,22.77,58A21.47,21.47,0,0,1,971.82,318.5Z"/><path class="cls-9" d="M854.44,454.27C853.62,446.22,865,445,869,442c8-5.94,13.1-21.34,17.59-30.38,12.32-24.85,23.19-44.93,36-69.59,8.2-15.81,28.82-17,45.15-20.2,12.73-2.47,33.12-9,46-6.51,20.47,3.9,26.14,28.32,36.56,42.56,0,0,24.38-33.86,25.78-40.91s-1.83-18.13-3.13-25c-.9-4.71,11.79-2.63,13.9-.61,4,3.85,6.8,15.84,6.8,15.84"/><path class="cls-9" d="M1114,306.56a20.66,20.66,0,0,1,1.71,2.27,48.91,48.91,0,0,1,4.56,8.49c2.35,5.86,3,12.13-1.3,17.34-5.5,6.71-11.26,8.63-16.38,7.51a17.18,17.18,0,0,1-8.88-5.55,29,29,0,0,1-5.89-10.52,31,31,0,0,1-1.43-7.74,8.14,8.14,0,0,1,3.15-6.95c1.46-1.12,3-2.4,4.72-3.63C1100.43,303.27,1107.74,299.42,1114,306.56Z"/><path class="cls-9" d="M899.68,455.08c6.56-1.52,14.38-14.89,17.31-20.32,4.15-7.67,22-45.71,22-45.71s-1.47,61.3,3.25,65.22"/><path class="cls-9" d="M979.29,415.43c15.1-1.6,33.73-2.2,51.35-2.46,9.29-.13,18.31-.17,26.39-.22,5.54,0,9.12.64,11.34,3.23,1.77,2.07,2.67,5.37,3,10.51.94,14.27-.05,29.19-1,43.73-.24,3.63-.49,7.23-.7,10.79-.56,9.34-.85,18.92-1.66,28.25-.58,6.76-.48,20.72-.48,20.72s6.76,5.51,9.91,8.15c-11.81,4.86-21.15,5.9-33.5,8-8.87,1.47-21.05,3.25-28.57,2.15-1.86-17.24.22-36.12.69-53.54.3-11.08,1.07-30,1.46-39.52.15-3.62.25-5.89.25-5.89"/><path class="cls-9" d="M1030.63,412.39s-.83-6.64-1.76-14.63c-.87-7.46-1.83-16.09-2.29-21.57-.34-4.1-1.8-14.15-1.8-14.15"/><path class="cls-9" d="M1102.59,342.47s-16.27,26.32-23.46,37.68c-5,7.8-10.42,17.07-17.65,22.9-5.87,4.73-13.38,6.94-20.4,3.83-3.95-1.75-12.12-9.13-12.12-9.13"/><path class="cls-9" d="M1068.37,416c5.43,0,10.35-.09,16.9,2,8.57,2.74,57.21,59,61.43,61.68s15.72,2.67,22.59,4.8c-11.33,9.1-22.91,18-34.5,26.93-7.83,6.05-11.11,12.17-19.44,6.65a67.64,67.64,0,0,1-12.57-11.18c-5.19-5.71-9.86-11.94-15.07-17.53-7.24-7.76-16.72-19.07-16.72-19.07"/><path class="cls-9" d="M1088.74,325.83c7.28,0,21.3-12.06,24.13-18.23"/><path class="cls-9" d="M1095,335.85c12.25-3.57,18.63-10.06,24.89-18.38"/><path class="cls-9" d="M976.91,300.65a8,8,0,0,0,3.3-4.69c.67-2.74.83-10.13-3.77-9.15-2,.42-4,2.06-6.08,2.51a23.54,23.54,0,0,1-8.89.15c-2.8-.39-5,.06-4.59,3.37A12.77,12.77,0,0,0,958.8,298c2,3,5.15,5.37,8.73,5.32A17.21,17.21,0,0,0,976.91,300.65Z"/><line class="cls-9" x1="972" y1="278.62" x2="971.54" y2="275.87"/><line class="cls-9" x1="962.14" y1="280.47" x2="961.68" y2="277.72"/><path class="cls-9" d="M959.37,297.86c2.37-1.89,7.86-2.95,10.76-2.24a11.51,11.51,0,0,1,6.63,4.52"/><polyline class="cls-9" points="604 964.64 564.58 964.64 522.14 964.64 476.67 964.64 455.29 964.64"/></g></svg>