<svg width="16" height="16" viewBox="0 0 16 16" fill="none" xmlns="http://www.w3.org/2000/svg">
<g id="event_available_24px">
<path id="icon/notification/event_available_24px" fill-rule="evenodd" clip-rule="evenodd" d="M12 2.66634H12.6667C13.4 2.66634 14 3.26634 14 3.99967V13.333C14 14.0663 13.4 14.6663 12.6667 14.6663H3.33333C2.6 14.6663 2 14.0663 2 13.333V3.99967C2 3.26634 2.6 2.66634 3.33333 2.66634H4V1.33301H5.33333V2.66634H10.6667V1.33301H12V2.66634ZM3.33333 13.333H12.6667V6.66634H3.33333V13.333ZM3.33333 5.33301V3.99967H12.6667V5.33301H3.33333ZM10.9935 8.3531L7.04012 12.3064L4.92678 10.1931L5.63345 9.48643L7.04012 10.8931L10.2868 7.64643L10.9935 8.3531Z" fill="#DADADA"/>
</g>
</svg>
