<svg width="129" height="161" viewBox="0 0 129 161" fill="none" xmlns="http://www.w3.org/2000/svg">
<path d="M110.591 34.5048C120.908 41.1278 125.599 56.5023 126.832 71.3441C128.064 86.186 125.867 100.497 120.543 116.07C115.219 131.643 106.798 148.515 93.5476 154.275C80.2681 160.065 62.1659 154.741 48.5543 145.954C34.982 137.169 25.8631 124.89 17.3436 111.577C8.82406 98.2646 0.870545 83.8905 0.0726381 67.7162C-0.758678 51.5438 5.56365 33.5457 18.11 27.3158C30.6879 21.0937 49.4918 26.683 66.8963 28.381C84.3009 30.079 100.275 27.8818 110.591 34.5048Z" fill="#4B4B4B"/>
<path d="M78.6102 161C84.1406 147.075 94.9221 139.936 95.5117 122.84C95.5314 121.574 74.6797 108.125 64.9515 108.351C55.2233 108.577 42.4902 161 42.4902 161H78.6102Z" fill="#FEFEFE"/>
<path d="M98.5502 10.6729H36.1543V121.857H98.5502V10.6729Z" fill="#FEFEFE"/>
<path d="M92.3346 59.3535H42.375V78.6978H92.3346V59.3535Z" fill="#FEFEFE"/>
<path d="M86.3145 144.693C90.4671 138.251 94.1894 131.706 94.5294 121.856" stroke="#3E79F1" stroke-width="1.7" stroke-linecap="round" stroke-linejoin="round"/>
<path d="M77.6289 160.017C78.8029 157.127 80.2142 154.34 81.8484 151.683" stroke="#3E79F1" stroke-width="1.7" stroke-linecap="round" stroke-linejoin="round"/>
<path d="M92.3346 30.9521H42.375V50.2965H92.3346V30.9521Z" fill="#FEFEFE"/>
<path d="M98.5502 10.6729H36.1543V22.1226H98.5502V10.6729Z" fill="#D0CFD3"/>
<path d="M98.5502 110.405H36.1543V121.855H98.5502V110.405Z" fill="#D0CFD3"/>
<path d="M62.7168 16.3975H71.993" stroke="#3E79F1" stroke-width="1.7" stroke-linecap="round" stroke-linejoin="round"/>
<path d="M67.3549 118.879C68.8734 118.879 70.1043 117.648 70.1043 116.129C70.1043 114.611 68.8734 113.38 67.3549 113.38C65.8364 113.38 64.6055 114.611 64.6055 116.129C64.6055 117.648 65.8364 118.879 67.3549 118.879Z" fill="#D0CFD3"/>
<path d="M27.0176 161C29.9655 149.798 30.5551 106.955 27.0176 97.1286C32.1273 93.3946 53.1559 77.4758 56.3004 74.9209C59.2483 76.8862 57.8726 93.1981 48.2427 100.273V105.186C53.3524 105.186 61.017 122.284 56.6934 140.365C54.1955 148.285 61.9309 161 61.9309 161H27.0176Z" fill="#FEFEFE"/>
<path d="M52.1211 108.328C55.8709 114.478 58.7441 126.688 55.7097 139.38" stroke="#3E79F1" stroke-width="1.7" stroke-linecap="round" stroke-linejoin="round"/>
<path d="M52.3263 76.2762C53.7295 75.1933 54.7829 74.3718 55.3174 73.9375C58.2654 75.9028 56.8897 92.2147 47.2598 99.2897V102.865" stroke="#3E79F1" stroke-width="1.7" stroke-linecap="round" stroke-linejoin="round"/>
<path d="M28.9883 93.9557C33.42 90.6501 40.6483 85.1905 46.4793 80.7568" stroke="#3E79F1" stroke-width="1.7" stroke-linecap="round" stroke-linejoin="round"/>
<path d="M26.0332 160.017C28.3562 151.191 29.213 122.728 27.743 106.241" stroke="#3E79F1" stroke-width="1.7" stroke-linecap="round" stroke-linejoin="round"/>
<path d="M105.086 93.1328C119.596 102.83 96.1048 121.236 89.8316 126.321C88.2083 125.157 87.0821 109.366 105.086 93.1328Z" fill="#FEFEFE"/>
<path d="M93.9738 121.092C91.8925 122.894 90.053 124.361 88.8502 125.337C86.5921 124.113 87.3704 115.187 93.7635 105.238" stroke="#3E79F1" stroke-width="1.7" stroke-linecap="round" stroke-linejoin="round"/>
<path d="M104.106 92.1494C112.047 97.4557 108.604 105.372 102.832 112.286" stroke="#3E79F1" stroke-width="1.7" stroke-linecap="round" stroke-linejoin="round"/>
<path d="M111.36 24.7129C112.797 24.7129 113.962 23.5479 113.962 22.1108C113.962 20.6738 112.797 19.5088 111.36 19.5088C109.923 19.5088 108.758 20.6738 108.758 22.1108C108.758 23.5479 109.923 24.7129 111.36 24.7129Z" stroke="#D0CFD3" stroke-width="1.7" stroke-linecap="round" stroke-linejoin="round"/>
<path d="M103.09 7.09604C103.09 7.01546 103.09 6.93292 103.09 6.85038C103.09 5.54494 103.527 4.27703 104.33 3.24837C105.134 2.21972 106.259 1.48943 107.525 1.1737C108.792 0.85797 110.128 0.974939 111.321 1.50599C112.513 2.03705 113.494 2.95169 114.107 4.10437C114.719 5.25705 114.929 6.58156 114.702 7.86714C114.475 9.15272 113.825 10.3255 112.855 11.1989C111.885 12.0723 110.65 12.5962 109.348 12.6871C108.046 12.778 106.75 12.4308 105.668 11.7007" stroke="#D0CFD3" stroke-width="1.7" stroke-linecap="round" stroke-linejoin="round"/>
<path d="M122.794 14.9516C121.956 14.6994 121.219 14.1869 120.69 13.4881C120.162 12.7894 119.87 11.9407 119.856 11.0649C119.842 10.189 120.107 9.33144 120.613 8.61625C121.119 7.90105 121.839 7.36532 122.669 7.08659C123.5 6.80785 124.397 6.80057 125.232 7.06579C126.067 7.331 126.796 7.85497 127.313 8.56186C127.83 9.26875 128.109 10.1219 128.11 10.9979C128.11 11.8738 127.832 12.7272 127.315 13.4344" stroke="#D0CFD3" stroke-width="1.7" stroke-linecap="round" stroke-linejoin="round"/>
<path d="M99.9286 84.3527C84.5993 93.5896 82.8306 113.636 84.7959 114.815C90.2987 112.653 110.738 90.0521 110.738 79.6361C110.738 77.2777 103.902 72.8165 102.332 72.1778C101.452 71.8339 102.389 70.3855 99.2545 73.2843C99.2741 76.1634 99.0501 81.5385 99.9286 84.3527Z" fill="#FEFEFE"/>
<path d="M101.35 71.1953C102.922 71.834 109.755 76.2952 109.755 78.6536C109.755 81.2084 108.519 84.5141 106.573 88.0634" stroke="#3E79F1" stroke-width="1.7" stroke-linecap="round" stroke-linejoin="round"/>
<path d="M98.8892 99.286C93.0817 106.532 86.5707 112.75 83.8134 113.829C81.8482 112.65 83.6169 92.604 98.9462 83.3672" stroke="#3E79F1" stroke-width="1.7" stroke-linecap="round" stroke-linejoin="round"/>
<path d="M99.5352 59.394C102.68 57.0356 113.685 46.4231 114.864 44.8508C117.419 44.0647 121.939 56.446 99.5352 74.5267" fill="#FEFEFE"/>
<path d="M107.465 65.2148C104.719 68.2224 101.739 71.0074 98.5527 73.5437" stroke="#3E79F1" stroke-width="1.7" stroke-linecap="round" stroke-linejoin="round"/>
<path d="M98.5527 58.4115C101.697 56.0531 112.703 45.4406 113.882 43.8684C115.69 43.3122 118.485 49.3574 112.009 59.3528" stroke="#3E79F1" stroke-width="1.7" stroke-linecap="round" stroke-linejoin="round"/>
</svg>
