<svg width="12" height="14" viewBox="0 0 12 14" fill="none" xmlns="http://www.w3.org/2000/svg">
<path fill-rule="evenodd" clip-rule="evenodd" d="M10.6667 1.66634H7.88C7.6 0.893008 6.86667 0.333008 6 0.333008C5.13333 0.333008 4.4 0.893008 4.12 1.66634H1.33333C0.6 1.66634 0 2.26634 0 2.99967V12.333C0 13.0663 0.6 13.6663 1.33333 13.6663H10.6667C11.4 13.6663 12 13.0663 12 12.333V2.99967C12 2.26634 11.4 1.66634 10.6667 1.66634ZM6 1.49967C6.14667 1.49967 6.27333 1.56634 6.36667 1.66634C6.44667 1.75301 6.5 1.87301 6.5 1.99967C6.5 2.27301 6.27333 2.49967 6 2.49967C5.72667 2.49967 5.5 2.27301 5.5 1.99967C5.5 1.87301 5.55333 1.75301 5.63333 1.66634C5.72667 1.56634 5.85333 1.49967 6 1.49967ZM1.33333 2.99967V12.333H10.6667V2.99967H1.33333ZM6 3.66634C4.9 3.66634 4 4.56634 4 5.66634C4 6.76634 4.9 7.66634 6 7.66634C7.1 7.66634 8 6.76634 8 5.66634C8 4.56634 7.1 3.66634 6 3.66634ZM5.33333 5.66634C5.33333 6.03301 5.63333 6.33301 6 6.33301C6.36667 6.33301 6.66667 6.03301 6.66667 5.66634C6.66667 5.29967 6.36667 4.99967 6 4.99967C5.63333 4.99967 5.33333 5.29967 5.33333 5.66634ZM2 10.6463V11.6663H10V10.6463C10 8.97963 7.35333 8.25963 6 8.25963C4.64667 8.25963 2 8.97296 2 10.6463ZM5.99982 9.58638C5.12648 9.58638 3.99982 9.95971 3.53982 10.333H8.45982C8.00648 9.95971 6.87315 9.58638 5.99982 9.58638Z" fill="#DADADA"/>
</svg>
