<svg width="12" height="12" viewBox="0 0 12 12" fill="none" xmlns="http://www.w3.org/2000/svg">
<path fill-rule="evenodd" clip-rule="evenodd" d="M6.00037 0.666992C4.52704 0.666992 3.3337 1.86033 3.3337 3.33366C3.3337 4.80699 4.52704 6.00033 6.00037 6.00033C7.4737 6.00033 8.66704 4.80699 8.66704 3.33366C8.66704 1.86033 7.4737 0.666992 6.00037 0.666992ZM7.33366 3.33366C7.33366 2.60033 6.73366 2.00033 6.00032 2.00033C5.26699 2.00033 4.66699 2.60033 4.66699 3.33366C4.66699 4.067 5.26699 4.667 6.00032 4.667C6.73366 4.667 7.33366 4.067 7.33366 3.33366ZM10.0003 9.33366C9.86695 8.86033 7.80028 8.00033 6.00028 8.00033C4.20028 8.00033 2.13362 8.86033 2.00028 9.34033V10.0003H10.0003V9.33366ZM0.666992 9.33366C0.666992 7.56033 4.22033 6.66699 6.00033 6.66699C7.78032 6.66699 11.3337 7.56033 11.3337 9.33366V11.3337H0.666992V9.33366Z" fill="#DADADA"/>
</svg>
