<svg xmlns="http://www.w3.org/2000/svg" viewBox="0 0 1600 1200"><defs><style>.cls-1{fill:#ecebe6;}.cls-1,.cls-11{stroke:#000;stroke-linecap:round;stroke-linejoin:round;stroke-width:3px;}.cls-2{fill:#9ebdbc;}.cls-3{fill:#d8eff0;}.cls-4{fill:#1f4756;}.cls-5{fill:#ffdf8c;}.cls-6{fill:#95c3a5;}.cls-7{fill:#f78965;}.cls-8{fill:#a24f31;}.cls-9{fill:#fff;}.cls-10{fill:#e7b45b;}.cls-11{fill:none;}</style></defs><g id="shopping"><path class="cls-1" d="M1353.69,663.69l-150.27,46.9s100.5-154.14,110.71-187.48c-6.32.16-158.5,38.5-181.36,45.24,8.13-20.91,27.15-40,32.21-62.29-10.5,1.89-114.15,38.73-152.08,56.74,11.51-31.81,27.82-69.1,42.73-102.18,10.67-23.68,67.26-136.34,67.26-136.34S937.25,375.1,912,384.62c8.27-29,14.83-57.74,21.58-86.94-37.43,15.89-171.1,77.37-200.35,91.29-.73-34.52-8.6-68.36-11-102.8-35.67,22.19-67.7,53.23-99.73,80.24-26.85,22.64-84.57,71.68-84.57,71.68s-78.38,4.65-110.51,2.3c-15.56-1.14-65.5-1.21-65.5-1.21s16.85,68.42,26.48,97.31c-26.78.71-111.33-1.66-111.33-1.66s22.82,65.37,33.17,91.64c10.7,27.16,22.56,57.78,39.77,81-30.54-8.34-103.65-16.23-103.65-16.23s21,65.89,29.45,90c14.86,42.25,32.94,83.72,51,124.69,8.86,20.13,19.72,40.06,29.29,59.94h856.28c8.55-18,17.74-35.51,26.87-52,30.16-54.57,54.85-111.27,81.38-167.59C1332.42,721.13,1353.69,663.69,1353.69,663.69Z"/><path class="cls-2" d="M1227.94,724.83a15.2,15.2,0,0,1,12.79,16.82c-1,8.09-2.13,17.81-3,24.27-2.48,19.21-5.39,38.24-8.08,57.33-2.54,18-6.12,55.59-21.38,61.9-6.67,2.75-13.31,2.59-20,1.87,12.07-2.95,20.65-10.73,24.56-29.63,2.28-11,5.61-32.41,8.6-52.91,2.15-14.67,4.12-28.89,5.4-38.52l.24-1.75c3-22,6.34-33.63-6.58-40.51Z"/><path class="cls-3" d="M1220.53,723.7c12.92,6.88,9.61,18.56,6.58,40.51l-.42-.06-12.1-1.41h-.13a206.83,206.83,0,0,0-1.06-30.43c-.41-3.41-1-6.71-1.66-9.88l.11,0Z"/><path class="cls-4" d="M1227.11,764.21l-.24,1.75c-1.28,9.63-3.25,23.85-5.4,38.52l-1-.14s-4.91-.94-9.5-1.54a395.61,395.61,0,0,0,3.46-40.06h.13l12.1,1.41Z"/><path class="cls-3" d="M1128,881l-7.53-.7c-6.65-.64-14.37-1.45-22.72-2.36-12.52-1.39-26.45-3-40.25-4.66h0c-4.58-.55-9.15-1.1-13.65-1.66-28.41-3.47-54-6.8-62.64-8-4.6-.66-14.17-1.82-23-2.87a18.79,18.79,0,0,1-16.43-21.17c1.23-9.1,2.74-20,4.15-29.1,1.5-9.75,3.65-23.79,5.74-37.17,17.86,1.87,51.79,5.43,61.83,6.44,36.73,3.7,74,8.21,110.72,13,7.75,1,25.15,2.93,43.29,5a218.71,218.71,0,0,1-5.61,27.25c-2.18,7.46-9.06,19.23-3.68,26.61l1,.36c-5.41,11.27-.19,14.6,15.27,14.07,26.51-.9,31.69-31,35.3-54.07.45-2.9.9-5.95,1.32-9.11,4.59.6,9.5,1.54,9.5,1.54l1,.14c-3,20.5-6.32,41.9-8.6,52.91-3.91,18.9-12.49,26.68-24.56,29.63-2.4-.25-4.8-.58-7.22-.87l-3.16-.38c-14.44-1.71-29.3-3.25-43.73-4.26C1132.34,881.38,1130.25,881.21,1128,881Zm-.1-38.15c.58-11.3-9.69-15.4-19.29-15.62a35.24,35.24,0,0,0-5.19.26,31.53,31.53,0,0,0-5.31,1.16c-3.85,1.2-7.71,3.2-9.66,6.05-7.7,11.23,3,18.8,13.53,16.67a15.79,15.79,0,0,0,4.64-1.84,7.21,7.21,0,0,0,1.7,1.57C1115.88,856.06,1127.33,853.13,1127.86,842.87Z"/><path class="cls-5" d="M1167.16,717.18l-.28.05c-15.59-1.88-31-4.28-46.88-6.24-20.16-2.49-41.33-4.07-62-6v-.15c5.37-6.63,14-12.62,31.9-20.07,32.4-13.5,73.86-10,89-4.09,18.77,7.37,28.6,22.22,32.86,41.78.7,3.17,1.25,6.47,1.66,9.88a206.83,206.83,0,0,1,1.06,30.43A395.61,395.61,0,0,1,1211,802.8c-.42,3.16-.87,6.21-1.32,9.11-3.61,23.08-8.79,53.17-35.3,54.07-15.46.53-20.68-2.8-15.27-14.07l-1-.36c-5.38-7.38,1.5-19.15,3.68-26.61a218.71,218.71,0,0,0,5.61-27.25,208,208,0,0,0,2.33-27.4c0-3.9,0-8.18,0-12.59C1169.64,742,1169,724.65,1167.16,717.18Z"/><path d="M1177.93,885.77l0,.33c-.11,2.56-.21,5.12-.32,7.69L1128,881c2.29.19,4.38.36,6.24.49C1148.63,882.52,1163.49,884.06,1177.93,885.77Z"/><path class="cls-5" d="M1128,881l49.61,12.77c-.77,19.49-1.4,39.1-2.4,58.59-.79,15.41-.13,31.2-1.36,46.28a8,8,0,0,1-7.75,7.39c-9.78.34-25.37.87-34.66.64-7.49-.19-14.69-.48-21.71-1.06a3.61,3.61,0,0,1-2.42-6,76.36,76.36,0,0,0,7.66-10.51c1.58-14.76,2.67-33.91,3.34-48.92.88-20,1.65-40,2.16-59.9Z"/><path class="cls-4" d="M1169.77,757.7c0,4.41,0,8.69,0,12.59a208,208,0,0,1-2.33,27.4c-18.14-2-35.54-3.94-43.29-5-36.69-4.8-74-9.31-110.72-13-10-1-44-4.57-61.83-6.44,1.55-9.88,3.06-19.41,4.26-26.59.55-3.28,1.2-6.9,2.07-10.62,7.51.89,17.49,2.08,29.74,3.5,27.82,3.24,55.9,5.8,83.94,8C1087.62,748.76,1131.92,753.5,1169.77,757.7Z"/><path class="cls-3" d="M1167.16,717.18c1.79,7.47,2.48,24.81,2.61,40.52-37.85-4.2-82.15-8.94-98.16-10.17-28-2.16-56.12-4.72-83.94-8-12.25-1.42-22.23-2.61-29.74-3.5,2.72-11.63,7.53-24.14,17.57-29.61a39.75,39.75,0,0,1,8.7-3.36c-6.42,9.32-5.68,22.41,8.64,23.81,6.18.61,18.09-.2,22.95-4.51,4.08-3.63,10.29-14.6,11-20.68,5.18.48,10,1,14.24,1.51,1.48.17,3,.33,4.45.48q6.21.66,12.52,1.25c20.7,2,41.87,3.54,62,6,15.88,2,31.29,4.36,46.88,6.24Z"/><path class="cls-5" d="M1138.76,595.52c36.14-7.84,31.78,37.35,22.53,57.67-6.52,14.35-21.39,26.36-37.67,18.69-.46-.22-.92-.45-1.36-.7C1095.58,656.54,1112.67,601.19,1138.76,595.52Z"/><path class="cls-3" d="M1108.57,827.25c9.6.22,19.87,4.32,19.29,15.62-.53,10.26-12,13.19-19.58,8.25a7.21,7.21,0,0,1-1.7-1.57c6.55-3.74,12.28-11.86,4.82-17.33a4.92,4.92,0,0,0-2.87-1.12Z"/><path class="cls-3" d="M1111.4,832.22c7.46,5.47,1.73,13.59-4.82,17.33-4.45-5.58-3.26-18.45,2-18.45A4.92,4.92,0,0,1,1111.4,832.22Z"/><path class="cls-3" d="M1108.57,827.25l0,3.85c-5.21,0-6.4,12.87-2,18.45a15.79,15.79,0,0,1-4.64,1.84c-10.5,2.13-21.23-5.44-13.53-16.67,1.95-2.85,5.81-4.85,9.66-6.05a31.53,31.53,0,0,1,5.31-1.16A35.24,35.24,0,0,1,1108.57,827.25Z"/><path d="M1097.71,878q-.8,3.54-1.6,7.08l-38.65-11.74C1071.26,875,1085.19,876.57,1097.71,878Z"/><path class="cls-5" d="M1057.46,873.3,1096.11,885q-2.89,12.76-6,25.48c-4.3,17.8-9.82,35.54-14.39,53.27-1.76,6.84-4.37,20.7-9.29,32.1a9,9,0,0,1-8.66,5.44c-7.31-.32-18-3.57-21.93-4.55a100.28,100.28,0,0,1-32.11-14.67,4.2,4.2,0,0,1,1.22-7.42c6.38-2,13.63-3.61,13.63-3.61s8.28-30.13,10.92-40.54c4.94-19.42,10.13-39.25,14.26-58.9h0c4.5.56,9.07,1.11,13.65,1.66Z"/><path class="cls-3" d="M1057.43,822.37c.11,2.9-.64,8.88-1.41,14.78a13.54,13.54,0,0,0-4.78-.6c-7,.69-5.88,4.8-12.78.79-2-1.15-2-3.19-4.46-3.82-1.76-.45-3.92,2-5.69,1.85-6.22-.7-4.49-2-5.8-7.88-4.91,1.6-9.14,6.32-14.34,6.59,1.74-6,5.49-11.69,8.69-17.08C1029,818.39,1057.43,822.37,1057.43,822.37Z"/><path class="cls-3" d="M1056,837.15c-.6,4.57-1.22,9.1-1.46,12.1-11.77-1.9-19.14-2.38-27.81-3.47-7.9-1-26.46-3.08-34.38-4.44-3.55-.6-8.2-1.35-12.93-2.1,8.6-6.46,18.91-16.85,27-23.39l4.7.5c-3.93,4.56-8.19,8.95-10.64,14.22,6.41-2.54,10.78-9.21,16-13.62l.41,0c-3.2,5.39-7,11.12-8.69,17.08,5.2-.27,9.43-5,14.34-6.59,1.31,5.91-.42,7.18,5.8,7.88,1.77.19,3.93-2.3,5.69-1.85,2.5.63,2.49,2.67,4.46,3.82,6.9,4,5.81-.1,12.78-.79A13.54,13.54,0,0,1,1056,837.15Z"/><path class="cls-5" d="M1045.59,702.38l-.14,1.33c-1.49-.15-3-.31-4.45-.48-4.2-.47-9.06-1-14.24-1.51a8.29,8.29,0,0,0,.07-1.28c-.06-1.72-1.23-4.18-2.38-6.76-2.36-5.26-4.65-11,2.69-11.92S1045.14,695.69,1045.59,702.38Z"/><path class="cls-5" d="M1026.83,700.44a8.29,8.29,0,0,1-.07,1.28c-.68,6.08-6.89,17-11,20.68-4.86,4.31-16.77,5.12-22.95,4.51-14.32-1.4-15.06-14.49-8.64-23.81h0a22.69,22.69,0,0,1,7.42-6.89c6.78-3.84,23-3.13,31.1-2.64l1.72.11C1025.6,696.26,1026.77,698.72,1026.83,700.44Z"/><path class="cls-3" d="M963.28,836.73l-5.57-.85,3.76-25.12,16.58,2c9.88,1.18,18.92,2.09,28.38,3.1-8.08,6.54-18.39,16.93-27,23.39C973.53,838.3,967.49,837.37,963.28,836.73Z"/><path class="cls-6" d="M879.94,467.15c28.42,8.36,38.56,38,28.85,61.72-12.57,30.78-54.07,40-80.4,15.22-9.63-9-14.69-22.55-11.26-37.87C822.81,480.84,850.1,458.38,879.94,467.15Z"/><path class="cls-7" d="M868.82,860.73c1.68,13.68,6.73,52.87,5.82,58.69-28.7,2.62-56.91,7.25-85.89,8.66-16.52.81-32.84,2.07-49.27,3.19l-.06-.92s-9.75-80.55-11.07-101.9l-.1-1.33c5.34-.38,11-.81,16.81-1.26l11.18-.88c18.75-1.52,36.93-3.14,46.37-4.11l2.19-.23c3.22-.35,7.36-.72,11.94-1.08,18.89-1.49,45.26-2.93,45.26-2.93S867.33,848.56,868.82,860.73Z"/><path class="cls-5" d="M794.59,759.77a33.5,33.5,0,0,1-1.17,10.06c-.61-1.58-1.32-3.26-2.14-5A30.63,30.63,0,0,0,794.59,759.77Z"/><path class="cls-5" d="M794.3,755.62a41.54,41.54,0,0,1,.29,4.15,30.63,30.63,0,0,1-3.31,5.09,54.08,54.08,0,0,0-3.82-6.67,16.3,16.3,0,0,0,3.64-5.8A36.17,36.17,0,0,1,794.3,755.62Z"/><path class="cls-5" d="M792,745.73a48,48,0,0,1,2.27,9.89,36.17,36.17,0,0,0-3.2-3.23,16,16,0,0,0,.92-6.66Z"/><path class="cls-5" d="M771.66,744.82h0c2.64,4.18,4.18,9.32,2.43,13.62a13.47,13.47,0,0,1-2.8,4.53c-5.78,5.72-14.13-3-18.34-9.22a21.24,21.24,0,0,0-4.6,9.5,14.1,14.1,0,0,0,.16,5.84l-.43.11c-17.89,9.14-64.37,11.12-90.67,2.43-1.18-.39-2.33-.8-3.43-1.24-25.49-10.08-38.69-19.06-53.35-30.47a9.18,9.18,0,0,0-14,3.4A391.49,391.49,0,0,0,568,793.64h0l-1.82.07c-21.49.91-42.47-.24-64-.36-30-.17-48.34-.75-60.41-4.69h0c3-6.15,6-12.09,8.37-16.27,5-8.75,13.93-30.09,21.17-44.2a2.46,2.46,0,0,0-2.91-3.48c-15.33,4.74-38.18,20.83-50,33.6-1.23-11.41-.16-27.72-.2-55.67h.11a181.25,181.25,0,0,1,30.75-19.43c22.72-11.25,39-15.65,69.05-19.49,25.79-3.29,64.45-.75,83.39,7.6,17.14,7.55,37.73,26.23,57.11,39,.74.49,1.5,1,2.29,1.45,13.64,8.39,33.11,15.47,48.51,17.74a131.82,131.82,0,0,0,40.93-.94c14.38-2.72,33.12-1.59,39.79,12.77a43.89,43.89,0,0,1,1.77,4.4h0a16,16,0,0,1-.92,6.66A29.6,29.6,0,0,0,771.66,744.82Z"/><path class="cls-5" d="M791.28,764.86c.82,1.71,1.53,3.39,2.14,5-2.39,8.41-8.59,14.72-20.12,14.83a30.35,30.35,0,0,1-16-4.39,22,22,0,0,1-5.89-5.21,15.55,15.55,0,0,1-2.87-6,14.1,14.1,0,0,1-.16-5.84l.4.07c3.38,9.6,14.48,11.62,21,11.21C778.31,774,785.71,771.75,791.28,764.86Z"/><path class="cls-5" d="M787.46,758.19a54.08,54.08,0,0,1,3.82,6.67c-5.57,6.89-13,9.14-21.58,9.68-6.47.41-17.57-1.61-21-11.21l-.4-.07a21.24,21.24,0,0,1,4.6-9.5c4.21,6.24,12.56,14.94,18.34,9.22l1.24.24A17,17,0,0,0,787.46,758.19Z"/><path class="cls-5" d="M791.1,752.39a16.3,16.3,0,0,1-3.64,5.8,35.1,35.1,0,0,0-15.8-13.36h0A29.6,29.6,0,0,1,791.1,752.39Z"/><path class="cls-5" d="M787.46,758.19a17,17,0,0,1-14.93,5l-1.24-.24a13.47,13.47,0,0,0,2.8-4.53c1.75-4.3.21-9.44-2.43-13.62A35.1,35.1,0,0,1,787.46,758.19Z"/><path class="cls-8" d="M739.42,930.35l.06.92q-6.13.43-12.3.81c-8.78.53-30.79.09-30.79.09-.26-20.61.46-42.07,1.07-62.59.33-10.86.67-34.17.67-40.79,5.19,0,16.55-.7,30.12-1.67l.1,1.33C729.67,849.8,739.42,930.35,739.42,930.35Z"/><path class="cls-9" d="M661,711.76c-.79-.48-1.55-1-2.29-1.45-19.38-12.76-40-31.44-57.11-39-18.94-8.35-57.6-10.89-83.39-7.6-30.05,3.84-46.33,8.24-69.05,19.49a181.25,181.25,0,0,0-30.75,19.43h-.11c0-1.31,0-2.65,0-4-.17-32.8,1-64,.23-96.88-.22-9.44.34-48.74,1.12-88.49,24.12,15.47,27.94,16.84,32.52,12.65l1.26.57a7,7,0,0,0,8.62-2.4c7.13-10.21,23.69-34,27.71-40.46,5.55-8.89,11-16.86,16.78-25.61,4.23-6.4,11.66-15.6,14.07-22.8,1.39-4.17.7-9,.49-13.62-.07-1.54-.94-21.1-2-33.28a4.28,4.28,0,0,0-5.62-3.69l-1.3.44c2.55-7.33,4.54-15,4.95-22.24,22.7-.48,42.33-1.67,55.13-1.59,16.71.09,35.75.07,49.15,1.45,8.72.89,18.13,3.1,23.43,11.35,6.68,10.42,8.2,27.56,8.48,39.84.26,11.59,1.61,22.88,1.53,34.38-.21,30.93,2.44,61.79,2.6,92.72C657.64,576.38,660.53,687.08,661,711.76Zm-69.52-58.44c18.78-18.83,17.37-66.82-12.91-68.55-25.45-1.46-37,23.48-34.15,48.05,1.88,16.51,7.61,23.59,14.4,26.67C569,664.08,580.43,664.43,591.51,653.32Z"/><path class="cls-9" d="M654,770.4c1.1.44,2.25.85,3.43,1.24a16.53,16.53,0,0,1-3.62,5.79c-8.39,8.24-19.47,12.1-34.54,13.85-17.11,2-34.07,1.7-51.21,2.37h0a391.49,391.49,0,0,1,18.56-50.31,9.18,9.18,0,0,1,14-3.4C615.29,751.34,628.49,760.32,654,770.4Z"/><path class="cls-5" d="M578.6,584.77c30.28,1.73,31.69,49.72,12.91,68.55-11.08,11.11-22.54,10.76-32.66,6.17-6.79-3.08-12.52-10.16-14.4-26.67C541.65,608.25,553.15,583.31,578.6,584.77Z"/><path class="cls-10" d="M469.15,459.29a18.86,18.86,0,0,0-7.52-3.51,15,15,0,0,0-3.3-.26c-7.87.26-9.7,5.89-4.63,11.93l-9.51,14a18.09,18.09,0,0,0,1.5,1.15c1.62,1.12,3.47,2.64,5.34,4a22.5,22.5,0,0,0,3.94,2.37c6.6,2.92,13.33-.66,11.57-9.12-.79-3.79-3.46-5.66-6.37-7.44l.58-.85C463.18,468,466.47,463.2,469.15,459.29Zm43-74.24,1.3-.44a4.28,4.28,0,0,1,5.62,3.69c1.07,12.18,1.94,31.74,2,33.28.21,4.65.9,9.45-.49,13.62-2.41,7.2-9.84,16.4-14.07,22.8-5.79,8.75-11.23,16.72-16.78,25.61-4,6.43-20.58,30.25-27.71,40.46a7,7,0,0,1-8.62,2.4l-1.26-.57a179.39,179.39,0,0,1-24.18-13c-2.9-1.93-5.58-3.84-8-5.63-3.69-2.71-6.76-5.17-9-7.05a7,7,0,0,1-1.68-8.83c3.2-5.79,8.28-15,10.14-18.22l1.11-1.94c9.12-15.84,34.19-58.21,40.87-65.18,3.8-4,8.16-5.3,13.37-7.44C482,395.65,501.49,388.66,512.19,385.05Zm-3.86,10a6.36,6.36,0,0,0-8.11,1.66A7.44,7.44,0,0,0,508,408.83C516.28,406.2,513.45,397.7,508.33,395.05Z"/><path class="cls-9" d="M517.14,362.81c-.41,7.2-2.4,14.91-4.95,22.24-10.7,3.61-30.16,10.6-37.4,13.58-5.21,2.14-9.57,3.46-13.37,7.44-6.68,7-31.75,49.34-40.87,65.18.54-23.27,1.08-42.32,1.47-49.38.85-15.55-2.36-38.94,10.85-49.23,7.69-6,31.12-9.82,62.73-9.65C503,363,510.21,363,517.14,362.81Z"/><path class="cls-9" d="M508.33,395.05c5.12,2.65,7.95,11.15-.35,13.78a7.44,7.44,0,0,1-7.76-12.12A6.36,6.36,0,0,1,508.33,395.05Z"/><path class="cls-9" d="M468.48,724.71a2.46,2.46,0,0,1,2.91,3.48c-7.24,14.11-16.15,35.45-21.17,44.2-2.4,4.18-5.4,10.12-8.37,16.27h0a31,31,0,0,1-13.77-8.44c-6-6.49-8.54-12.55-9.55-21.92C430.3,745.54,453.15,729.45,468.48,724.71Z"/><path class="cls-10" d="M466.54,479.82c1.76,8.46-5,12-11.57,9.12a22.5,22.5,0,0,1-3.94-2.37c3.12-5,6.69-10.57,9.14-14.19C463.08,474.16,465.75,476,466.54,479.82Z"/><path class="cls-10" d="M461.63,455.78a18.86,18.86,0,0,1,7.52,3.51c-2.68,3.91-6,8.71-8.4,12.24l-.58.85a25.67,25.67,0,0,1-6.15-4.55c-.11-.13-.22-.25-.32-.38Z"/><path class="cls-10" d="M461.63,455.78l-7.93,11.67c-5.07-6-3.24-11.67,4.63-11.93A15,15,0,0,1,461.63,455.78Z"/><path class="cls-10" d="M454,467.83a25.67,25.67,0,0,0,6.15,4.55c-2.45,3.62-6,9.22-9.14,14.19-1.87-1.33-3.72-2.85-5.34-4a18.09,18.09,0,0,1-1.5-1.15l9.51-14C453.8,467.58,453.91,467.7,454,467.83Z"/><path d="M452.19,525.9c-4.58,4.19-8.4,2.82-32.52-12.65,0-1.88.07-3.77.11-5.65l.23-.31c2.42,1.79,5.1,3.7,8,5.63A179.39,179.39,0,0,0,452.19,525.9Z"/><path class="cls-11" d="M657.41,771.64a16.53,16.53,0,0,1-3.62,5.79c-8.39,8.24-19.47,12.1-34.54,13.85-17.11,2-34.07,1.7-51.21,2.37l-1.82.07c-21.49.91-42.47-.24-64-.36-30-.17-48.34-.75-60.41-4.69a31,31,0,0,1-13.77-8.44c-6-6.49-8.54-12.55-9.55-21.92-1.23-11.41-.16-27.72-.2-55.67,0-1.31,0-2.65,0-4-.17-32.8,1-64,.23-96.88-.22-9.44.34-48.74,1.12-88.49,0-1.88.07-3.77.11-5.65"/><path class="cls-11" d="M420.55,471.25c.54-23.27,1.08-42.32,1.47-49.38.85-15.55-2.36-38.94,10.85-49.23,7.69-6,31.12-9.82,62.73-9.65,7.4,0,14.61,0,21.54-.18,22.7-.48,42.33-1.67,55.13-1.59,16.71.09,35.75.07,49.15,1.45,8.72.89,18.13,3.1,23.43,11.35,6.68,10.42,8.2,27.56,8.48,39.84.26,11.59,1.61,22.88,1.53,34.38-.21,30.93,2.44,61.79,2.6,92.72.18,35.42,3.07,146.12,3.57,170.8"/><path class="cls-11" d="M512.19,385.05l1.3-.44a4.28,4.28,0,0,1,5.62,3.69c1.07,12.18,1.94,31.74,2,33.28.21,4.65.9,9.45-.49,13.62-2.41,7.2-9.84,16.4-14.07,22.8-5.79,8.75-11.23,16.72-16.78,25.61-4,6.43-20.58,30.25-27.71,40.46a7,7,0,0,1-8.62,2.4l-1.26-.57a179.39,179.39,0,0,1-24.18-13c-2.9-1.93-5.58-3.84-8-5.63-3.69-2.71-6.76-5.17-9-7.05a7,7,0,0,1-1.68-8.83c3.2-5.79,8.28-15,10.14-18.22l1.11-1.94c9.12-15.84,34.19-58.21,40.87-65.18,3.8-4,8.16-5.3,13.37-7.44C482,395.65,501.49,388.66,512.19,385.05Z"/><path class="cls-11" d="M452.19,525.9c-4.58,4.19-8.4,2.82-32.52-12.65h0"/><path class="cls-11" d="M475.39,465.37a36.64,36.64,0,0,0-6.24-6.08,18.86,18.86,0,0,0-7.52-3.51,15,15,0,0,0-3.3-.26c-7.87.26-9.7,5.89-4.63,11.93.1.13.21.25.32.38a25.67,25.67,0,0,0,6.15,4.55c2.91,1.78,5.58,3.65,6.37,7.44,1.76,8.46-5,12-11.57,9.12a22.5,22.5,0,0,1-3.94-2.37c-1.87-1.33-3.72-2.85-5.34-4a18.09,18.09,0,0,1-1.5-1.15c-2.22-1.85-3.94-4-3.66-4.44"/><polyline class="cls-11" points="437.34 491.53 444.19 481.45 453.7 467.45 461.63 455.78 467.03 447.84"/><path class="cls-11" d="M444.46,497.12s3-4.85,6.57-10.55c3.12-5,6.69-10.57,9.14-14.19l.58-.85c2.43-3.53,5.72-8.33,8.4-12.24l4.76-7"/><path class="cls-11" d="M508,408.83a7.44,7.44,0,0,1-7.76-12.12,6.36,6.36,0,0,1,8.11-1.66C513.45,397.7,516.28,406.2,508,408.83Z"/><path class="cls-11" d="M505.53,401.49c.92-2,1.87-4.2,2.8-6.44,1.34-3.19,2.66-6.55,3.86-10,2.55-7.33,4.54-15,4.95-22.24.07-1.2.09-2.39.07-3.56"/><path class="cls-11" d="M748.08,769.21c-17.89,9.14-64.37,11.12-90.67,2.43-1.18-.39-2.33-.8-3.43-1.24-25.49-10.08-38.69-19.06-53.35-30.47a9.18,9.18,0,0,0-14,3.4A391.49,391.49,0,0,0,568,793.64"/><path class="cls-11" d="M418.44,702.64a181.25,181.25,0,0,1,30.75-19.43c22.72-11.25,39-15.65,69.05-19.49,25.79-3.29,64.45-.75,83.39,7.6,17.14,7.55,37.73,26.23,57.11,39,.74.49,1.5,1,2.29,1.45,13.64,8.39,33.11,15.47,48.51,17.74a131.82,131.82,0,0,0,40.93-.94c14.38-2.72,33.12-1.59,39.79,12.77a43.89,43.89,0,0,1,1.77,4.4,48,48,0,0,1,2.27,9.89,41.54,41.54,0,0,1,.29,4.15,33.5,33.5,0,0,1-1.17,10.06c-2.39,8.41-8.59,14.72-20.12,14.83a30.35,30.35,0,0,1-16-4.39,22,22,0,0,1-5.89-5.21,15.55,15.55,0,0,1-2.87-6,14.1,14.1,0,0,1-.16-5.84,21.24,21.24,0,0,1,4.6-9.5c4.21,6.24,12.56,14.94,18.34,9.22a13.47,13.47,0,0,0,2.8-4.53c1.75-4.3.21-9.44-2.43-13.62"/><path class="cls-11" d="M792,745.73a16,16,0,0,1-.92,6.66,16.3,16.3,0,0,1-3.64,5.8,17,17,0,0,1-14.93,5"/><path class="cls-11" d="M748.75,763.33c3.38,9.6,14.48,11.62,21,11.21,8.61-.54,16-2.79,21.58-9.68a30.63,30.63,0,0,0,3.31-5.09l0,0"/><path class="cls-11" d="M764.34,737.5a21,21,0,0,1,7.31,7.32h0a29.6,29.6,0,0,1,19.44,7.57,36.17,36.17,0,0,1,3.2,3.23c12.91,14.74,17.19,41.85,22.44,63.91"/><path class="cls-11" d="M802.57,820.47c-1.74-14.21-2.92-28.79-6.73-43.13a74.93,74.93,0,0,0-2.42-7.51c-.61-1.58-1.32-3.26-2.14-5a54.08,54.08,0,0,0-3.82-6.67,35.1,35.1,0,0,0-15.8-13.36h0"/><path class="cls-11" d="M839.74,513c5.37,5.73,11.4,11.83,17,17,10.22-9.52,22.62-26.13,31.92-36.49"/><path class="cls-11" d="M828.39,544.09c-9.63-9-14.69-22.55-11.26-37.87,5.68-25.38,33-47.84,62.81-39.07,28.42,8.36,38.56,38,28.85,61.72C896.22,559.65,854.72,568.83,828.39,544.09Z"/><line class="cls-11" x1="852.29" y1="589.84" x2="850.18" y2="610.86"/><line class="cls-11" x1="791.32" y1="562.51" x2="775.55" y2="570.92"/><line class="cls-11" x1="763.99" y1="503.65" x2="781.86" y2="509.96"/><line class="cls-11" x1="792.16" y1="449.13" x2="804.15" y2="459.37"/><line class="cls-11" x1="869.1" y1="435.33" x2="870.16" y2="418.51"/><line class="cls-11" x1="933.22" y1="468.96" x2="947.94" y2="460.55"/><line class="cls-11" x1="942.68" y1="520.47" x2="961.6" y2="523.62"/><line class="cls-11" x1="922.71" y1="579.33" x2="933.22" y2="590.89"/><path class="cls-11" d="M418.52,758.32h0c11.77-12.77,34.62-28.86,50-33.6a2.46,2.46,0,0,1,2.91,3.48c-7.24,14.11-16.15,35.45-21.17,44.2-2.4,4.18-5.4,10.12-8.37,16.27"/><path class="cls-11" d="M558.85,659.49c-6.79-3.08-12.52-10.16-14.4-26.67-2.8-24.57,8.7-49.51,34.15-48.05,30.28,1.73,31.69,49.72,12.91,68.55C580.43,664.43,569,664.08,558.85,659.49Z"/><path class="cls-11" d="M757.27,780.27c-1.49,7.45-2.29,27.7-1.08,44.13"/><path class="cls-11" d="M739.48,931.27q-6.13.43-12.3.81c-8.78.53-30.79.09-30.79.09-.26-20.61.46-42.07,1.07-62.59.33-10.86.67-34.17.67-40.79,5.19,0,16.55-.7,30.12-1.67,5.34-.38,11-.81,16.81-1.26l11.18-.88c18.75-1.52,36.93-3.14,46.37-4.11l2.19-.23c3.22-.35,7.36-.72,11.94-1.08,18.89-1.49,45.26-2.93,45.26-2.93s5.33,31.93,6.82,44.1c1.68,13.68,6.73,52.87,5.82,58.69-28.7,2.62-56.91,7.25-85.89,8.66C772.23,928.89,755.91,930.15,739.48,931.27Z"/><path class="cls-11" d="M569.1,629.53c2.79,7.7,15.38,7.34,20.89,5.73"/><path class="cls-11" d="M745,825.33c-1.22-19.25-.46-32.49,4.85-49.59"/><path class="cls-11" d="M728.35,828.45c1.32,21.35,11.07,101.9,11.07,101.9"/><path class="cls-11" d="M703.83,925.06c2.47-5,8.56-11.14,13.46-14.2,4.42,3.68,13.09,12.72,13.09,12.72"/><line class="cls-11" x1="576.7" y1="619.63" x2="577.31" y2="612.41"/><path class="cls-11" d="M1026.76,701.72c5.18.48,10,1,14.24,1.51,1.48.17,3,.33,4.45.48q6.21.66,12.52,1.25c20.7,2,41.87,3.54,62,6,15.88,2,31.29,4.36,46.88,6.24"/><path class="cls-11" d="M1057.44,873.29c-4.58-.55-9.15-1.1-13.65-1.66-28.41-3.47-54-6.8-62.64-8-4.6-.66-14.17-1.82-23-2.87a18.79,18.79,0,0,1-16.43-21.17c1.23-9.1,2.74-20,4.15-29.1,1.5-9.75,3.65-23.79,5.74-37.17,1.55-9.88,3.06-19.41,4.26-26.59.55-3.28,1.2-6.9,2.07-10.62,2.72-11.63,7.53-24.14,17.57-29.61a39.75,39.75,0,0,1,8.7-3.36"/><path class="cls-11" d="M1211.85,722.41l8.68,1.29,7.41,1.13a15.2,15.2,0,0,1,12.79,16.82c-1,8.09-2.13,17.81-3,24.27-2.48,19.21-5.39,38.24-8.08,57.33-2.54,18-6.12,55.59-21.38,61.9-6.67,2.75-13.31,2.59-20,1.87-2.4-.25-4.8-.58-7.22-.87l-3.16-.38c-14.44-1.71-29.3-3.25-43.73-4.26-1.86-.13-4-.3-6.24-.49l-7.53-.7c-6.65-.64-14.37-1.45-22.72-2.36-12.52-1.39-26.45-3-40.25-4.66"/><path class="cls-11" d="M963.28,836.73l-5.57-.85,3.76-25.12,16.58,2c9.88,1.18,18.92,2.09,28.38,3.1l4.7.5,5.27.59h.05l.41,0c12.16,1.39,40.57,5.37,40.57,5.37.11,2.9-.64,8.88-1.41,14.78-.6,4.57-1.22,9.1-1.46,12.1-11.77-1.9-19.14-2.38-27.81-3.47-7.9-1-26.46-3.08-34.38-4.44-3.55-.6-8.2-1.35-12.93-2.1C973.53,838.3,967.49,837.37,963.28,836.73Z"/><path class="cls-11" d="M968.57,822.26c-.58,3.24-4.19,9.29-5.29,14.47-.66,3-.45,5.77,1.74,7.47,3,2.29,8.24-.32,14.42-5,8.6-6.46,18.91-16.85,27-23.39,3.87-3.12,7.22-5.36,9.63-5.88a59.42,59.42,0,0,1-4.93,6.38c-3.93,4.56-8.19,8.95-10.64,14.22,6.41-2.54,10.78-9.21,16-13.62.29-.27.59-.51.89-.75-.15.26-.31.53-.48.8-3.2,5.39-7,11.12-8.69,17.08,5.2-.27,9.43-5,14.34-6.59,1.31,5.91-.42,7.18,5.8,7.88,1.77.19,3.93-2.3,5.69-1.85,2.5.63,2.49,2.67,4.46,3.82,6.9,4,5.81-.1,12.78-.79a13.54,13.54,0,0,1,4.78.6,42.58,42.58,0,0,0,6.83,1.7"/><path class="cls-11" d="M1108.57,827.25a35.24,35.24,0,0,0-5.19.26,31.53,31.53,0,0,0-5.31,1.16c-3.85,1.2-7.71,3.2-9.66,6.05-7.7,11.23,3,18.8,13.53,16.67a15.79,15.79,0,0,0,4.64-1.84c6.55-3.74,12.28-11.86,4.82-17.33a4.92,4.92,0,0,0-2.87-1.12c-5.21,0-6.4,12.87-2,18.45a7.21,7.21,0,0,0,1.7,1.57c7.6,4.94,19,2,19.58-8.25C1128.44,831.57,1118.17,827.47,1108.57,827.25Z"/><path class="cls-11" d="M1220.53,723.7c12.92,6.88,9.61,18.56,6.58,40.51l-.24,1.75c-1.28,9.63-3.25,23.85-5.4,38.52-3,20.5-6.32,41.9-8.6,52.91-3.91,18.9-12.49,26.68-24.56,29.63"/><path class="cls-11" d="M1169.78,757.7h0c-37.85-4.2-82.15-8.94-98.16-10.17-28-2.16-56.12-4.72-83.94-8-12.25-1.42-22.23-2.61-29.74-3.5"/><path class="cls-11" d="M1226.69,764.15l-12.1-1.41"/><path class="cls-11" d="M1211,802.8c4.59.6,9.5,1.54,9.5,1.54"/><path class="cls-11" d="M951.6,773.28c17.86,1.87,51.79,5.43,61.83,6.44,36.73,3.7,74,8.21,110.72,13,7.75,1,25.15,2.93,43.29,5"/><path class="cls-11" d="M1097.71,878h0q-.8,3.54-1.6,7.08-2.89,12.76-6,25.48c-4.3,17.8-9.82,35.54-14.39,53.27-1.76,6.84-4.37,20.7-9.29,32.1a9,9,0,0,1-8.66,5.44c-7.31-.32-18-3.57-21.93-4.55a100.28,100.28,0,0,1-32.11-14.67,4.2,4.2,0,0,1,1.22-7.42c6.38-2,13.63-3.61,13.63-3.61s8.28-30.13,10.92-40.54c4.94-19.42,10.13-39.25,14.26-58.9"/><path class="cls-11" d="M1177.89,886.1c-.11,2.56-.21,5.12-.32,7.69-.77,19.49-1.4,39.1-2.4,58.59-.79,15.41-.13,31.2-1.36,46.28a8,8,0,0,1-7.75,7.39c-9.78.34-25.37.87-34.66.64-7.49-.19-14.69-.48-21.71-1.06a3.61,3.61,0,0,1-2.42-6,76.36,76.36,0,0,0,7.66-10.51c1.58-14.76,2.67-33.91,3.34-48.92.88-20,1.65-40,2.16-59.9"/><path class="cls-11" d="M1122.26,671.18c-26.68-14.64-9.59-70,16.5-75.66,36.14-7.84,31.78,37.35,22.53,57.67-6.52,14.35-21.39,26.36-37.67,18.69C1123.16,671.66,1122.7,671.43,1122.26,671.18Z"/><path class="cls-11" d="M1118.92,641.62c6.36,4.3,13.14,2.67,18.93-1.8"/><line class="cls-11" x1="1122.52" y1="627.2" x2="1125.23" y2="620.89"/><line class="cls-11" x1="1133.89" y1="628.1" x2="1136.6" y2="621.79"/><path class="cls-11" d="M1165.36,841.64a76.91,76.91,0,0,0-6.25,10.27c-5.41,11.27-.19,14.6,15.27,14.07,26.51-.9,31.69-31,35.3-54.07.45-2.9.9-5.95,1.32-9.11a395.61,395.61,0,0,0,3.46-40.06,206.83,206.83,0,0,0-1.06-30.43c-.41-3.41-1-6.71-1.66-9.88-4.26-19.56-14.09-34.41-32.86-41.78-15.14-5.95-56.6-9.41-89,4.09-17.87,7.45-26.53,13.44-31.9,20.07"/><path class="cls-11" d="M1158.15,851.55c-5.38-7.38,1.5-19.15,3.68-26.61a218.71,218.71,0,0,0,5.61-27.25,208,208,0,0,0,2.33-27.4c0-3.9,0-8.18,0-12.59-.13-15.71-.82-33.05-2.61-40.52a8.89,8.89,0,0,0-1.27-3.28"/><path class="cls-11" d="M1164.46,864.17c4.76-3.1,10.28-10.17,12.62-15.32"/><path class="cls-11" d="M1176.66,865.77a40.24,40.24,0,0,0,12.57-16.52"/><path class="cls-11" d="M1045.59,702.38c-.45-6.69-11.24-21.49-18.45-20.62s-5.05,6.66-2.69,11.92c1.15,2.58,2.32,5,2.38,6.76a8.29,8.29,0,0,1-.07,1.28c-.68,6.08-6.89,17-11,20.68-4.86,4.31-16.77,5.12-22.95,4.51-14.32-1.4-15.06-14.49-8.64-23.81h0a22.69,22.69,0,0,1,7.42-6.89c6.78-3.84,23-3.13,31.1-2.64"/><path class="cls-11" d="M1001.79,726.13c-.49-8,4.86-21.37,11.19-24.61"/><path class="cls-11" d="M986.13,723.89c2.25-7.28,6.09-17,11.93-21.62"/><line class="cls-11" x1="589.38" y1="621.53" x2="589.99" y2="614.31"/><path class="cls-11" d="M717.29,910.86s-2.29-46.55-2.62-55.69"/><polyline class="cls-11" points="1127.89 881 1127.96 881.02 1177.57 893.79 1177.58 893.79"/><polyline class="cls-11" points="1057.44 873.29 1057.46 873.3 1096.11 885.04 1096.12 885.04"/></g></svg>