<svg xmlns="http://www.w3.org/2000/svg" viewBox="0 0 1600 1200"><defs><style>.cls-1,.cls-3{fill:#ecebe6;}.cls-1,.cls-10{stroke:#000;stroke-linecap:round;stroke-linejoin:round;stroke-width:3px;}.cls-2{fill:#fff;}.cls-4{fill:#ebeae6;}.cls-5{fill:#f4424f;}.cls-6{fill:#cf2f42;}.cls-7{fill:#ffdf8c;}.cls-8{fill:#edeee1;}.cls-9{fill:#fee502;}.cls-10{fill:none;}</style></defs><g id="building"><path class="cls-1" d="M264.07,669.59c-27.94,65.1-59.95,164.29-87.4,295.08H1435.93q0-4.45,0-8.84c0-82.64-24.83-243.28-24.83-243.28s-54.34,118.89-50.66,127.35c-21.3-49-35.1-106.17-49.63-158.33C1293.5,619.57,1252,492.7,1252,492.7s-51.75,83.43-54.53,104.38c-15-83.31-33.68-167.52-50.34-251.41-10.15-51.16-55.41-230.53-55.41-230.53s-54.26,83.41-76.62,122.35c-25.62,44.6-63.48,80.92-74.45,135.54C915,343,900.14,307.93,884.79,270.37c-20.15,14.08-39,54-53,76.69C806,388.87,779.47,431.63,762.49,477.3c-4.24-31.67-77.91-296.07-77.91-296.07s-63,117.53-99,173.92c-28.27,44.25-84.69,154-89.38,160.2C491,465.72,446,281.5,446,281.5s-36.81,109-44.58,136.55c-12.93,45.81-31.25,87.89-47,132.66-7.72,21.86-22.36,52.85-21.73,77-2.11-25.78-15.77-76.85-15.77-76.85S280.84,630.51,264.07,669.59Z"/><path class="cls-2" d="M1271.64,777.6c.1-.47.19-.93.25-1.41,2.13-8.44,13.15-2.21,18.18.38l.17-.14c19,21.57,38.57,57.49,51.71,76.79,19.89,29.19,39.87,58.36,57.79,88.82,7,11.89,24.31,39.76,5.76,49.46a42,42,0,0,1-12,4c-17.11,3.12-76.08,1.16-87.44.13-23.88-2.2-37.94-6.73-54.12-24.56-15.18-16.75-32.87-52-45.09-71.44,10.67-18.8,19.82-37.81,31.71-56.24l.81.52c1.69,7.86,1,16.28,3.16,24,1.18,4.34,2.45,7.85,5.72,10.92,10.76,10.05,21.06-2.27,21.14-12,0,2.39,7.65,1.42,8.44,1.26,3.43-.73,6.36-1.56,8-5,4-8-4-15.57-9.54-19.85-1.82-1.39-27-16.06-25.51-18.28l-.55-.31c5.93-10.58,10.91-21.57,16.26-32.71A62.05,62.05,0,0,0,1271.64,777.6Zm56.28,172.63a17.67,17.67,0,0,0-2.16-2.37c-1.12-2.13-1.62-5-2.2-7-1.88-6.44-2.24-14.08-2.21-20.81.05-11.48-2.32-28-15.85-30.73-5.66-1.16-10.75,2.46-12.62,7.75-.92,2.63-1.24,6.93,0,9.46-6.58-5.91-20.72-2.27-20.71,7.38a10.46,10.46,0,0,0,6.28,9.42c8,3.61,17.06,4.35,25,8.91a109.9,109.9,0,0,1,15.69,10.3c2,1.66,4.54,3.37,6.62,5.3A5.37,5.37,0,0,0,1327.92,950.23Zm-34.26-69.07a9,9,0,0,0-1.77.81c-5.05,1.56-12.32-1.81-15.49-5.2-1.5-1.61-4.19-4.78-5.47-6.46-.14-.31-.3-.63-.45-.94-.51-.42-.23,0,.45.94,3.76,8.23,2,17.18-3.37,24.5,4.71-1,10.07-1.67,14.82.78,4.34,2.25,6.84,6.79,9.94,10.25-3.63-6.31-8.09-19.41-.43-23.87A6.32,6.32,0,0,0,1293.66,881.16Z"/><path class="cls-3" d="M1325.76,947.86a17.67,17.67,0,0,1,2.16,2.37A5.37,5.37,0,0,1,1325.76,947.86Z"/><path class="cls-2" d="M1292.9,906.55c-1.26-2.53-.94-6.83,0-9.46,1.87-5.29,7-8.91,12.62-7.75,13.53,2.76,15.9,19.25,15.85,30.73,0,6.73.33,14.37,2.21,20.81.58,2,1.08,4.85,2.2,7-2.08-1.93-4.61-3.64-6.62-5.3a109.9,109.9,0,0,0-15.69-10.3c-7.92-4.56-17-5.3-25-8.91a10.46,10.46,0,0,1-6.28-9.42C1272.18,904.28,1286.32,900.64,1292.9,906.55Zm0,0a3.75,3.75,0,0,0,1.46,1.63A8.46,8.46,0,0,0,1292.9,906.56Z"/><path class="cls-3" d="M1294.36,908.19a3.75,3.75,0,0,1-1.46-1.63A8.46,8.46,0,0,1,1294.36,908.19Z"/><path class="cls-3" d="M1291.89,882a9,9,0,0,1,1.77-.81A6.32,6.32,0,0,1,1291.89,882Z"/><path d="M1290.24,776.43l-.17.14c-5-2.59-16-8.82-18.18-.38,1.1-7,0-13.62-6.34-17.36C1273.26,759.93,1281.7,766.73,1290.24,776.43Z"/><path class="cls-2" d="M1276.4,876.77c3.17,3.39,10.44,6.76,15.49,5.2-7.66,4.46-3.2,17.56.43,23.87-3.1-3.46-5.6-8-9.94-10.25-4.75-2.45-10.11-1.82-14.82-.78,5.38-7.32,7.13-16.27,3.37-24.5C1272.21,872,1274.9,875.16,1276.4,876.77Z"/><path class="cls-2" d="M1269.44,866.83c-.08,9.71-10.38,22-21.14,12-3.27-3.07-4.54-6.58-5.72-10.92-2.12-7.75-1.47-16.17-3.16-24l-.81-.52c1.17-1.82,2.38-3.63,3.6-5.44,3-4.31,5.62-8.72,8.12-13.21l.55.31c-1.47,2.22,23.69,16.89,25.51,18.28,5.58,4.28,13.52,11.83,9.54,19.85-1.69,3.4-4.62,4.23-8,5C1277.09,868.25,1269.44,869.22,1269.44,866.83Z"/><path class="cls-2" d="M1265.55,758.83c6.31,3.74,7.44,10.41,6.34,17.36a9.59,9.59,0,0,0-.25,1.41,62.05,62.05,0,0,1-5.05,14.38c-5.35,11.14-10.33,22.13-16.26,32.71-2.5,4.49-5.17,8.9-8.12,13.21-1.22,1.81-2.43,3.62-3.6,5.44-11.89,18.43-21,37.44-31.71,56.24-2.74,4.85-5.6,9.69-8.63,14.5C1186,933.48,1177,954.27,1161.8,971c-12.12,13.37-23.07,19.27-37.87,22.31l-.22-1.13c.47-.22,1-.46,1.41-.7,11.93-6.23,9-20,3.59-32.17l2.06-.19a53.53,53.53,0,0,0,6.81-5.43c8.58-8,14.82-18.61,20.6-29.45,5.35-10,10.31-20.25,16.33-28.86.72-1,1.44-2.07,2.14-3.11,7.16-10.39,14-21.08,21.25-31.52q1.72-2.46,3.48-4.89c2.94-4.09,9.72-13,16.25-23.11,10-15.39,19.4-33.48,13.78-41.13-6-8.15-28.72-5.51-37.2-5.13-2.34.11-4.9.06-7.58-.06-10.33-.46-22.55-2-31.93.44a23.71,23.71,0,0,0-6.65,2.72c-6.54,4.07-12.15,11.72-17,19.32-2.94,4.55-5.62,9.08-8.08,12.81-3,4.58-5.72,8.65-8.17,12.4-7.06,10.76-12.29,18.86-18.57,28.61-3.73,5.78-7.83,12.14-12.91,20l-1.16.78q-7.75-11.57-15.61-23l.75-.5c19.06-28,40.58-63.61,63.25-89.16,8.23-9.28,19.7-13.76,32.42-15.78a159.14,159.14,0,0,1,27.79-1.45c14.35.29,28.52,1.52,40.08.85C1240.61,753.86,1257.08,753.79,1265.55,758.83Z"/><path class="cls-4" d="M1271.89,776.19c-.06.48-.15.94-.25,1.41A9.59,9.59,0,0,1,1271.89,776.19Z"/><path class="cls-3" d="M1270.48,869.37c.15.31.31.63.45.94C1270.25,869.41,1270,869,1270.48,869.37Z"/><path class="cls-2" d="M1257.43,697.66c7,11.9,24.29,39.77,5.74,49.47a41.53,41.53,0,0,1-11.93,3.94c-10.9,2-38.75,1.93-60.49,1.35-6.43-.18-12.34-.4-17.1-.62-4.43-.2-7.88-.42-9.87-.6-23.88-2.18-37.94-6.72-54.11-24.56-15.18-16.74-31.93-51.69-44.15-71.1,5.22-9.18,10.07-18.41,15-27.6l1.6.87s10,2.65,21.68,5.93c-.54,1.71-1,3.43-1.47,5.14-1.42,5.44-6.64,21-6.64,21s14.91,4.31,24.43,6.8c2.66.69,5.43,1.46,8.27,2.3-3.24,13.06-6.1,24.91-6.1,24.91,3.49,2.29,35.3,11.84,35.3,11.84.34-7.3,1.23-16.22,2.45-25.64,2.21.91,4.35,1.84,6.4,2.77,7.52,3.4,14.81,8.36,22.15,11.52l.49-.49c0-7.93,2.37-28.37,2.37-28.37s-13.29-5.31-27.49-11c1.43-8.2,3-16,4.49-22.59,0,0-12.58-5-16.26-5.92-4.1-1-8.12-2.16-12.11-3.43,2.61-11.43,5.14-23.33,5.14-23.33s-10.55-2.35-14.2-3c-2.56-.41-7.82-1.37-13.12-2.48a91.42,91.42,0,0,0,3.66-18.71l-9.07-2c4.5-8.63,8.56-17.48,12.85-26.42a61.73,61.73,0,0,0,5.07-14.45c3.64-5.7,12.46-.81,16.9,1.24l.25-.2c19.44,23.56,34.87,49.48,52,74.65C1219.52,638.05,1239.5,667.2,1257.43,697.66Zm-9.24,31.74c3.2-3.9-4.5-9.24-9.35-12.45a13,13,0,0,0-.89-6.13c-3.34-7.19-8.45-.92-2.16,4,.62.5,1.73,1.21,3,2.09-.07,1.74-.25,3.5-.24,5.21a10.53,10.53,0,0,0,1.27,5.4C1241.12,729.64,1245.75,732.37,1248.19,729.4Z"/><path class="cls-2" d="M1238.84,717c4.85,3.21,12.55,8.55,9.35,12.45-2.44,3-7.07.24-8.32-1.84a10.53,10.53,0,0,1-1.27-5.4C1238.59,720.45,1238.77,718.69,1238.84,717Z"/><path class="cls-2" d="M1238,710.82a13,13,0,0,1,.89,6.13c-1.32-.88-2.43-1.59-3-2.09C1229.5,709.9,1234.61,703.63,1238,710.82Z"/><path class="cls-5" d="M1231.41,791.64c5.62,7.65-3.81,25.74-13.78,41.13,0,0-22.71-34.82-31-46.31h0c2.68.12,5.24.17,7.58.06C1202.69,786.13,1225.42,783.49,1231.41,791.64Z"/><path class="cls-6" d="M1186.63,786.46c8.29,11.49,31,46.31,31,46.31-6.53,10.09-13.31,19-16.25,23.11q-1.76,2.43-3.48,4.89l-1.07-.24-42-73.11-.12-.53c9.38-2.39,21.6-.9,31.93-.44Z"/><path class="cls-5" d="M1196.83,860.53l1.07.24c-7.28,10.44-14.09,21.13-21.25,31.52l-1.11-.77c-4.91-11.67-20.79-37.29-25.72-49-4.34-10.38-16.69-33.18-16.69-33.18l-2.12-.38c4.89-7.6,10.5-15.25,17-19.32a23.71,23.71,0,0,1,6.65-2.72l.12.53Z"/><path class="cls-2" d="M1191.5,666.49s-2.33,20.44-2.37,28.37l-.49.49c-7.34-3.16-14.63-8.12-22.15-11.52-2-.93-4.19-1.86-6.4-2.77,1.09-8.41,2.44-17.21,3.92-25.58C1178.21,661.18,1191.5,666.49,1191.5,666.49Z"/><path class="cls-6" d="M1176.65,892.29c-.7,1-1.42,2.08-2.14,3.11-6,8.61-11,18.84-16.33,28.86-5.09-12.61-17.68-39.66-24.55-51.4-5.72-9.82-18.87-38.72-18.87-38.72,2.45-3.75,5.14-7.82,8.17-12.4,2.46-3.73,5.14-8.26,8.08-12.81l2.12.38s12.35,22.8,16.69,33.18c4.93,11.74,20.81,37.36,25.72,49Z"/><path class="cls-2" d="M1168.5,632.89c-1.51,6.61-3.06,14.39-4.49,22.59-9.19-3.67-18.75-7.51-25.34-10.16-.94-.39-2.17-.83-3.63-1.33.33-1.2.63-2.31.9-3.28,1.09-3.9,2.66-10.45,4.19-17.17,4,1.27,8,2.46,12.11,3.43C1155.92,627.85,1168.5,632.89,1168.5,632.89Z"/><path class="cls-2" d="M1164,655.48c-1.48,8.37-2.83,17.17-3.92,25.58A325.06,325.06,0,0,0,1128.44,670c2.31-9.34,4.82-19.29,6.6-26,1.46.5,2.69.94,3.63,1.33C1145.26,648,1154.82,651.81,1164,655.48Z"/><path class="cls-2" d="M1160.09,681.06c-1.22,9.42-2.11,18.34-2.45,25.64,0,0-31.81-9.55-35.3-11.84,0,0,2.86-11.85,6.1-24.91A325.06,325.06,0,0,1,1160.09,681.06Z"/><path class="cls-5" d="M1158.18,924.26c-5.78,10.84-12,21.43-20.6,29.45h0s-29.22-61.83-41.38-91c6.28-9.75,11.51-17.85,18.57-28.61,0,0,13.15,28.9,18.87,38.72C1140.5,884.6,1153.09,911.65,1158.18,924.26Z"/><path d="M1147.61,534.2l-.25.2c-4.44-2-13.26-6.94-16.9-1.24,1.32-6.72.74-13.34-4.36-17.5A43.69,43.69,0,0,1,1141,526.43Q1144.38,530.27,1147.61,534.2Z"/><path class="cls-2" d="M1044,508.79l-35.34,0c-8.9-1.2-16.52-5-20.38-15.91-10.56-30-7.77-71.67-9.86-102.05-1.68-24.55-3.89-86.05-4.34-93.22l0-.38c9.55-.86,17.88-1.63,22-2.07,11.22-1.18,27.43-4.69,39.66-4.28l0,1.39c-1,3.28-.59,7.83,1,12.14,2,5.43,5.72,10.49,10.85,12.25-5.46,1.23-10.42,4.45-14.74,8.93-11.6,12-18.61,33.18-18.56,49.38a37.49,37.49,0,0,0,2,12.9,35,35,0,0,0,5.15,8.77,68,68,0,0,0,18.06,15.87,38.83,38.83,0,0,0,12.37,5.09c-7.35,1.63-9.72,9.48-9.79,18.48-.08,10,2.72,21.45,4.73,27.18,2.31-3,3.78-7.27,4.65-11.19,2.88,2.77,8.24,12.11,8.24,12.11l5.13-15.37,7.45,10.57c.8-8.06,2.46-16.23,2.91-23.19.69-10.29-1.24-17.92-12.43-18.53a101.73,101.73,0,0,0,10.26-4.39c8.91-4.55,16.72-11.38,20.4-25.59,1.88-7.26,2.35-14.8,2.36-23.07,0-6.21-.25-12.85-.36-20.1-1-8.64-7.66-17.82-15.87-23.48-5.43-3.74-11.55-5.95-17.22-5.47,3.58-2.84,5.5-7.28,6.4-12.39,1.44-8.19.26-18.1-1-26l-7,10.32s-6.25-9.71-6.64-10.7l0-.05c2.65-5.37,9-12.71,12.14-16.88,4-5.33,8.88-10.63,4.1-16.74-2.72-3.49-12.43-7.07-16.76-7.93-13.19-2.6-20.33,11.93-32.4,14.15-13.15,2.4-30.6,3.1-48.52,3.13q.09-6.22.47-12.43c1.65-25.61,10.26-29.27,33.09-30.25,28.42-1.22,56.45-4.54,85-1.24,9.85,1.14,22.29,1.08,31.44,5.16,12.14,5.39,12,19.65,13.28,33.32,4.06,43.82,5.25,88,6.86,131.92.8,21.49,1.93,47.89,3.13,69.28.86,15.35,3.19,36-6.58,48.47-10.48,13.36-27.37,10.79-41.76,11.35-9.92.4-20.87.66-31.45.82H1066Z"/><path class="cls-2" d="M1145.27,600.21s-2.53,11.9-5.14,23.33c-8.1-2.61-16.06-5.62-24.22-8.06-1.52-.46-3.11-.87-4.72-1.28,2.44-6.45,4.86-12.92,6.76-19.43,5.3,1.11,10.56,2.07,13.12,2.48C1134.72,597.86,1145.27,600.21,1145.27,600.21Z"/><path class="cls-6" d="M1137.57,953.7h0a53.53,53.53,0,0,1-6.81,5.43l-2.06.19a174.75,174.75,0,0,0-9.33-17.29c-11.74-19.95-24.36-39.33-37.26-58.53l1.16-.78c5.08-7.84,9.18-14.2,12.91-20C1108.35,891.87,1137.57,953.7,1137.57,953.7Z"/><path class="cls-2" d="M1115.91,615.48c8.16,2.44,16.12,5.45,24.22,8.06-1.53,6.72-3.1,13.27-4.19,17.17-.27,1-.57,2.08-.9,3.28-7.23-2.46-20-6.14-31.19-9.25,2.08-6.79,4.72-13.64,7.34-20.54C1112.8,614.61,1114.39,615,1115.91,615.48Z"/><path class="cls-2" d="M1130.46,533.16a61.73,61.73,0,0,1-5.07,14.45c-4.29,8.94-8.35,17.79-12.85,26.42-2.94,5.63-6.07,11.16-9.58,16.57-.63,1-1.28,2-2,2.93-3.33,4.9-6.43,9.84-9.4,14.81-3.87,6.49-7.49,13-11,19.6-5,9.19-9.83,18.42-15,27.6-2.7,4.74-5.49,9.47-8.45,14.17-12.22,19.41-21.28,40.19-36.46,56.93-6.94,7.67-13.5,12.87-20.61,16.5l-.16-.12c6.81-8.5,1.5-22.64-4.35-33.86l1.51-.41a65.85,65.85,0,0,0,6-6.65c7.27-9.06,12.81-20,18.36-30.58a190,190,0,0,1,11.91-20.5c4.6-6.57,9-13.29,13.51-20,4.35-6.55,8.74-13.08,13.36-19.49,1.31-1.83,3.4-4.62,5.88-8a281.92,281.92,0,0,0,16.92-25.8c6.94-12.32,11.59-24.48,7.24-30.39s-17.81-6.15-28-5.66c-3.69.17-7,.43-9.21.54a135.65,135.65,0,0,1-13.89-.42c-10.17-.64-21.19-1.32-29.19,1.95a21.32,21.32,0,0,0-3.09,1.57c-7.51,4.67-13.8,14.09-19.2,22.7-2.1,3.38-4.07,6.62-5.92,9.41q-7,10.64-14,21.31-10.26,15.74-20.42,31.55l-1.12.75q-7.5-11.07-15-22.12a4.63,4.63,0,0,1-.31-.46l.74-.5c19.06-28,35-55.91,57.7-81.46,12.85-14.49,33.64-17.28,54.71-17.28,16.19,0,32.55,1.65,45.57.91,9.81-.56,26.28-.64,34.76,4.39a14,14,0,0,1,1.73,1.21h0C1131.2,519.82,1131.78,526.44,1130.46,533.16Z"/><path class="cls-2" d="M1106.27,965.05c2.18,4.63,4.22,9.37,6.63,13.8,2.36-2.57,2.19-10.9,1.79-14.66C1112,964.55,1109.1,964.69,1106.27,965.05ZM1005,773.23l0,0c21.62,25,38.09,52.93,56.55,80l4.93,7.24q7.83,11.5,15.61,23c12.9,19.2,25.52,38.58,37.26,58.53a174.75,174.75,0,0,1,9.33,17.29c5.45,12.18,8.34,25.94-3.59,32.17-.46.24-.94.48-1.41.7a43.45,43.45,0,0,1-10.52,3.25c-17.13,3.12-76.09,1.16-87.45.13-23.89-2.2-38-6.73-54.12-24.56-15.18-16.75-24.24-37.54-36.46-56.94-4.26-6.78-8.19-13.62-12-20.48l-.38-.21c10.27-18.63,19.51-37.38,31.84-55.49,9.88-14.5,16.77-30.06,24.38-45.92,2.64-5.52,5.43-12.75,5.66-19.3C986.7,762.71,1000.9,769.92,1005,773.23Zm-8.38,146.08c.15.59,5.15,19.43,6,24.26s1.65,10.15,3.68,14.63c1.62,3.6,5.88,7.37,9.59,4.4,3.28-2.64,2.41-8,1-12.53,2.75,3.93,7.86,7.07,11.4,6.5,7.13-1.13,3.27-8.81-.16-11.58-4.73-3.82-9.54-8.28-14.47-11.73C1009.46,930.28,997,919.66,996.63,919.31Zm46.66-2.89c7.75-.42,8.49-8.74,2.62-12.91-4-2.8-9.59-7.14-14-9.34-6.11-3.08-18.91-10.41-18.91-10.41s2.89,9,3.64,11.84a2,2,0,0,0,.07.26c1,4,6.65,29.6,14.17,27,3.07-1,3.55-8,2.9-11.76C1035.31,914.43,1040.31,916.58,1043.29,916.42Zm-35-56.89c6.32-2.44,1.86-11.33-.87-14.57-7-8.38-20.71-16-27.52-24.68,3.59,11,5.59,28.11,9.46,37.6.94,2.3,3.62,9.16,7,9s3.1-8.74,1.79-13.68C1000.32,856.92,1004.87,860.84,1008.24,859.53ZM984.76,899c4.63,1.1,6.88-4.39,5.1-8.61-2.2-5.22-10.35-10-14.29-14-2.82-2.87-12.32-10.48-14.6-13.57-.23,1.45,4.9,28.39,8.68,36.53.68,1.49,3.83,6.35,5.92,6,3.19-.57,2.06-10.74,1.44-14C977.68,894.69,981.19,898.16,984.76,899Z"/><path class="cls-2" d="M1135,644c-1.78,6.67-4.29,16.62-6.6,26-2.84-.84-5.61-1.61-8.27-2.3-9.52-2.49-24.43-6.8-24.43-6.8s5.22-15.53,6.64-21c.44-1.71.93-3.43,1.47-5.14C1115,637.85,1127.81,641.53,1135,644Z"/><path class="cls-2" d="M1112.54,574l9.07,2a91.42,91.42,0,0,1-3.66,18.71c-6.23-1.29-12.51-2.81-14.59-3.92l-.4-.25C1106.47,585.19,1109.6,579.66,1112.54,574Z"/><path class="cls-2" d="M1103.36,590.85c2.08,1.11,8.36,2.63,14.59,3.92-1.9,6.51-4.32,13-6.76,19.43-6.67-1.64-13.83-3-19.16-5.61l-.42-.25c3-5,6.07-9.91,9.4-14.81.67-1,1.32-1.95,2-2.93Z"/><path class="cls-2" d="M1114.69,964.19c.4,3.76.57,12.09-1.79,14.66-2.41-4.43-4.45-9.17-6.63-13.8C1109.1,964.69,1112,964.55,1114.69,964.19Z"/><path class="cls-2" d="M1092,608.59c5.33,2.65,12.49,4,19.16,5.61-2.62,6.9-5.26,13.75-7.34,20.54-11.72-3.28-21.68-5.93-21.68-5.93l-1.6-.87c3.55-6.56,7.17-13.11,11-19.6Z"/><path class="cls-2" d="M1095.38,344.48c.11,7.25.36,13.89.36,20.1H1095s-9.92,3.4-13.27,4.81c-5.58,2.36-11.06,4.68-16.63,7.13-14.37,6.3-29.16,12.26-43,19.61l-.63.49a35,35,0,0,1-5.15-8.77,37.49,37.49,0,0,1-2-12.9h1.34c16.29-4.16,29.75-11.24,45.71-16.66A354.15,354.15,0,0,0,1095.38,344.48Z"/><path class="cls-2" d="M1095,364.57h.78c0,8.27-.48,15.81-2.36,23.07-3.68,14.21-11.49,21-20.4,25.59l-.68-1.33c4.89-9.05-6.8-14.44-10.86-6.06.51-3.86-1.11-10-5.35-10.16s-8.38,6.42-8.39,10.17c-.48-2.93-4.6-4.21-7-2.29s-1.36,5.43-.63,7.83l-.65,1.08a68,68,0,0,1-18.06-15.87l.63-.49c13.87-7.35,28.66-13.31,43-19.61,5.57-2.45,11-4.77,16.63-7.13C1085,368,1095,364.57,1095,364.57Z"/><path class="cls-6" d="M1090.22,547.27c4.35,5.91-.3,18.07-7.24,30.39l-2.14-.73-18.55-33.8-.06-1.52C1072.41,541.12,1085.82,541.29,1090.22,547.27Z"/><path class="cls-5" d="M1080.84,576.93l2.14.73a281.92,281.92,0,0,1-16.92,25.8S1045.84,557,1039,544.6l.18-2.87a135.65,135.65,0,0,0,13.89.42c2.25-.11,5.52-.37,9.21-.54l.06,1.52Z"/><path class="cls-2" d="M1095.38,344.48a354.15,354.15,0,0,1-34.1,13.79c-16,5.42-29.42,12.5-45.71,16.66h-1.34c-.05-16.2,7-37.34,18.56-49.38l.08.07c-.25,2.82-1,6.32.75,9.14,3.48,5.48,6.41,1.42,10-2.09,2.25,8.48,15.11,10.41,13.88-1.23,2.66,6.34,15.08,3.91,13-2.62,3.36,3.67,11.19-1.27,8.64-7.14l.3-.69C1087.72,326.66,1094.34,335.84,1095.38,344.48Z"/><path class="cls-2" d="M1079.51,321l-.3.69c2.55,5.87-5.28,10.81-8.64,7.14a7.82,7.82,0,0,0-1.14-2.19,5,5,0,0,0,1.14,2.19c2,6.53-10.39,9-13,2.62,1.23,11.64-11.63,9.71-13.88,1.23-3.61,3.51-6.54,7.57-10,2.09-1.78-2.82-1-6.32-.75-9.14l-.08-.07c4.32-4.48,9.28-7.7,14.74-8.93-5.13-1.76-8.9-6.82-10.85-12.25l1.12-.39c8.61-.06,30.07-1,30.07-1l.82.14c-.9,5.11-2.82,9.55-6.4,12.39C1068,315.05,1074.08,317.26,1079.51,321Z"/><path class="cls-2" d="M1040.11,411.4c-.73-2.4-1.65-6,.63-7.83s6.48-.64,7,2.29c0-3.75,4.12-10.31,8.39-10.17s5.86,6.3,5.35,10.16c4.06-8.38,15.75-3,10.86,6.06l.68,1.33a101.73,101.73,0,0,1-10.26,4.39c11.19.61,13.12,8.24,12.43,18.53l-1.36-.1c-7.73-3.17-22.74-1.36-31.06,0H1042c.07-9,2.44-16.85,9.79-18.48a38.83,38.83,0,0,1-12.37-5.09Z"/><path class="cls-2" d="M1073.79,436.06l1.36.1c-.45,7-2.11,15.13-2.91,23.19l-7.45-10.57-5.13,15.37s-5.36-9.34-8.24-12.11c-.87,3.92-2.34,8.19-4.65,11.19-2-5.73-4.81-17.15-4.73-27.18h.69C1051.05,434.7,1066.06,432.89,1073.79,436.06Z"/><path class="cls-7" d="M671.79,387c-4.47-2.63-7.67-6.34-7-11.41.71-5.37,7.78-12.86,10.9-17,2-2.67,4.11-5.2,6.27-7.65-4.75-11.71-10.1-29.71,1.11-28,4.2.65,10.6,8.74,14.3,11.46l.81.62c8.82-7.61,18.25-14.59,27.81-21.85,15.59-11.83,31.65-23.37,48.46-32.74,5.88-3.27,11.8-6.56,17.84-9.17a230.42,230.42,0,0,1,35.16-12.15c28.43-7.2,55.06-7.69,84.3-7.68,16.23,0,38.86,1,60.8.92,17.92,0,35.37-.73,48.52-3.13,12.07-2.22,19.21-16.75,32.4-14.15,4.33.86,14,4.44,16.76,7.93,4.78,6.11,0,11.41-4.1,16.74-3.16,4.17-9.49,11.51-12.14,16.88-.06-.05-.07,0,0,.05a15.52,15.52,0,0,0-.69,1.63c-2.42,6.69,3.78,11.12,3.84,17.4-6.38,3.35-10.29-3.48-16.05-4.42a43.38,43.38,0,0,0-5.32-.49c-12.23-.41-28.44,3.1-39.66,4.28-4.15.44-12.48,1.21-22,2.07-19.93,1.79-45.25,3.95-49.59,4.25,1.12,9.94,1.59,19.63,2.6,27.15,3.55,26.47,5.7,63,6.28,75.41.68,14.6,2.16,68.14,5.92,82.51,1.58,6,12.5,19.58,12.5,19.58v2.63l-70-.06v-2.9s-.89-19.34-1.29-27.15c-.74-14.52-1.13-28.77-2.25-43.26-.58-7.54-5.26-101.81-7.66-101.69-4.08.22-9.76-1-13.77-.75,0,0-.18,37.56-.18,82.93s2.76,74.31,2.76,89.92v2.89l-70.83,0V506.1c-1.85-.75,5.23-6.6,6.83-9.41,2.35-4.16,1.85-9,2.28-13.85,1.94-22.06,4.46-44.47,4.45-66.76,0-30.09.63-63.87,1.58-93.91-17.68,7.17-39.05,25.66-46.76,31.8-8.65,6.89-16.87,14.88-25.83,21.41-2.79,2-7.48,5.66-12.13,9.31A38.76,38.76,0,0,1,686.66,392c-3.27-.72-6-1.36-7-1.68A36.82,36.82,0,0,1,671.79,387Z"/><path class="cls-3" d="M1069.43,326.64a7.82,7.82,0,0,1,1.14,2.19A5,5,0,0,1,1069.43,326.64Z"/><path class="cls-2" d="M1067.65,277.11c1.3,7.93,2.48,17.84,1,26l-.82-.14s-21.46.93-30.07,1l-1.12.39c-1.56-4.31-2-8.86-1-12.14l0-1.39a43.38,43.38,0,0,1,5.32.49c5.76.94,9.67,7.77,16.05,4.42-.06-6.28-6.26-10.71-3.84-17.4a15.52,15.52,0,0,1,.69-1.63c.39,1,6.64,10.7,6.64,10.7Z"/><path class="cls-8" d="M1066,508.81c-7.72.13-15.24.2-22,.24v-.26Z"/><path class="cls-6" d="M1066.06,603.46c-2.48,3.43-4.57,6.22-5.88,8-4.62,6.41-9,12.94-13.36,19.49l-1.27-.84c-2.11-1.7-33.13-85.06-33.13-85.06l-2.48-1.42c8-3.27,19-2.59,29.19-1.95l-.18,2.87C1045.84,557,1066.06,603.46,1066.06,603.46Z"/><path class="cls-9" d="M1054,276.68l0,.05C1053.94,276.65,1054,276.63,1054,276.68Z"/><path class="cls-5" d="M1046.82,631c-4.47,6.73-8.91,13.45-13.51,20a190,190,0,0,0-11.91,20.5c-3-8.25-17.89-54.14-21.4-66.37C996.89,594.33,988.91,568,988.91,568l-1.26-.08c5.4-8.61,11.69-18,19.2-22.7a21.32,21.32,0,0,1,3.09-1.57l2.48,1.42s31,83.36,33.13,85.06Z"/><path class="cls-2" d="M1045.91,903.51c5.87,4.17,5.13,12.49-2.62,12.91-3,.16-8-2-9.47-5.28a7.45,7.45,0,0,0-.42-1.61,4.52,4.52,0,0,0,.42,1.61c.65,3.76.17,10.72-2.9,11.76-7.52,2.56-13.16-23-14.17-27a2,2,0,0,1-.07-.26c-.75-2.83-3.64-11.84-3.64-11.84s12.8,7.33,18.91,10.41C1036.32,896.37,1042,900.71,1045.91,903.51Z"/><path class="cls-3" d="M1033.4,909.53a7.45,7.45,0,0,1,.42,1.61A4.52,4.52,0,0,1,1033.4,909.53Z"/><path class="cls-2" d="M1028.2,945c3.43,2.77,7.29,10.45.16,11.58-3.54.57-8.65-2.57-11.4-6.5-.66-2.18-1.44-4.19-1.94-5.64a9.22,9.22,0,0,0,1.94,5.64c1.39,4.56,2.26,9.89-1,12.53-3.71,3-8-.8-9.59-4.4-2-4.48-2.78-9.79-3.68-14.63s-5.89-23.67-6-24.26c.4.35,12.83,11,17.1,14C1018.66,936.71,1023.47,941.17,1028.2,945Z"/><path class="cls-6" d="M1021.4,671.52c-5.55,10.59-11.09,21.52-18.36,30.58-3.54-8.87-17.72-53.29-23.16-65.75C975.33,625.93,968.21,599,968.21,599l-.44-.29q6.94-10.68,14-21.31c1.85-2.79,3.82-6,5.92-9.41l1.26.08s8,26.3,11.09,37.12C1003.51,617.38,1018.38,663.27,1021.4,671.52Z"/><path class="cls-3" d="M1015,944.43c.5,1.45,1.28,3.46,1.94,5.64A9.22,9.22,0,0,1,1015,944.43Z"/><path class="cls-2" d="M1007.37,845c2.73,3.24,7.19,12.13.87,14.57-3.37,1.31-7.92-2.61-10.19-6.3a7.9,7.9,0,0,0-1.33-3.07,9.64,9.64,0,0,0,1.33,3.07c1.31,4.94,1.59,13.55-1.79,13.68s-6-6.73-7-9c-3.87-9.49-5.87-26.57-9.46-37.6C986.66,829,1000.32,836.58,1007.37,845Z"/><path d="M1002.92,770.8l2.11,2.4,0,0c-4.11-3.31-18.31-10.52-20.33-.55.2-5.63-1.46-10.75-6.69-13.85a23.3,23.3,0,0,0-3.25-1.56l.41-1.86.05-.15C985,758.77,998.2,765.48,1002.92,770.8Z"/><path class="cls-2" d="M914.72,640.71c-4.74-8.22-9.68-16.23-15.83-23.5-3.67-4.32-7.55-9.44-12.6-12.17-8.44-4.57-17.62-5-26.75-3.29l-.07-.4c-4.55-.43-7.34-7.12-9.43-10.52-1.88-3.07-4.45-6.84-5.62-9.7l-1.23-.7c5.95-10.62,10.95-21.64,16.32-32.82a64.9,64.9,0,0,0,4.78-13.13c3.45-5.93,10.85-1.71,15.39,1l.34-.27c18.92,23.13,34.08,48.5,50.86,73.15a4.63,4.63,0,0,0,.31.46q7.51,11.05,15,22.12C961,652.85,975.57,674.89,989,697.66c1.77,3,4.19,7,6.52,11.5,5.85,11.22,11.16,25.36,4.35,33.86a15.6,15.6,0,0,1-5.11,4.11,41.6,41.6,0,0,1-11.94,3.94,116.39,116.39,0,0,1-14.61,1.32c-4.92.22-10.47.34-16.26.37-22.76.14-49.34-.89-56.58-1.56-5.43-.49-10.37-1.12-14.92-2-15.47-2.94-26.7-8.79-39.19-22.57-15.18-16.74-24.24-37.52-36.46-56.93-2.36-3.73-4.61-7.51-6.79-11.27,5.69-9.85,10.89-19.76,16.24-29.63l1.13.61s7,13.21,9.6,17.41c.27.43.54.85.8,1.28,4.09,6.58,8,13.28,11.6,20.12,3.83,7.25,9.51,14.29,17.48,16.93,6.9,2.28,14,4.69,21.24,3.15l0,.11A33.3,33.3,0,0,0,879,694c1.82,3.08,3.8,8.63,5.54,12.62s7.74,20.09,13.15,20c2,0,7.31-4.5,9.11-5.57,4.23-2.54,8.76-4.87,12.75-7.71,8.83-6.29,14.74-14.1,15-25.11.16-8.5-2.53-15.63-6.09-23-3.32-6.94-7.57-13.74-11.4-20.48ZM981.07,732c1.26-2.28-.35-6.24-1.43-8.44-1.86-3.78-4.83-9.62-8.88-11.17a6.32,6.32,0,0,0-5.85,1.3c-3.61,3.31.94,8.4,2.58,11.48,2.16,4,5.59,9.51,11.11,8.44A3.39,3.39,0,0,0,981.07,732Z"/><path class="cls-5" d="M1003,702.1a65.85,65.85,0,0,1-6,6.65l-1.51.41c-2.33-4.48-4.75-8.5-6.52-11.5-13.4-22.77-28-44.81-42.74-66.69l1.12-.75q10.17-15.79,20.42-31.55l.44.29s7.12,27,11.67,37.39C985.32,648.81,999.5,693.23,1003,702.1Z"/><path class="cls-3" d="M996.72,850.16a7.9,7.9,0,0,1,1.33,3.07A9.64,9.64,0,0,1,996.72,850.16Z"/><path class="cls-2" d="M977,891.27c.62,3.25,1.75,13.42-1.44,14-2.09.39-5.24-4.47-5.92-6-3.78-8.14-8.91-35.08-8.68-36.53,2.28,3.09,11.78,10.7,14.6,13.57,3.94,4,12.09,8.83,14.29,14,1.78,4.22-.47,9.71-5.1,8.61C981.19,898.16,977.68,894.69,977,891.27Z"/><path class="cls-2" d="M806.93,862.91c-4.32,6.06-7.29,10.12-7.88,10.93q-7-10.32-14-20.62c-.13-.18-.25-.37-.39-.56l.6-.4c19.07-28,35-55.91,57.7-81.46s70.32-14.66,100.29-16.38c2.54-.14,5.52-.26,8.7-.26,7.68,0,16.47.66,22.81,3.11a23.3,23.3,0,0,1,3.25,1.56c5.23,3.1,6.89,8.22,6.69,13.85-.23,6.55-3,13.78-5.66,19.3-7.61,15.86-14.5,31.42-24.38,45.92-12.33,18.11-21.57,36.86-31.84,55.49-3.83,6.92-7.79,13.83-12.11,20.69-12.22,19.4-21.27,40.19-36.45,56.94-13,14.36-19.65,20.64-34.22,23.69a39.46,39.46,0,0,0,8.55-3.21c13.45-7,8.06-23.6,1.41-36.72,0,0,4.06-7,9.82-16.55,6-10,13.81-22.73,20.8-33.43,2.23-3.4,4.37-6.58,6.34-9.4,6.24-8.93,12.18-18.12,18.31-27.22,2.79-4.13,5.63-8.24,8.56-12.3,1.93-2.68,5.51-7.45,9.58-13.25a226.4,226.4,0,0,0,15.55-24.91c5.57-10.77,8.74-20.86,4.9-26.08-3.65-5-13.5-5.93-22.57-5.83-5.82.06-11.3.55-14.62.7a115.94,115.94,0,0,1-11.85-.29c-10.17-.61-21.44-1.56-29.86,1.32a21.15,21.15,0,0,0-4.46,2.07c-6.21,3.86-11.58,11-16.3,18.18-3.23,4.92-6.15,9.91-8.82,14-3.69,5.58-7.51,11.22-11.23,16.62C817.68,847.77,811.53,856.46,806.93,862.91Z"/><path class="cls-2" d="M979.64,723.53c1.08,2.2,2.69,6.16,1.43,8.44a3.39,3.39,0,0,1-2.47,1.61c-5.52,1.07-9-4.4-11.11-8.44-1.64-3.08-6.19-8.17-2.58-11.48a6.32,6.32,0,0,1,5.85-1.3C974.81,713.91,977.78,719.75,979.64,723.53Z"/><path class="cls-8" d="M975.2,755.26l-.05.15-.41,1.86c-6.34-2.45-15.13-3.11-22.81-3.11v-1.4c5.79,0,11.34-.15,16.26-.37l0,.8A52.53,52.53,0,0,1,975.2,755.26Z"/><path class="cls-6" d="M943.84,791.64c3.84,5.22.67,15.31-4.9,26.08l-2-.78-15.65-30.72v-.41C930.34,785.71,940.19,786.68,943.84,791.64Z"/><path class="cls-5" d="M936.92,816.94l2,.78a226.4,226.4,0,0,1-15.55,24.91l-1.15-1.32L894.8,786.22a115.94,115.94,0,0,0,11.85.29c3.32-.15,8.8-.64,14.62-.7v.41Z"/><path class="cls-2" d="M898.69,716.1c12.69-5.61,17.83-15.06,11.33-28.4-1.67-3.42-4.49-8-7-13-4.12-8-7.46-17-3.84-23.67,3.31-6.06,10.45-6.87,15.57-10.35l2.31,4.07c3.83,6.74,8.08,13.54,11.4,20.48,3.56,7.42,6.25,14.55,6.09,23-.22,11-6.13,18.82-15,25.11-4,2.84-8.52,5.17-12.75,7.71-1.8,1.07-7.07,5.55-9.11,5.57-5.41,0-11.4-16-13.15-20S880.83,697.12,879,694a33.3,33.3,0,0,1-2.91-5.62l0-.11c.59-.13,1.17-.28,1.76-.47a67.78,67.78,0,0,0,12.94-5.56c3.66-2.08,6.29-5.65,10.35-7-3,7.28-12.41,11.3-12.57,19.85-.07,4.44,6.08,18.54,9.88,20.4Z"/><path class="cls-6" d="M922.24,841.31l1.15,1.32c-4.07,5.8-7.65,10.57-9.58,13.25-2.93,4.06-5.77,8.17-8.56,12.3l-2,0L865.18,788.3l-.24-.76c8.42-2.88,19.69-1.93,29.86-1.32Z"/><path class="cls-2" d="M898.89,617.21c6.15,7.27,11.09,15.28,15.83,23.5-5.12,3.48-12.26,4.29-15.57,10.35-3.62,6.63-.28,15.64,3.84,23.67l-1.87.54c-4.06,1.36-6.69,4.93-10.35,7a67.78,67.78,0,0,1-12.94,5.56c-.59.19-1.17.34-1.76.47-7.2,1.54-14.34-.87-21.24-3.15-8-2.64-13.65-9.68-17.48-16.93-3.61-6.84-7.51-13.54-11.6-20.12l.32-.21c6.38-7.7,9.19-14.52,6-24.75a38.89,38.89,0,0,0-3.31-7.13l1.86-.35c8.31-4.33,15.24-10.54,24.46-12.93,1.48-.38,3-.72,4.45-1,9.13-1.72,18.31-1.28,26.75,3.29C891.34,607.77,895.22,612.89,898.89,617.21Z"/><path class="cls-2" d="M910,687.7c6.5,13.34,1.36,22.79-11.33,28.4l-.26-.58c-3.8-1.86-9.95-16-9.88-20.4.16-8.55,9.55-12.57,12.57-19.85l1.87-.54C905.53,679.69,908.35,684.28,910,687.7Z"/><path class="cls-5" d="M845.15,808.17l-1-.38c4.72-7.21,10.09-14.32,16.3-18.18a21.15,21.15,0,0,1,4.46-2.07l.24.76,38.06,79.86,2,0c-6.13,9.1-12.07,18.29-18.31,27.22-2,2.82-4.11,6-6.34,9.4l-1.28-.84c-3.32-8.12-5.53-17-8.36-25.54-4-12-10-24.21-13.93-36.31-3.5-10.7-12.13-33.29-12.13-33.29Z"/><path class="cls-6" d="M879.32,904l1.28.84c-7,10.7-14.82,23.48-20.8,33.43l-1-.36L826,838.41l-1.82,0c3.72-5.4,7.54-11,11.23-16.62,2.67-4,5.59-9,8.82-14l1,.38-.25.65s8.63,22.59,12.13,33.29c4,12.1,10,24.28,13.93,36.31C873.79,887,876,895.84,879.32,904Z"/><path d="M880,535.24l-.34.27c-4.54-2.74-11.94-7-15.39-1,1.31-5.65,1.4-11.34-1.3-15.67l.27-.16a41.77,41.77,0,0,1,9.27,7.78Q876.39,530.78,880,535.24Z"/><path class="cls-2" d="M798,658.44c-2.18,3.76-4.44,7.53-6.79,11.27-12.23,19.41-21.28,40.19-36.47,56.93C738.55,744.48,724.5,749,700.61,751.2c-8.21.75-41.28,2-65.45,1.44-9.28-.22-17.25-.7-22-1.57a41.43,41.43,0,0,1-11.93-3.94c-18.56-9.7-1.26-37.57,5.74-49.47,17.93-30.46,37.91-59.61,57.8-88.81,19.06-28,35.11-57.67,58.66-82.42,12.46-13.09,31.11-16.17,54.71-16.66,13.62-.28,28.9.29,45.58.29,9.83,0,26.28-.64,34.75,4.39a13,13,0,0,1,4.52,4.36c2.7,4.33,2.61,10,1.3,15.67a64.9,64.9,0,0,1-4.78,13.13c-5.37,11.18-10.37,22.2-16.32,32.82-1.22,2.19-2.48,4.34-3.79,6.48s-2.78,4.44-4.27,6.62c-3.67,5.38-7.06,10.83-10.29,16.3-3.71,6.28-7.19,12.63-10.62,19C808.87,638.68,803.67,648.59,798,658.44Zm22-86.15c5.24-10.37,8.07-20,4.37-25-3.41-4.64-12.26-5.79-20.83-5.84-6.45,0-12.73.55-16.38.72-1.41.06-2.9.07-4.44,0-9.49-.19-21.18-1.79-30.87-.47A27.24,27.24,0,0,0,741,545.25c-5.59,3.47-10.5,9.56-14.87,16-3.8,5.62-7.19,11.49-10.25,16.11q-4.9,7.42-9.76,14.86-10.51,16.1-20.92,32.25-8.77,13.59-17.55,27.17l-1.75,2.7c-4.61,7.12-10.1,13.82-15.25,20.74s-9.94,14-13.19,22c-.1.23-.18.46-.27.69-8.56,21.83,6.62,24.35,23.43,24.6,4.6.08,9.32,0,13.71.06,3.82.07,7.86.19,12,.22,9.11.07,18.63-.36,27.14-3.07a40.72,40.72,0,0,0,10.29-4.85c6.67-4.46,12-10.39,16.75-17,7.59-10.79,13.36-23.47,19.76-35A135.07,135.07,0,0,1,767.43,651c5.88-8.41,11.49-17,17.25-25.63,3.14-4.66,6.31-9.3,9.61-13.88,2-2.82,5.89-8,10.25-14.17A217.9,217.9,0,0,0,820,572.29Z"/><path class="cls-7" d="M844.28,180.07c30.59-2,46.94,58.28,16.76,66.13a34.75,34.75,0,0,1-10.41,1.21c-17.11-.86-24.77-17.39-26.69-34.94C822.23,196.87,827.6,181.15,844.28,180.07Z"/><path class="cls-5" d="M858.8,937.87l1,.36C854,947.81,850,954.78,850,954.78c-2.52-5-5.23-9.47-7.16-12.74q-9.66-16.42-20-32.39h0l-15.87-46.73c4.6-6.45,10.75-15.14,17.2-24.55l1.82,0Z"/><path class="cls-2" d="M859.47,601.35l.07.4c-1.48.27-3,.61-4.45,1-9.22,2.39-16.15,8.6-24.46,12.93,14.51-8.74,16.91-20,8.77-28.76,1.31-2.14,2.57-4.29,3.79-6.48l1.23.7c1.17,2.86,3.74,6.63,5.62,9.7C852.13,594.23,854.92,600.92,859.47,601.35Z"/><path class="cls-2" d="M840,994.71c-1.11.29-2.24.53-3.38.74-17.13,3.12-76.1,1.16-87.46.13-23.88-2.2-37.94-6.73-54.11-24.56-15.18-16.75-31.62-48.18-43.85-67.58,12.73-21.89,23-44.17,37.54-65.54,9.87-14.5,16.77-30.06,24.37-45.92a65.81,65.81,0,0,0,4.65-12.49h0c2.49-4.31,9.13-1.65,12.17,0l.31-.25c19,23.21,39.09,51,54.38,73.39.14.19.26.38.39.56q7,10.31,14,20.62c8,11.86,16,23.76,23.75,35.8h0q10.32,16,20,32.39c1.93,3.27,4.64,7.76,7.16,12.74,6.65,13.12,12,29.69-1.41,36.72A39.46,39.46,0,0,1,840,994.71Zm-9.57-31.87-1,.19c-2.82.61-5.19.84-7.79,2.31l-.24.2c4.6,5.68,11,11.71,13.72,12.31C833.71,973.16,832.3,967.91,830.45,962.84Z"/><path class="cls-2" d="M839.4,586.91c8.14,8.72,5.74,20-8.77,28.76l-1.86.35a47.73,47.73,0,0,1-2.7-5.46l-1.23-.73c3.23-5.47,6.62-10.92,10.29-16.3Q837.37,590.26,839.4,586.91Z"/><path class="cls-2" d="M832.08,623.15c3.18,10.23.37,17.05-6,24.75l-.32.21c-.26-.43-.53-.85-.8-1.28-2.64-4.2-9.6-17.41-9.6-17.41l-1.13-.61c3.43-6.35,6.91-12.7,10.62-19l1.23.73a47.73,47.73,0,0,0,2.7,5.46A38.89,38.89,0,0,1,832.08,623.15Z"/><path class="cls-2" d="M830.45,962.84c1.85,5.07,3.26,10.32,4.74,15-2.7-.6-9.12-6.63-13.72-12.31l.24-.2c2.6-1.47,5-1.7,7.79-2.31Z"/><path class="cls-5" d="M824.34,547.27c3.7,5.05.87,14.65-4.37,25l-2.19-.91L803.5,542.67v-1.24C812.08,541.48,820.93,542.63,824.34,547.27Z"/><path class="cls-6" d="M806.93,862.91l15.87,46.73c-7.75-12-15.71-23.94-23.75-35.8C799.64,873,802.61,869,806.93,862.91Z"/><path class="cls-6" d="M817.78,571.38l2.19.91a217.9,217.9,0,0,1-15.43,25.05l-.89-1.08s-15.2-39.93-21-52.87l0-1.2c1.54,0,3,0,4.44,0,3.65-.17,9.93-.76,16.38-.72v1.24Z"/><path class="cls-5" d="M803.65,596.26l.89,1.08c-4.36,6.22-8.22,11.35-10.25,14.17-3.3,4.58-6.47,9.22-9.61,13.88l-.95-.64s-8.1-18.84-9.88-24.82c-5.28-17.59-21.94-57.5-21.94-57.5l-.09-.71c9.69-1.32,21.38.28,30.87.47l0,1.2C788.45,556.33,803.65,596.26,803.65,596.26Z"/><path class="cls-6" d="M783.73,624.75l.95.64c-5.76,8.58-11.37,17.22-17.25,25.63a135.07,135.07,0,0,0-7.22,11.74L759,662.1c-3-8.25-5.88-19.11-8.39-27.78-3.52-12.16-7.14-24.48-10.66-36.72C736.87,586.79,727.14,562,727.14,562l-1-.71c4.37-6.44,9.28-12.53,14.87-16a27.24,27.24,0,0,1,10.85-3.53l.09.71s16.66,39.91,21.94,57.5C775.63,605.91,783.73,624.75,783.73,624.75Z"/><path class="cls-5" d="M759,662.1l1.18.66c-6.4,11.5-12.17,24.18-19.76,35l-1.35-.84c-1.17-3.07-7.74-20.4-9.72-29.44-2.89-13.28-7.52-25.24-11.44-38.26-3.28-10.89-10.54-36.11-10.54-36.11l-1.31-.86q4.86-7.44,9.76-14.86c3.06-4.62,6.45-10.49,10.25-16.11l1,.71s9.73,24.83,12.84,35.64c3.52,12.24,7.14,24.56,10.66,36.72C753.15,643,756,653.85,759,662.1Z"/><path class="cls-6" d="M739.1,696.89l1.35.84c-4.7,6.65-10.08,12.58-16.75,17a40.72,40.72,0,0,1-10.29,4.85v-1.48l-27.6-93.25-.63-.42q10.43-16.14,20.92-32.25l1.31.86s7.26,25.22,10.54,36.11c3.92,13,8.55,25,11.44,38.26C731.36,676.49,737.93,693.82,739.1,696.89Z"/><path d="M730.26,779.27l-.31.25c-3-1.69-9.68-4.35-12.17,0,1.43-5.84,1.63-11.76-1.13-16.23C721.06,768.23,725.63,773.62,730.26,779.27Z"/><path class="cls-2" d="M717.78,779.49A65.81,65.81,0,0,1,713.13,792c-7.6,15.86-14.5,31.42-24.37,45.92-14.57,21.37-24.81,43.65-37.54,65.54-2.05,3.55-4.18,7.11-6.42,10.64-12.22,19.4-21.27,40.19-36.45,56.94-16.18,17.83-30.23,22.36-54.12,24.56-11.36,1-70.32,3-87.44-.13a41.82,41.82,0,0,1-11.94-4c-18.56-9.7-1.25-37.57,5.75-49.46,17.92-30.46,37.9-59.63,57.79-88.82,19.06-28,36-56.87,58.66-82.42,13.55-15.27,35.91-17.54,58.1-17.26,15.07.2,30.07,1.58,42.19.88a140.88,140.88,0,0,1,14.42-.12c7.56.36,15.34,1.55,20.33,4.53a12.91,12.91,0,0,1,4.56,4.42c2.76,4.47,2.56,10.39,1.13,16.23Zm-44.07,36.92c5.15-10.27,7.92-19.76,4.25-24.77-3.26-4.43-11.46-5.68-19.63-5.83-6.86-.12-13.7.53-17.57.7-1.63.08-3.36.08-5.17,0-9.67-.26-21.46-1.84-31.08-.32a26.38,26.38,0,0,0-9.91,3.39c-4.84,3-9.19,8-13.1,13.48-4.54,6.33-8.51,13.32-12,18.65q-4.71,7.11-9.38,14.26h0q-10.07,15.38-20,30.84-9.41,14.56-18.83,29.15l-1.75,2.71c-4.62,7.12-10.1,13.81-15.24,20.75s-9.94,14-13.19,22c-.1.23-.19.45-.28.68-8.24,21,5.49,24.14,21.5,24.57,5.19.14,10.64,0,15.64.09l7.1.15c10.05.21,20.92.19,30.61-2.58a40.84,40.84,0,0,0,11.69-5.27,63.76,63.76,0,0,0,15.6-15.45c8.18-11.11,14.21-24.5,20.93-36.58a134.44,134.44,0,0,1,7.21-11.71c5.78-8.27,11.3-16.78,17-25.23,3.22-4.8,6.5-9.58,9.88-14.29,2.14-3,6.29-8.47,10.9-15.12A209.65,209.65,0,0,0,673.71,816.41Z"/><path class="cls-5" d="M713.4,718.14v1.48c-8.51,2.71-18,3.14-27.14,3.07V720.2S675,673.32,668,651.88l-.37-.24q8.79-13.57,17.55-27.17l.63.42Z"/><path class="cls-6" d="M686.28,720.2v2.49c-4.11,0-8.15-.15-12-.22-4.39-.08-9.11,0-13.71-.06l0-1.18-9.17-45.54-.82-.61c5.15-6.92,10.64-13.62,15.25-20.74l1.75-2.7.37.24C675,673.32,686.28,720.2,686.28,720.2Z"/><path class="cls-5" d="M678,791.64c3.67,5,.9,14.5-4.25,24.77l-1.33-.66-14.06-29.53v-.41C666.5,786,674.7,787.21,678,791.64Z"/><path class="cls-6" d="M672.38,815.75l1.33.66a209.65,209.65,0,0,1-14.9,24.35L657,839.38l-21.38-52.84c1.81.05,3.54.05,5.17,0,3.87-.17,10.71-.82,17.57-.7v.41Z"/><path class="cls-5" d="M651.44,675.69l9.17,45.54,0,1.18c-16.81-.25-32-2.77-23.43-24.6.09-.23.17-.46.27-.69,3.25-8,8.05-15.14,13.19-22Z"/><path class="cls-5" d="M657,839.38l1.84,1.38c-4.61,6.65-8.76,12.16-10.9,15.12-3.38,4.71-6.66,9.49-9.88,14.29,0,0-8.77-19.89-10.56-25.87-5.27-17.6-23-58.08-23-58.08,9.62-1.52,21.41.06,31.08.32Z"/><path class="cls-6" d="M638,870.17c-5.67,8.45-11.19,17-17,25.23a134.44,134.44,0,0,0-7.21,11.71c-3-8.25-7.08-19.74-9.59-28.41-3.52-12.18-7.14-24.49-10.65-36.74-3.11-10.81-12.11-38.87-12.11-38.87,3.91-5.47,8.26-10.47,13.1-13.48a26.38,26.38,0,0,1,9.91-3.39s17.69,40.48,23,58.08C629.26,850.28,638,870.17,638,870.17Z"/><path class="cls-5" d="M604.26,878.7c2.51,8.67,6.56,20.16,9.59,28.41-6.72,12.08-12.75,25.47-20.93,36.58,0,0-7.75-21.94-9.91-31.86-2.9-13.29-6-25.81-11.45-38.28-4.51-10.34-11.36-37.13-11.47-37.54h0q4.68-7.14,9.38-14.26c3.52-5.33,7.49-12.32,12-18.65,0,0,9,28.06,12.11,38.87C597.12,854.21,600.74,866.52,604.26,878.7Z"/><path class="cls-6" d="M583,911.83c2.16,9.92,9.91,31.86,9.91,31.86a63.76,63.76,0,0,1-15.6,15.45,40.84,40.84,0,0,1-11.69,5.27l-.53-1.91-25-95.65q10-15.45,20-30.84c.11.41,7,27.2,11.47,37.54C577,886,580.11,898.54,583,911.83Z"/><path class="cls-5" d="M565.1,962.5l.53,1.91c-9.69,2.77-20.56,2.79-30.61,2.58l.06-2.42c-6.56-20.88-6.47-46.88-13.46-68.32l-.38-.25q9.43-14.57,18.83-29.15Z"/><path class="cls-6" d="M535.08,964.57,535,967l-7.1-.15c-5-.09-10.45,0-15.64-.09l0-1.14s-7.81-30.13-7.25-45.56l-.81-.59c5.14-6.94,10.62-13.63,15.24-20.75l1.75-2.71.38.25C528.61,917.69,528.52,943.69,535.08,964.57Z"/><path class="cls-5" d="M512.31,965.61l0,1.14c-16-.43-29.74-3.58-21.5-24.57.09-.23.18-.45.28-.68,3.25-8,8.05-15.14,13.19-22l.81.59C504.5,935.48,512.31,965.61,512.31,965.61Z"/><path class="cls-2" d="M438.21,501.68c10.57,7.2,3,20.71-2.56,29.64-6.85,11.12-40.43,51.58-62.73,78.11-5.5,6.54-10.31,12.23-13.86,16.42-8.07,9.52-18.74,23.48-28.8,35.84-5.36,6.56-10.55,12.67-15.09,17.42l-.31.17-.86-1.45c-9-14.6-28.7-14.82-39.07-2-3.42,4.25-5.46,14.74-3.24,20.19l-.18.12c-3.93-5.41-7.74-10.75-10.6-15.52-6-10-29.7-44.12-37.41-52.9-5-5.7-10.66-14.84-8.77-22.91l-.41-.36,2.68-.63c8.21-9.91,16.62-19.62,25.14-29,14.27-15.63,41.21-48.52,57.52-68.65a42.43,42.43,0,0,1,35.28-15.64c20.56,1.13,51,2.78,69.34,3.66C414,494.74,430.3,496.29,438.21,501.68ZM350.28,601.91c6-3,11.7-8.77,11.09-15.94-.36-4.3-3.16-7.66-8-7.37,4.44-5.07,2.56-13.94-4.18-15.77-4.89-1.33-12.57,2.24-16.05,5.3-9.65,8.47-21.59,24.11-29.1,28.53.16-9.37.41-18.14.77-22.71.44-5.68-.61-20.38-7-22.3-9-2.73-11.06,10.71-10.74,16.24-1.66-5.22-9.78-3.43-13.26-1.08a12.36,12.36,0,0,0-5.62,11.29c.77,11.46,31.46,16.8,35.81,18.56-8.22,4.84-26.55,10.62-35.43,14-5.24,2-11.75,3.39-15.7,7.36-4.32,4.34-5.47,14.34-1.32,19.41,6.17,7.54,19.52-2,25.84-5-4.67,7,1.19,13.37,7.87,16,12.33,4.78,18.45-6.7,18.43-17.6,0-4.82.06-20.16.31-34.14h0C317.31,602.05,336.94,608.57,350.28,601.91ZM329.9,511.85c2.07-1.24,4.66-3.47,1.85-5.73-2.45-2-7.4.89-9.56,2.28.05-2.93-1.1-6.44-4.22-4s-4.24,12.65-4,16.36C319.19,517.86,324.68,515,329.9,511.85Z"/><path class="cls-7" d="M221.69,707.12c-1-1.78-2-3.55-2.95-5.34-5.65-10.43-28.44-35.6-35.75-44.53a23.59,23.59,0,0,1-2.57-4c-.3-.57-.58-1.16-.86-1.76a36.43,36.43,0,0,1-3.28-13.1,13.94,13.94,0,0,1,1.24-7c6.26-11.74,28.79-33.17,36.8-26.92l.41.36c-1.89,8.07,3.78,17.21,8.77,22.91,7.71,8.78,31.42,42.89,37.41,52.9,2.86,4.77,6.67,10.11,10.6,15.52,5.05,7,10.29,14.06,13.9,20.23,2.54,4.34,5.27,9.21,8,13.87,2.25,3.87,4.49,7.61,6.59,10.77l36.19-12.94-5.1-57.3s23.32-37.67,28-45c3.55-4.19,8.36-9.88,13.86-16.42,14.77,67.79,27,187.09,27.7,256,.31,30.93,2.37,61.91,2.37,92.94,0,6.32-.75,15.81-.25,22.21.31,4.11,6.41,16.35,6.41,16.35H343.73s-.19-27.91-.19-35.7c0-23.21-2.29-81.05-2.7-104.19-.3-16.43-2.79-47-2.79-47l-18.11,1.23s-1.1,23-.92,31.8c.42,21.7.88,125.06,1.21,140.21.16,6.83,6.94,13.65,6.94,13.65s-49.12.47-57.71,0c-.8-14.8-.1-27.78-.09-42.68,0-46.26,2.54-94.21-2.81-140.21-1.54-13.24-1.65-24.84-6.86-37C249.31,752.71,234.59,730.18,221.69,707.12Z"/><path class="cls-2" d="M361.37,586c.61,7.17-5.07,12.94-11.09,15.94-13.34,6.66-33,.14-46.26-5.25,7.51-4.42,19.45-20.06,29.1-28.53,3.48-3.06,11.16-6.63,16.05-5.3,6.74,1.83,8.62,10.7,4.18,15.77C358.21,578.31,361,581.67,361.37,586Z"/><path d="M359.06,625.85c-4.67,7.3-28,45-28,45l-.81-9.13C340.32,649.33,351,635.37,359.06,625.85Z"/><path class="cls-2" d="M331.75,506.12c2.81,2.26.22,4.49-1.85,5.73-5.22,3.12-10.71,6-15.91,8.87-.26-3.71.82-13.94,4-16.36s4.27,1.11,4.22,4C324.35,507,329.3,504.14,331.75,506.12Z"/><path class="cls-7" d="M322.31,701.73c1.13,8.08-1.56,15.3-6.62,21.8s-13.55,9.91-21.33,6.19h0l-1,.57c-2.71-4.66-5.44-9.53-8-13.87-3.61-6.17-8.85-13.26-13.9-20.23l.18-.12c-2.22-5.45-.18-15.94,3.24-20.19C285.3,663,305,663.23,314,677.83l.86,1.45A62.39,62.39,0,0,1,322.31,701.73Z"/><path class="cls-2" d="M297.82,551.65c6.36,1.92,7.41,16.62,7,22.3-.36,4.57-.61,13.34-.77,22.71h0c-4.35-1.76-35-7.1-35.81-18.56a12.36,12.36,0,0,1,5.62-11.29c3.48-2.35,11.6-4.14,13.26,1.08C286.76,562.36,288.83,548.92,297.82,551.65Z"/><path class="cls-2" d="M304,596.66c-.25,14-.32,29.32-.31,34.14,0,10.9-6.1,22.38-18.43,17.6-6.68-2.61-12.54-9-7.87-16-6.32,3-19.67,12.56-25.84,5-4.15-5.07-3-15.07,1.32-19.41,3.95-4,10.46-5.36,15.7-7.36C277.46,607.28,295.79,601.5,304,596.66Z"/><path class="cls-2" d="M221.69,707.12l-2.29,1.29c-11.31-2.33-22.47-3.57-36.84-6.79a44.39,44.39,0,0,1-11.63-4.24c-15.79-8.65-.51-31.3,7.84-43l1.65-1.09a23.59,23.59,0,0,0,2.57,4c7.31,8.93,30.1,34.1,35.75,44.53C219.71,703.57,220.69,705.34,221.69,707.12Z"/><path class="cls-7" d="M179.56,651.51l-.59.29c-6.64-.26-12.39-11.82-4.32-13.31l1.63-.08A36.43,36.43,0,0,0,179.56,651.51Z"/><path class="cls-10" d="M635.16,752.64c-9.28-.22-17.25-.7-22-1.57a41.43,41.43,0,0,1-11.93-3.94c-18.56-9.7-1.26-37.57,5.74-49.47,17.93-30.46,37.91-59.61,57.8-88.81,19.06-28,35.11-57.67,58.66-82.42,12.46-13.09,31.11-16.17,54.71-16.66,13.62-.28,28.9.29,45.58.29,9.83,0,26.28-.64,34.75,4.39a13,13,0,0,1,4.52,4.36c2.7,4.33,2.61,10,1.3,15.67a64.9,64.9,0,0,1-4.78,13.13c-5.37,11.18-10.37,22.2-16.32,32.82-1.22,2.19-2.48,4.34-3.79,6.48s-2.78,4.44-4.27,6.62c-3.67,5.38-7.06,10.83-10.29,16.3-3.71,6.28-7.19,12.63-10.62,19-5.35,9.87-10.55,19.78-16.24,29.63-2.18,3.76-4.44,7.53-6.79,11.27-12.23,19.41-21.28,40.19-36.47,56.93C738.55,744.48,724.5,749,700.61,751.2,692.4,752,659.33,753.19,635.16,752.64Z"/><path class="cls-10" d="M660.59,722.41c-16.81-.25-32-2.77-23.43-24.6.09-.23.17-.46.27-.69,3.25-8,8.05-15.14,13.19-22s10.64-13.62,15.25-20.74l1.75-2.7q8.79-13.57,17.55-27.17,10.43-16.14,20.92-32.25,4.86-7.44,9.76-14.86c3.06-4.62,6.45-10.49,10.25-16.11,4.37-6.44,9.28-12.53,14.87-16a27.24,27.24,0,0,1,10.85-3.53c9.69-1.32,21.38.28,30.87.47,1.54,0,3,0,4.44,0,3.65-.17,9.93-.76,16.38-.72,8.57.05,17.42,1.2,20.83,5.84,3.7,5.05.87,14.65-4.37,25a217.9,217.9,0,0,1-15.43,25.05c-4.36,6.22-8.22,11.35-10.25,14.17-3.3,4.58-6.47,9.22-9.61,13.88-5.76,8.58-11.37,17.22-17.25,25.63a135.07,135.07,0,0,0-7.22,11.74c-6.4,11.5-12.17,24.18-19.76,35-4.7,6.65-10.08,12.58-16.75,17a40.72,40.72,0,0,1-10.29,4.85c-8.51,2.71-18,3.14-27.14,3.07-4.11,0-8.15-.15-12-.22C669.91,722.39,665.19,722.49,660.59,722.41Z"/><line class="cls-10" x1="651.44" y1="675.69" x2="660.61" y2="721.23"/><path class="cls-10" d="M668,651.88c7,21.44,18.29,68.32,18.29,68.32"/><line class="cls-10" x1="685.8" y1="624.89" x2="713.4" y2="718.14"/><path class="cls-10" d="M707.4,593.08s7.26,25.22,10.54,36.11c3.92,13,8.55,25,11.44,38.26,2,9,8.55,26.37,9.72,29.44.12.31.19.47.19.47"/><path class="cls-10" d="M727.14,562s9.73,24.83,12.84,35.64c3.52,12.24,7.14,24.56,10.66,36.72C753.15,643,756,653.85,759,662.1"/><path class="cls-10" d="M751.91,542.43s16.66,39.91,21.94,57.5c1.78,6,9.88,24.82,9.88,24.82"/><path class="cls-10" d="M782.66,543.39c5.79,12.94,21,52.87,21,52.87"/><line class="cls-10" x1="803.5" y1="542.67" x2="817.78" y2="571.38"/><path class="cls-10" d="M717.78,779.49A65.81,65.81,0,0,1,713.13,792c-7.6,15.86-14.5,31.42-24.37,45.92-14.57,21.37-24.81,43.65-37.54,65.54-2.05,3.55-4.18,7.11-6.42,10.64-12.22,19.4-21.27,40.19-36.45,56.94-16.18,17.83-30.23,22.36-54.12,24.56-11.36,1-70.32,3-87.44-.13a41.82,41.82,0,0,1-11.94-4c-18.56-9.7-1.25-37.57,5.75-49.46,17.92-30.46,37.9-59.63,57.79-88.82,19.06-28,36-56.87,58.66-82.42,13.55-15.27,35.91-17.54,58.1-17.26,15.07.2,30.07,1.58,42.19.88a140.88,140.88,0,0,1,14.42-.12c7.56.36,15.34,1.55,20.33,4.53a12.91,12.91,0,0,1,4.56,4.42c2.76,4.47,2.56,10.39,1.13,16.23"/><path class="cls-10" d="M560.09,836q4.68-7.14,9.38-14.26c3.52-5.33,7.49-12.32,12-18.65,3.91-5.47,8.26-10.47,13.1-13.48a26.38,26.38,0,0,1,9.91-3.39c9.62-1.52,21.41.06,31.08.32,1.81.05,3.54.05,5.17,0,3.87-.17,10.71-.82,17.57-.7,8.17.15,16.37,1.4,19.63,5.83,3.67,5,.9,14.5-4.25,24.77a209.65,209.65,0,0,1-14.9,24.35c-4.61,6.65-8.76,12.16-10.9,15.12-3.38,4.71-6.66,9.49-9.88,14.29-5.67,8.45-11.19,17-17,25.23a134.44,134.44,0,0,0-7.21,11.71c-6.72,12.08-12.75,25.47-20.93,36.58a63.76,63.76,0,0,1-15.6,15.45,40.84,40.84,0,0,1-11.69,5.27c-9.69,2.77-20.56,2.79-30.61,2.58l-7.1-.15c-5-.09-10.45,0-15.64-.09-16-.43-29.74-3.58-21.5-24.57.09-.23.18-.45.28-.68,3.25-8,8.05-15.14,13.19-22s10.62-13.63,15.24-20.75l1.75-2.71q9.43-14.57,18.83-29.15,10-15.45,20-30.84"/><path class="cls-10" d="M505.06,920.05c-.56,15.43,7.25,45.56,7.25,45.56"/><path class="cls-10" d="M521.62,896.25c7,21.44,6.9,47.44,13.46,68.32"/><line class="cls-10" x1="540.07" y1="866.85" x2="565.1" y2="962.5"/><path class="cls-10" d="M560.09,836h0c.11.41,7,27.2,11.47,37.54,5.45,12.47,8.55,25,11.45,38.28,2.16,9.92,9.91,31.86,9.91,31.86"/><path class="cls-10" d="M581.5,803.09s9,28.06,12.11,38.87c3.51,12.25,7.13,24.56,10.65,36.74,2.51,8.67,6.56,20.16,9.59,28.41"/><path class="cls-10" d="M604.51,786.22s17.69,40.48,23,58.08c1.79,6,10.56,25.87,10.56,25.87"/><line class="cls-10" x1="635.59" y1="786.54" x2="656.97" y2="839.38"/><line class="cls-10" x1="658.32" y1="786.22" x2="672.38" y2="815.75"/><path class="cls-10" d="M1126.1,515.66c5.1,4.16,5.68,10.78,4.36,17.5a61.73,61.73,0,0,1-5.07,14.45c-4.29,8.94-8.35,17.79-12.85,26.42-2.94,5.63-6.07,11.16-9.58,16.57-.63,1-1.28,2-2,2.93-3.33,4.9-6.43,9.84-9.4,14.81-3.87,6.49-7.49,13-11,19.6-5,9.19-9.83,18.42-15,27.6-2.7,4.74-5.49,9.47-8.45,14.17-12.22,19.41-21.28,40.19-36.46,56.93-6.94,7.67-13.5,12.87-20.61,16.5"/><path class="cls-10" d="M931.62,607.89c19.06-28,35-55.91,57.7-81.46,12.85-14.49,33.64-17.28,54.71-17.28,16.19,0,32.55,1.65,45.57.91,9.81-.56,26.28-.64,34.76,4.39a14,14,0,0,1,1.73,1.21"/><path class="cls-10" d="M947.35,630.22q10.17-15.79,20.42-31.55,6.94-10.68,14-21.31c1.85-2.79,3.82-6,5.92-9.41,5.4-8.61,11.69-18,19.2-22.7a21.32,21.32,0,0,1,3.09-1.57c8-3.27,19-2.59,29.19-1.95a135.65,135.65,0,0,0,13.89.42c2.25-.11,5.52-.37,9.21-.54,10.18-.49,23.59-.32,28,5.66s-.3,18.07-7.24,30.39a281.92,281.92,0,0,1-16.92,25.8c-2.48,3.43-4.57,6.22-5.88,8-4.62,6.41-9,12.94-13.36,19.49-4.47,6.73-8.91,13.45-13.51,20a190,190,0,0,0-11.91,20.5c-5.55,10.59-11.09,21.52-18.36,30.58a65.85,65.85,0,0,1-6,6.65"/><path class="cls-10" d="M968.21,599s7.12,27,11.67,37.39c5.44,12.46,19.62,56.88,23.16,65.75"/><path class="cls-10" d="M988.91,568s8,26.3,11.09,37.12c3.51,12.23,18.38,58.12,21.4,66.37"/><path class="cls-10" d="M1012.42,545.1s31,83.36,33.13,85.06"/><path class="cls-10" d="M1039,544.6c6.89,12.39,27.11,58.86,27.11,58.86"/><line class="cls-10" x1="1062.29" y1="543.13" x2="1080.84" y2="576.93"/><path class="cls-10" d="M785.24,852.26c19.07-28,35-55.91,57.7-81.46s70.32-14.66,100.29-16.38c2.54-.14,5.52-.26,8.7-.26,7.68,0,16.47.66,22.81,3.11a23.3,23.3,0,0,1,3.25,1.56c5.23,3.1,6.89,8.22,6.69,13.85-.23,6.55-3,13.78-5.66,19.3-7.61,15.86-14.5,31.42-24.38,45.92-12.33,18.11-21.57,36.86-31.84,55.49-3.83,6.92-7.79,13.83-12.11,20.69-12.22,19.4-21.27,40.19-36.45,56.94-13,14.36-19.65,20.64-34.22,23.69a109.8,109.8,0,0,1-12.14,1.71"/><path class="cls-10" d="M798.94,874l.11-.16c.59-.81,3.56-4.87,7.88-10.93,4.6-6.45,10.75-15.14,17.2-24.55,3.72-5.4,7.54-11,11.23-16.62,2.67-4,5.59-9,8.82-14,4.72-7.21,10.09-14.32,16.3-18.18a21.15,21.15,0,0,1,4.46-2.07c8.42-2.88,19.69-1.93,29.86-1.32a115.94,115.94,0,0,0,11.85.29c3.32-.15,8.8-.64,14.62-.7,9.07-.1,18.92.87,22.57,5.83,3.84,5.22.67,15.31-4.9,26.08a226.4,226.4,0,0,1-15.55,24.91c-4.07,5.8-7.65,10.57-9.58,13.25-2.93,4.06-5.77,8.17-8.56,12.3-6.13,9.1-12.07,18.29-18.31,27.22-2,2.82-4.11,6-6.34,9.4-7,10.7-14.82,23.48-20.8,33.43C854,947.81,850,954.78,850,954.78"/><polyline class="cls-10" points="806.87 862.75 806.93 862.91 822.8 909.64"/><line class="cls-10" x1="825.95" y1="838.41" x2="858.8" y2="937.87"/><path class="cls-10" d="M844.9,808.82s8.63,22.59,12.13,33.29c4,12.1,10,24.28,13.93,36.31,2.83,8.57,5,17.42,8.36,25.54"/><line class="cls-10" x1="865.18" y1="788.3" x2="903.24" y2="868.16"/><line class="cls-10" x1="894.8" y1="786.22" x2="922.24" y2="841.31"/><polyline class="cls-10" points="921.27 786.22 936.92 816.94 937.3 817.68"/><path class="cls-10" d="M1067.26,860c19.06-28,40.58-63.61,63.25-89.16,8.23-9.28,19.7-13.76,32.42-15.78a159.14,159.14,0,0,1,27.79-1.45c14.35.29,28.52,1.52,40.08.85,9.81-.56,26.28-.63,34.75,4.41,6.31,3.74,7.44,10.41,6.34,17.36-.06.48-.15.94-.25,1.41a62.05,62.05,0,0,1-5.05,14.38c-5.35,11.14-10.33,22.13-16.26,32.71-2.5,4.49-5.17,8.9-8.12,13.21-1.22,1.81-2.43,3.62-3.6,5.44-11.89,18.43-21,37.44-31.71,56.24-2.74,4.85-5.6,9.69-8.63,14.5C1186,933.48,1177,954.27,1161.8,971c-12.12,13.37-23.07,19.27-37.87,22.31l-1.44.28"/><path class="cls-10" d="M1083.28,882.73c5.08-7.84,9.18-14.2,12.91-20,6.28-9.75,11.51-17.85,18.57-28.61,2.45-3.75,5.14-7.82,8.17-12.4,2.46-3.73,5.14-8.26,8.08-12.81,4.89-7.6,10.5-15.25,17-19.32a23.71,23.71,0,0,1,6.65-2.72c9.38-2.39,21.6-.9,31.93-.44,2.68.12,5.24.17,7.58.06,8.48-.38,31.21-3,37.2,5.13,5.62,7.65-3.81,25.74-13.78,41.13-6.53,10.09-13.31,19-16.25,23.11q-1.76,2.43-3.48,4.89c-7.28,10.44-14.09,21.13-21.25,31.52-.7,1-1.42,2.08-2.14,3.11-6,8.61-11,18.84-16.33,28.86-5.78,10.84-12,21.43-20.6,29.45a53.53,53.53,0,0,1-6.81,5.43"/><path class="cls-10" d="M1096.19,862.75c12.16,29.12,41.38,91,41.38,91"/><path class="cls-10" d="M1114.76,834.14s13.15,28.9,18.87,38.72c6.87,11.74,19.46,38.79,24.55,51.4"/><path class="cls-10" d="M1133.13,809.31s12.35,22.8,16.69,33.18c4.93,11.74,20.81,37.36,25.72,49"/><polyline class="cls-10" points="1154.83 787.42 1196.83 860.53 1197.19 861.15"/><path class="cls-10" d="M1186.63,786.46c8.29,11.49,31,46.31,31,46.31"/><path class="cls-10" d="M798,658.42s0,0,0,0c2.18,3.76,4.43,7.54,6.79,11.27,12.22,19.41,21.28,40.19,36.46,56.93,12.49,13.78,23.72,19.63,39.19,22.57,4.55.87,9.49,1.5,14.92,2,7.24.67,33.82,1.7,56.58,1.56,5.79,0,11.34-.15,16.26-.37a116.39,116.39,0,0,0,14.61-1.32,41.6,41.6,0,0,0,11.94-3.94,15.6,15.6,0,0,0,5.11-4.11c6.81-8.5,1.5-22.64-4.35-33.86-2.33-4.48-4.75-8.5-6.52-11.5-13.4-22.77-28-44.81-42.74-66.69q-7.5-11.07-15-22.12a4.63,4.63,0,0,1-.31-.46c-16.78-24.65-31.94-50-50.86-73.15q-3.63-4.47-7.49-8.81a41.77,41.77,0,0,0-9.27-7.78"/><path class="cls-10" d="M1065.52,655.54c12.22,19.41,29,54.36,44.15,71.1,16.17,17.84,30.23,22.38,54.11,24.56,2,.18,5.44.4,9.87.6,4.76.22,10.67.44,17.1.62,21.74.58,49.59.64,60.49-1.35a41.53,41.53,0,0,0,11.93-3.94c18.55-9.7,1.25-37.57-5.74-49.47-17.93-30.46-37.91-59.61-57.8-88.81-17.15-25.17-32.58-51.09-52-74.65q-3.24-3.93-6.64-7.77a43.69,43.69,0,0,0-14.87-10.77h0"/><path class="cls-10" d="M651.22,903.44c12.23,19.4,28.67,50.83,43.85,67.58,16.17,17.83,30.23,22.36,54.11,24.56,11.36,1,70.33,3,87.46-.13,1.14-.21,2.27-.45,3.38-.74a39.46,39.46,0,0,0,8.55-3.21c13.45-7,8.06-23.6,1.41-36.72-2.52-5-5.23-9.47-7.16-12.74q-9.66-16.42-20-32.39h0c-7.75-12-15.71-23.94-23.75-35.8q-7-10.32-14-20.62c-.13-.18-.25-.37-.39-.56-15.29-22.42-35.38-50.18-54.38-73.39-4.63-5.65-9.2-11-13.61-16"/><path class="cls-10" d="M923.18,893.6c3.79,6.86,7.72,13.7,12,20.48,12.22,19.4,21.28,40.19,36.46,56.94,16.17,17.83,30.23,22.36,54.12,24.56,11.36,1,70.32,3,87.45-.13a43.45,43.45,0,0,0,10.52-3.25c.47-.22,1-.46,1.41-.7,11.93-6.23,9-20,3.59-32.17a174.75,174.75,0,0,0-9.33-17.29c-11.74-19.95-24.36-39.33-37.26-58.53q-7.75-11.57-15.61-23l-4.93-7.24c-18.46-27.09-34.93-55.06-56.55-80l-2.11-2.4c-4.72-5.32-17.95-12-27.72-15.54a52.53,52.53,0,0,0-7-2.07"/><path class="cls-10" d="M1206.9,899.58C1219.12,919,1236.81,954.27,1252,971c16.18,17.83,30.24,22.36,54.12,24.56,11.36,1,70.33,3,87.44-.13a42,42,0,0,0,12-4c18.55-9.7,1.24-37.57-5.76-49.46-17.92-30.46-37.9-59.63-57.79-88.82-13.14-19.3-32.68-55.22-51.71-76.79-8.54-9.7-17-16.5-24.69-17.6"/><path class="cls-10" d="M691.81,753.33c17.59.07,176.53-2.13,203.53-2.13"/><path class="cls-10" d="M968.21,753.19c38.12,0,75.91-1.92,113.86-.9,16.1.44,91.54.13,91.54.13"/><path class="cls-10" d="M1066.09,508.81l41.81,0"/><path class="cls-10" d="M772.14,508.62h16.41l70.83,0h22.4l70,.06,56.91,0,35.34,0,22,0"/><path class="cls-10" d="M724.8,870c-3.87,5.15-6,10.62-8.29,16.56"/><path class="cls-10" d="M745.49,861.74c-8.93,17.92-14.46,38.46-18.63,58"/><path class="cls-10" d="M972.57,252.41q.09-6.22.47-12.43c1.65-25.61,10.26-29.27,33.09-30.25,28.42-1.22,56.45-4.54,85-1.24,9.85,1.14,22.29,1.08,31.44,5.16,12.14,5.39,12,19.65,13.28,33.32,4.06,43.82,5.25,88,6.86,131.92.8,21.49,1.93,47.89,3.13,69.28.86,15.35,3.19,36-6.58,48.47-10.48,13.36-27.37,10.79-41.76,11.35-9.92.4-20.87.66-31.45.82H1066c-7.72.13-15.24.2-22,.24-5.11,0-9.78.05-13.77.05-7.17,0-14.74.59-21.57-.34-8.9-1.2-16.52-5-20.38-15.91-10.56-30-7.77-71.67-9.86-102.05-1.68-24.55-3.89-86.05-4.34-93.22"/><path class="cls-10" d="M217,603.87c8.21-9.91,16.62-19.62,25.14-29,14.27-15.63,41.21-48.52,57.52-68.65a42.43,42.43,0,0,1,35.28-15.64c20.56,1.13,51,2.78,69.34,3.66,9.74.47,26,2,33.93,7.41,10.57,7.2,3,20.71-2.56,29.64-6.85,11.12-40.43,51.58-62.73,78.11-5.5,6.54-10.31,12.23-13.86,16.42-8.07,9.52-18.74,23.48-28.8,35.84-5.36,6.56-10.55,12.67-15.09,17.42"/><path class="cls-10" d="M219.4,708.41c-11.31-2.33-22.47-3.57-36.84-6.79a44.39,44.39,0,0,1-11.63-4.24c-15.79-8.65-.51-31.3,7.84-43"/><path class="cls-10" d="M330.26,661.69l.81,9.13,5.1,57.3L300,741.06c-2.1-3.16-4.34-6.9-6.59-10.77-2.71-4.66-5.44-9.53-8-13.87-3.61-6.17-8.85-13.26-13.9-20.23-3.93-5.41-7.74-10.75-10.6-15.52-6-10-29.7-44.12-37.41-52.9-5-5.7-10.66-14.84-8.77-22.91l-.41-.36c-8-6.25-30.54,15.18-36.8,26.92a13.94,13.94,0,0,0-1.24,7,36.43,36.43,0,0,0,3.28,13.1c.28.6.56,1.19.86,1.76a23.59,23.59,0,0,0,2.57,4c7.31,8.93,30.1,34.1,35.75,44.53,1,1.79,1.95,3.56,2.95,5.34,12.9,23.06,27.62,45.59,38,69.87,5.21,12.21,5.32,23.81,6.86,37,5.35,46,2.85,94,2.81,140.21,0,14.9-.71,27.88.09,42.68,8.59.47,57.71,0,57.71,0s-6.78-6.82-6.94-13.65c-.33-15.15-.79-118.51-1.21-140.21-.18-8.79.92-31.8.92-31.8L338.05,810s2.49,30.57,2.79,47c.41,23.14,2.7,81,2.7,104.19,0,7.79.19,35.7.19,35.7h65.42s-6.1-12.24-6.41-16.35c-.5-6.4.25-15.89.25-22.21,0-31-2.06-62-2.37-92.94-.68-68.91-12.93-188.21-27.7-256"/><path class="cls-10" d="M271.69,696.07c-2.22-5.45-.18-15.94,3.24-20.19C285.3,663,305,663.23,314,677.83l.86,1.45a62.39,62.39,0,0,1,7.45,22.45c1.13,8.08-1.56,15.3-6.62,21.8s-13.55,9.91-21.33,6.19"/><path class="cls-10" d="M174.65,638.49c-8.07,1.49-2.32,13,4.32,13.31"/><path class="cls-10" d="M291.51,688.74a3,3,0,0,0-.44-1.32"/><path class="cls-10" d="M301.66,683.88a1,1,0,0,0-.88-.87"/><path class="cls-10" d="M299.46,697.57a29,29,0,0,0,5.73-4"/><path class="cls-10" d="M859.38,505.77c0-15.61-2.76-44.55-2.76-89.92s.18-82.93.18-82.93c4-.24,9.69,1,13.77.75,2.4-.12,7.08,94.15,7.66,101.69,1.12,14.49,1.51,28.74,2.25,43.26.4,7.81,1.29,27.15,1.29,27.15"/><path class="cls-10" d="M951.78,506.1s-10.92-13.57-12.5-19.58c-3.76-14.37-5.24-67.91-5.92-82.51-.58-12.42-2.73-48.94-6.28-75.41-1-7.52-1.48-17.21-2.6-27.15,4.34-.3,29.66-2.46,49.59-4.25,9.55-.86,17.88-1.63,22-2.07,11.22-1.18,27.43-4.69,39.66-4.28a43.38,43.38,0,0,1,5.32.49c5.76.94,9.67,7.77,16.05,4.42-.06-6.28-6.26-10.71-3.84-17.4a15.52,15.52,0,0,1,.69-1.63l0-.05c2.65-5.37,9-12.71,12.14-16.88,4-5.33,8.88-10.63,4.1-16.74-2.72-3.49-12.43-7.07-16.76-7.93-13.19-2.6-20.33,11.93-32.4,14.15-13.15,2.4-30.6,3.1-48.52,3.13-21.94,0-44.57-.91-60.8-.92-29.24,0-55.87.48-84.3,7.68a230.42,230.42,0,0,0-35.16,12.15c-6,2.61-12,5.9-17.84,9.17-16.81,9.37-32.87,20.91-48.46,32.74-9.56,7.26-19,14.24-27.81,21.85l-.81-.62c-3.7-2.72-10.1-10.81-14.3-11.46-11.21-1.75-5.86,16.25-1.11,28-2.16,2.45-4.26,5-6.27,7.65-3.12,4.12-10.19,11.61-10.9,17-.69,5.07,2.51,8.78,7,11.41a36.82,36.82,0,0,0,7.86,3.32c1,.32,3.74,1,7,1.68A38.76,38.76,0,0,0,719,384.69c4.65-3.65,9.34-7.28,12.13-9.31,9-6.53,17.18-14.52,25.83-21.41,7.71-6.14,29.08-24.63,46.76-31.8-1,30-1.58,63.82-1.58,93.91,0,22.29-2.51,44.7-4.45,66.76-.43,4.87.07,9.69-2.28,13.85-1.6,2.81-8.68,8.66-6.83,9.41"/><path class="cls-10" d="M671.77,387.06a.14.14,0,0,0,0-.06c2.52-6.37,10.79-13.63,16.55-16.52"/><path class="cls-10" d="M686.84,390.82c2.66-4.57,8.62-9,12.81-12.05"/><path class="cls-10" d="M1063.55,242.72c-3.17,4.08-7.23,8.06-9.79,12.06"/><path class="cls-10" d="M1054,236.13c-3.17,4.07-7.23,8.06-9.8,12.06"/><path class="cls-10" d="M850.63,247.41c-17.11-.86-24.77-17.39-26.69-34.94-1.71-15.6,3.66-31.32,20.34-32.4,30.59-2,46.94,58.28,16.76,66.13A34.75,34.75,0,0,1,850.63,247.41Z"/><path class="cls-10" d="M849.87,225.28c4.73-3.51,7.37-10.25,7.53-15.82"/><line class="cls-10" x1="845.56" y1="211.72" x2="843.08" y2="204.93"/><line class="cls-10" x1="834.05" y1="214.73" x2="831.78" y2="208.7"/><path class="cls-10" d="M984.68,772.68c2-10,16.22-2.76,20.33.55h0"/><path class="cls-10" d="M717.75,779.52l0,0h0c2.49-4.31,9.13-1.65,12.17,0"/><path class="cls-10" d="M1271.59,778.05c0-.16,0-.3.05-.45a9.59,9.59,0,0,1,.25-1.41c2.13-8.44,13.15-2.21,18.18.38"/><path class="cls-10" d="M1130,534a6.64,6.64,0,0,1,.47-.88c3.64-5.7,12.46-.81,16.9,1.24"/><path class="cls-10" d="M863.78,535.51c.17-.37.33-.71.51-1,3.45-5.93,10.85-1.71,15.39,1"/><path class="cls-10" d="M331.07,670.82s23.32-37.67,28-45"/><path class="cls-10" d="M981.07,732a3.39,3.39,0,0,1-2.47,1.61c-5.52,1.07-9-4.4-11.11-8.44-1.64-3.08-6.19-8.17-2.58-11.48a6.32,6.32,0,0,1,5.85-1.3c4,1.55,7,7.39,8.88,11.17C980.72,725.73,982.33,729.69,981.07,732Z"/><path class="cls-10" d="M961.64,710.39c2.3-.25,3.2.78,4.93,1.72"/><path class="cls-10" d="M1238.84,717c-1.32-.88-2.43-1.59-3-2.09-6.29-5-1.18-11.23,2.16-4A13,13,0,0,1,1238.84,717Z"/><path class="cls-10" d="M1238.84,717c-.07,1.74-.25,3.5-.24,5.21a10.53,10.53,0,0,0,1.27,5.4c1.25,2.08,5.88,4.81,8.32,1.84C1251.39,725.5,1243.69,720.16,1238.84,717Z"/><path class="cls-10" d="M1102.89,958.35a3.47,3.47,0,0,1,.18.33.08.08,0,0,0,0,0c.14.31.22.63.34,1"/><path class="cls-10" d="M1106.27,965.05c-1-2.15-2.06-4.28-3.18-6.33"/><path class="cls-10" d="M1106.27,965.05c2.83-.36,5.73-.5,8.42-.86.4,3.76.57,12.09-1.79,14.66C1110.49,974.42,1108.45,969.68,1106.27,965.05Z"/><path class="cls-10" d="M1101,966.09a32,32,0,0,1,5.31-1"/><path class="cls-10" d="M826.51,954.06a62.1,62.1,0,0,1,3.94,8.78c1.85,5.07,3.26,10.32,4.74,15-2.7-.6-9.12-6.63-13.72-12.31-3-3.68-5.22-7.22-5.17-9"/><path class="cls-10" d="M821.71,965.34c2.6-1.47,5-1.7,7.79-2.31"/><path class="cls-10" d="M1126.5,465.18c.37,6.84-.19,13.82.4,20.8"/><path class="cls-10" d="M1117.81,484.93c2.44-1.68,4.83-4.65,7.19-6.76-8.58,2.37-7.52-9.14-9.66-11.63"/><path class="cls-10" d="M1015.57,374.93c16.29-4.16,29.75-11.24,45.71-16.66a354.15,354.15,0,0,0,34.1-13.79c.11,7.25.36,13.89.36,20.1,0,8.27-.48,15.81-2.36,23.07-3.68,14.21-11.49,21-20.4,25.59a101.73,101.73,0,0,1-10.26,4.39c11.19.61,13.12,8.24,12.43,18.53-.45,7-2.11,15.13-2.91,23.19l-7.45-10.57-5.13,15.37s-5.36-9.34-8.24-12.11c-.87,3.92-2.34,8.19-4.65,11.19-2-5.73-4.81-17.15-4.73-27.18.07-9,2.44-16.85,9.79-18.48a38.83,38.83,0,0,1-12.37-5.09,68,68,0,0,1-18.06-15.87,35,35,0,0,1-5.15-8.77,37.49,37.49,0,0,1-2-12.9c-.05-16.2,7-37.34,18.56-49.38,4.32-4.48,9.28-7.7,14.74-8.93-5.13-1.76-8.9-6.82-10.85-12.25-1.56-4.31-2-8.86-1-12.14"/><path class="cls-10" d="M1095.38,344.48c-1-8.64-7.66-17.82-15.87-23.48-5.43-3.74-11.55-5.95-17.22-5.47,3.58-2.84,5.5-7.28,6.4-12.39,1.44-8.19.26-18.1-1-26l-7,10.32s-6.25-9.71-6.64-10.7c0-.08,0-.1,0-.05"/><path class="cls-10" d="M898.08,716.37l.61-.26h0c12.69-5.61,17.83-15.06,11.33-28.4-1.67-3.42-4.49-8-7-13-4.12-8-7.46-17-3.84-23.67,3.31-6.06,10.45-6.87,15.57-10.35l.16-.1"/><path class="cls-10" d="M839.39,586.9h0c8.14,8.72,5.74,20-8.77,28.76,8.31-4.33,15.24-10.54,24.46-12.93,1.48-.38,3-.72,4.45-1,9.13-1.72,18.31-1.28,26.75,3.29,5.05,2.73,8.93,7.85,12.6,12.17,6.15,7.27,11.09,15.28,15.83,23.5l2.31,4.07c3.83,6.74,8.08,13.54,11.4,20.48,3.56,7.42,6.25,14.55,6.09,23-.22,11-6.13,18.82-15,25.11-4,2.84-8.52,5.17-12.75,7.71-1.8,1.07-7.07,5.55-9.11,5.57-5.41,0-11.4-16-13.15-20S880.83,697.12,879,694a33.3,33.3,0,0,1-2.91-5.62"/><path class="cls-10" d="M898.43,715.52c-3.8-1.86-9.95-16-9.88-20.4.16-8.55,9.55-12.57,12.57-19.85-4.06,1.36-6.69,4.93-10.35,7a67.78,67.78,0,0,1-12.94,5.56c-.59.19-1.17.34-1.76.47-7.2,1.54-14.34-.87-21.24-3.15-8-2.64-13.65-9.68-17.48-16.93-3.61-6.84-7.51-13.54-11.6-20.12-.26-.43-.53-.85-.8-1.28-2.64-4.2-9.6-17.41-9.6-17.41"/><path class="cls-10" d="M826.07,647.9c6.38-7.7,9.19-14.52,6-24.75a38.89,38.89,0,0,0-3.31-7.13,47.73,47.73,0,0,1-2.7-5.46"/><path class="cls-10" d="M859.47,601.35c-4.55-.43-7.34-7.12-9.43-10.52-1.88-3.07-4.45-6.84-5.62-9.7"/><path class="cls-10" d="M1042.73,436.06c8.32-1.36,23.33-3.17,31.06,0"/><path class="cls-10" d="M1037.8,304c8.61-.06,30.07-1,30.07-1"/><path class="cls-10" d="M1022,396.12c13.87-7.35,28.66-13.31,43-19.61,5.57-2.45,11-4.77,16.63-7.13,3.35-1.41,13.27-4.81,13.27-4.81"/><path class="cls-10" d="M1070.57,328.83c3.36,3.67,11.19-1.27,8.64-7.14"/><path class="cls-10" d="M1070.57,328.83a7.82,7.82,0,0,0-1.14-2.19A5,5,0,0,0,1070.57,328.83Z"/><path class="cls-10" d="M1032.87,325.63c-.25,2.82-1,6.32.75,9.14,3.48,5.48,6.41,1.42,10-2.09,2.25,8.48,15.11,10.41,13.88-1.23,2.66,6.34,15.08,3.91,13-2.62"/><path class="cls-10" d="M1040.26,411.91c0-.17-.1-.34-.15-.51-.73-2.4-1.65-6,.63-7.83s6.48-.64,7,2.29c0-3.75,4.12-10.31,8.39-10.17s5.86,6.3,5.35,10.16c4.06-8.38,15.75-3,10.86,6.06"/><path class="cls-10" d="M1082.17,628.81s10,2.65,21.68,5.93c11.18,3.11,24,6.79,31.19,9.25,1.46.5,2.69.94,3.63,1.33,6.59,2.65,16.15,6.49,25.34,10.16,14.2,5.7,27.49,11,27.49,11s-2.33,20.44-2.37,28.37"/><path class="cls-10" d="M1092,608.59c5.33,2.65,12.49,4,19.16,5.61,1.61.41,3.2.82,4.72,1.28,8.16,2.44,16.12,5.45,24.22,8.06,4,1.27,8,2.46,12.11,3.43,3.68.88,16.26,5.92,16.26,5.92-1.51,6.61-3.06,14.39-4.49,22.59-1.48,8.37-2.83,17.17-3.92,25.58-1.22,9.42-2.11,18.34-2.45,25.64,0,0-31.81-9.55-35.3-11.84,0,0,2.86-11.85,6.1-24.91,2.31-9.34,4.82-19.29,6.6-26,.33-1.2.63-2.31.9-3.28,1.09-3.9,2.66-10.45,4.19-17.17,2.61-11.43,5.14-23.33,5.14-23.33s-10.55-2.35-14.2-3c-2.56-.41-7.82-1.37-13.12-2.48-6.23-1.29-12.51-2.81-14.59-3.92"/><path class="cls-10" d="M1112.54,574l9.07,2a91.42,91.42,0,0,1-3.66,18.71c-1.9,6.51-4.32,13-6.76,19.43-2.62,6.9-5.26,13.75-7.34,20.54-.54,1.71-1,3.43-1.47,5.14-1.42,5.44-6.64,21-6.64,21s14.91,4.31,24.43,6.8c2.66.69,5.43,1.46,8.27,2.3a325.06,325.06,0,0,1,31.65,11.11c2.21.91,4.35,1.84,6.4,2.77,7.52,3.4,14.81,8.36,22.15,11.52"/><path class="cls-10" d="M1017,950.07c2.75,3.93,7.86,7.07,11.4,6.5,7.13-1.13,3.27-8.81-.16-11.58-4.73-3.82-9.54-8.28-14.47-11.73-4.27-3-16.7-13.6-17.1-14h0"/><path class="cls-10" d="M1017,950.07c-.66-2.18-1.44-4.19-1.94-5.64A9.22,9.22,0,0,0,1017,950.07Z"/><path class="cls-10" d="M996.63,919.31c.15.59,5.15,19.43,6,24.26s1.65,10.15,3.68,14.63c1.62,3.6,5.88,7.37,9.59,4.4,3.28-2.64,2.41-8,1-12.53"/><path class="cls-10" d="M1033.82,911.14a7.45,7.45,0,0,0-.42-1.61A4.52,4.52,0,0,0,1033.82,911.14Z"/><path class="cls-10" d="M1033.82,911.14c1.49,3.29,6.49,5.44,9.47,5.28,7.75-.42,8.49-8.74,2.62-12.91-4-2.8-9.59-7.14-14-9.34-6.11-3.08-18.91-10.41-18.91-10.41s2.89,9,3.64,11.84a2,2,0,0,0,.07.26c1,4,6.65,29.6,14.17,27C1034,921.86,1034.47,914.9,1033.82,911.14Z"/><path class="cls-10" d="M977,891a1.67,1.67,0,0,0,.06.29"/><path class="cls-10" d="M977,891.27c.67,3.42,4.18,6.89,7.75,7.73,4.63,1.1,6.88-4.39,5.1-8.61-2.2-5.22-10.35-10-14.29-14-2.82-2.87-12.32-10.48-14.6-13.57-.23,1.45,4.9,28.39,8.68,36.53.68,1.49,3.83,6.35,5.92,6C978.76,904.69,977.63,894.52,977,891.27Z"/><path class="cls-10" d="M998.05,853.23a7.9,7.9,0,0,0-1.33-3.07A9.64,9.64,0,0,0,998.05,853.23Z"/><path class="cls-10" d="M998.05,853.23c2.27,3.69,6.82,7.61,10.19,6.3,6.32-2.44,1.86-11.33-.87-14.57-7-8.38-20.71-16-27.52-24.68,3.59,11,5.59,28.11,9.46,37.6.94,2.3,3.62,9.16,7,9S999.36,858.17,998.05,853.23Z"/><path class="cls-10" d="M1390.26,967.72c2,1.69,2.36,5.38,1.26,7.76-1.18,2.55-4,2.81-6.29,1-3.48-2.77-3.57-7-3.54-11.11,0-1,1.64-11.72,1.5-11.7-2.71.26-10.2,1.06-10.2,1.06"/><path class="cls-10" d="M1291.89,882c-5.05,1.56-12.32-1.81-15.49-5.2-1.5-1.61-4.19-4.78-5.47-6.46"/><path class="cls-10" d="M1291.89,882a9,9,0,0,1,1.77-.81A6.32,6.32,0,0,1,1291.89,882Z"/><path class="cls-10" d="M1270.93,870.31c3.76,8.23,2,17.18-3.37,24.5,4.71-1,10.07-1.67,14.82.78,4.34,2.25,6.84,6.79,9.94,10.25-3.63-6.31-8.09-19.41-.43-23.87"/><path class="cls-10" d="M1270.93,870.31c-.68-.9-1-1.36-.45-.94C1270.63,869.68,1270.79,870,1270.93,870.31Z"/><path class="cls-10" d="M1325.76,947.86c-1.12-2.13-1.62-5-2.2-7-1.88-6.44-2.24-14.08-2.21-20.81.05-11.48-2.32-28-15.85-30.73-5.66-1.16-10.75,2.46-12.62,7.75-.92,2.63-1.24,6.93,0,9.46"/><path class="cls-10" d="M1325.76,947.86a17.67,17.67,0,0,1,2.16,2.37A5.37,5.37,0,0,1,1325.76,947.86Z"/><path class="cls-10" d="M1292.9,906.55c-6.58-5.91-20.72-2.27-20.71,7.38a10.46,10.46,0,0,0,6.28,9.42c8,3.61,17.06,4.35,25,8.91a109.9,109.9,0,0,1,15.69,10.3c2,1.66,4.54,3.37,6.62,5.3"/><line class="cls-10" x1="1292.9" y1="906.55" x2="1292.9" y2="906.56"/><path class="cls-10" d="M1292.9,906.56a3.75,3.75,0,0,0,1.46,1.63A8.46,8.46,0,0,0,1292.9,906.56Z"/><path class="cls-10" d="M1269.44,866.83c0,2.39,7.65,1.42,8.44,1.26,3.43-.73,6.36-1.56,8-5,4-8-4-15.57-9.54-19.85-1.82-1.39-27-16.06-25.51-18.28"/><path class="cls-10" d="M1239.42,843.86c1.69,7.86,1,16.28,3.16,24,1.18,4.34,2.45,7.85,5.72,10.92,10.76,10.05,21.06-2.27,21.14-12h0"/><path class="cls-10" d="M314,520.72c-.26-3.71.82-13.94,4-16.36s4.27,1.11,4.22,4c2.16-1.39,7.11-4.26,9.56-2.28,2.81,2.26.22,4.49-1.85,5.73C324.68,515,319.19,517.86,314,520.72Z"/><path class="cls-10" d="M304,596.66c-8.22,4.84-26.55,10.62-35.43,14-5.24,2-11.75,3.39-15.7,7.36-4.32,4.34-5.47,14.34-1.32,19.41,6.17,7.54,19.52-2,25.84-5-4.67,7,1.19,13.37,7.87,16,12.33,4.78,18.45-6.7,18.43-17.6C303.69,626,303.76,610.64,304,596.66Z"/><path class="cls-10" d="M304,596.66c13.29,5.39,32.92,11.91,46.26,5.25,6-3,11.7-8.77,11.09-15.94-.36-4.3-3.16-7.66-8-7.37,4.44-5.07,2.56-13.94-4.18-15.77-4.89-1.33-12.57,2.24-16.05,5.3C323.47,576.6,311.53,592.24,304,596.66Z"/><path class="cls-10" d="M304,596.66c.16-9.37.41-18.14.77-22.71.44-5.68-.61-20.38-7-22.3-9-2.73-11.06,10.71-10.74,16.24-1.66-5.22-9.78-3.43-13.26-1.08a12.36,12.36,0,0,0-5.62,11.29c.77,11.46,31.46,16.8,35.81,18.56h0"/></g></svg>