<svg xmlns="http://www.w3.org/2000/svg" viewBox="0 0 1600 1200"><defs><style>.cls-1{fill:#c0e3e9;}.cls-1,.cls-10{stroke:#000;stroke-linecap:round;stroke-linejoin:round;stroke-width:3px;}.cls-2{fill:#ffdf8c;}.cls-3{fill:#e7b45b;}.cls-4{fill:#ecebe6;}.cls-5{fill:#f6d4e5;}.cls-6{fill:#eeabc9;}.cls-7{fill:#01c67a;}.cls-8{fill:#d794b6;}.cls-9{fill:#bf8c4b;}.cls-10{fill:none;}</style></defs><g id="saving"><path class="cls-1" d="M1129.71,469c-9.28-66.68-73.07-172.89-207.45-142.09-35.71-38.3-119-37-169.76-17.3C701,329.57,669.1,383.69,645,430.81a132.67,132.67,0,0,0-10.24,26.81,88.77,88.77,0,0,0-44.09,4.59,111.12,111.12,0,0,0-19,9.14C532.08,404.23,419.88,392,359.6,438.73c-37,28.72-51.55,68.25-49.45,113.72,1,20.86,6.55,36.88,14.52,52q-6.19,6.63-12.06,14.21c-45.48,59-80.29,178.76-29.64,245.19q2.94,3.84,6.16,7.62c-28.06,15.73-51.67,47.92-56.75,78.79A127.67,127.67,0,0,0,230.87,965h1097c-.75-44-32.29-91-64.32-113.46-10.17-7.14-22.65-10.63-36.06-11.79,6-14.54,10.28-30.42,10.66-45.77,35.55-9.12,71.58-29.84,91.59-51.52,52-56.38,50.2-175.12,8.21-227C1290.92,457.38,1203.25,435.47,1129.71,469Z"/><path class="cls-2" d="M1254.7,572c3.73,5.62,6.89,13.09,9.31,21.26,2.26,7.62-2.26,22.27-5.42,30.07-4.78,11.77-19.51,38.67-26.73,49.56-17.27,26-26.28,44.52-37.75,73.65-5.35,13.6-9.57,35.22-10.46,49.86-3.07,50.86-3.13,103.38-3.09,154.28,0,16.39.78,30.67-.1,47-9.45.51-66.79,0-66.79,0s7.45-7.51,7.62-15c.38-16.66.87-130.39,1.34-154.26.19-9.68-1-35-1-35L1105,792s-2.75,33.64-3.07,51.72c-.46,25.46-3,89.1-3,114.64,0,8.57-.21,39.28-.21,39.28h-72s8.91-13.47,9.26-18c.54-7.05.82-17.49.82-24.44,0-34.14,2.26-68.22,2.6-102.25.76-75.83,20.25-208.67,53.61-283.31a104.76,104.76,0,0,0,3.51,12h0a139.31,139.31,0,0,0,22.38,51.12h0c-5,17-9,45.67-10.82,60.16a11.2,11.2,0,0,0,7.35,12l24,8.57a10,10,0,0,0,11.77-4c1.44-2.22,3.14-4.83,5-7.7,7.39-11.44,17.41-27,24.92-38.61,3.77-5.85,6.91-10.7,8.74-13.5,6-9.16,25.54-38,36.41-52.28,1.88-2.47,3.51-4.51,4.76-5.93,5.49-6.27,10.49-21.62,7.3-29.63C1244.45,560.84,1250,565,1254.7,572Z"/><path class="cls-3" d="M1238.33,561.86c3.19,8-1.81,23.36-7.3,29.63-1.25,1.42-2.88,3.46-4.76,5.93h0a132,132,0,0,0-15.91-39.74l6.11-1.84s7-6.37,10.39-9l1-.79c.42.54.82,1.08,1.22,1.63A135.55,135.55,0,0,1,1238.33,561.86Z"/><path class="cls-3" d="M1227.88,546.05l-1,.79c-3.42,2.62-10.39,9-10.39,9l-6.11,1.84c-15.54-25.5-40-44.73-71.5-49.45l.1-.73s6.58-7.08,9.52-9.25l0-1.24c29.27.65,51.25,16.6,70.27,38C1222,538.62,1225.05,542.31,1227.88,546.05Z"/><path class="cls-3" d="M1151.6,572.9c-6.22,2.69-10.32,8.34-5.81,15.82,4,6.54,12.22,11.06,22.34,10.31-1.12-1.74-2.16-3.33-3-4.52C1161.54,589.07,1156.15,580.36,1151.6,572.9Zm74.65,24.51h0c-10.87,14.29-30.41,43.12-36.41,52.28-1.83,2.8-5,7.65-8.74,13.5a37.47,37.47,0,0,0-6.67-18.77c-8.53-12.41-25.63-13.8-36.87-4.81A149.23,149.23,0,0,1,1122,624.26h0a133.87,133.87,0,0,1-25.47-42.58h0a104.76,104.76,0,0,1-3.51-12v0a91.16,91.16,0,0,1-2.18-27.93c.82-10,4.06-18.33,9.1-24.94v0c5.61-6.48,19.85-10.67,34.53-9.12,1.46.16,2.91.34,4.34.56,31.49,4.72,56,23.95,71.5,49.45A132,132,0,0,1,1226.25,597.41Z"/><path class="cls-2" d="M1137.58,639.62c11.24-9,28.34-7.6,36.87,4.81a37.47,37.47,0,0,1,6.67,18.77c-7.51,11.61-17.53,27.17-24.92,38.61-8.55,4.09-21.1,2.12-26.6-4.95s-6.62-15-6.19-24a55,55,0,0,1,8-26.3A27,27,0,0,1,1137.58,639.62Z"/><path class="cls-3" d="M1168.13,599c-10.12.75-18.38-3.77-22.34-10.31-4.51-7.48-.41-13.13,5.81-15.82,4.55,7.46,9.94,16.17,13.57,21.61C1166,595.7,1167,597.29,1168.13,599Z"/><path class="cls-4" d="M1114.08,373a53.21,53.21,0,0,0,7.35-.7c5.44-1,11.13-4.81,4.45-9-1-.66-6-.78-11.63-1.12q.16-5.75.57-11.48a74.07,74.07,0,0,0-8.7-.09c-5.62.32-10.56,1.47-11.56,4.14-1.49,4,4,5.75,10.84,6.66-.24,3.85-.37,7.7-.24,11.44C1108.18,373.08,1111.22,373.14,1114.08,373ZM977.92,353.15a44.85,44.85,0,0,0-4.89,5.41c-9,11.72-10.61,26.84-1.69,26.65C977.49,385.08,981.08,365.07,977.92,353.15Zm29.29-5.71a28,28,0,0,0-10,8.24C988.86,366.29,987,383,994.67,383s13.26-3.35,17.41-16.28A17.81,17.81,0,0,0,1007.21,347.44Zm26.5.19c-10,6-20.12,29.35-10.76,32.65,9.61,3.38,15.67-9.45,16.88-18.39C1040.54,356.58,1037.82,351.09,1033.71,347.63Zm25.69.61a10,10,0,0,0-2.76,1.92c-3.87,3.95-9.42,14.65-8.06,23,.5,3.16,6.36,5.43,11,1.15C1065,369.39,1065.28,355.27,1059.4,348.24Zm100.06-20.9v69.55a11.05,11.05,0,0,1-11,11.05H928c-6.15,6.58-27.77,33.77-33.33,39.05,0,0-2.48-25.95-3.31-39.05H876.46a11.06,11.06,0,0,1-11.06-11.05V327.34a11.06,11.06,0,0,1,11.06-11.06h272A11.06,11.06,0,0,1,1159.46,327.34ZM917.33,356.21c3.22-.71,7-.52,9.7-1.37-2.76-6.77-18.12-21.85-18.12-21.85A229.82,229.82,0,0,0,893,355.59c2.78,0,5.64-.39,8.4-.41,0,0-.48,25.87-.48,36,.39.35,10.23-.47,17.46-.47C918.36,384.93,917.33,356.21,917.33,356.21Z"/><path class="cls-3" d="M1148.49,497l0,1.24c-2.94,2.17-9.52,9.25-9.52,9.25l-.1.73c-1.43-.22-2.88-.4-4.34-.56-14.68-1.55-28.92,2.64-34.53,9.12,9.62-12.63,25.71-19.11,43.64-19.75C1145.26,497,1146.89,497,1148.49,497Z"/><path class="cls-4" d="M1125.88,363.35c6.68,4.18,1,8-4.45,9a53.21,53.21,0,0,1-7.35.7c0-3.62.05-7.22.17-10.81C1119.91,362.57,1124.84,362.69,1125.88,363.35Z"/><path d="M1122,624.25h0a61.42,61.42,0,0,0-3.08,8.53h0a139.31,139.31,0,0,1-22.38-51.12A133.87,133.87,0,0,0,1122,624.25Z"/><path class="cls-4" d="M1114.82,350.75q-.4,5.73-.57,11.48c-2.9-.17-6-.4-8.85-.77.19-3.62.49-7.25.72-10.8A74.07,74.07,0,0,1,1114.82,350.75Z"/><path class="cls-4" d="M1114.25,362.23c-.12,3.59-.17,7.19-.17,10.81-2.86.1-5.9,0-8.92-.14-.13-3.74,0-7.59.24-11.44C1108.26,361.83,1111.35,362.06,1114.25,362.23Z"/><path class="cls-4" d="M1106.12,350.66c-.23,3.55-.53,7.18-.72,10.8-6.82-.91-12.33-2.68-10.84-6.66C1095.56,352.13,1100.5,351,1106.12,350.66Z"/><path class="cls-4" d="M1059.4,348.24c5.88,7,5.55,21.15.19,26.07-4.65,4.28-10.51,2-11-1.15-1.36-8.35,4.19-19.05,8.06-23A10,10,0,0,1,1059.4,348.24Z"/><path class="cls-4" d="M1033.71,347.63c4.11,3.46,6.83,8.95,6.12,14.26-1.21,8.94-7.27,21.77-16.88,18.39C1013.59,377,1023.74,353.67,1033.71,347.63Z"/><path class="cls-4" d="M1007.21,347.44a17.81,17.81,0,0,1,4.87,19.26c-4.15,12.93-9.74,16.27-17.41,16.28s-5.81-16.69,2.56-27.3A28,28,0,0,1,1007.21,347.44Z"/><path class="cls-5" d="M1001.17,759.89c11.69,31.51,10.76,78.08-28.59,85-24.46.62-32.27-33.28-32.27-58s5.51-47.95,27.73-56.18v-.09C986.91,733.73,994.24,741.28,1001.17,759.89Z"/><path class="cls-4" d="M977.92,353.15c3.16,11.92-.43,31.93-6.58,32.06-8.92.19-7.27-14.93,1.69-26.65A44.85,44.85,0,0,1,977.92,353.15Z"/><path class="cls-6" d="M845.54,637.42c21.31,2.13,35.18,6.34,43.82,12.81,13.26,9.9,25.61,24.54,30.8,42.72A361.81,361.81,0,0,1,928.77,731c8-.52,31.84-1.54,38.35-.54l.93.15v.09c-22.22,8.23-27.73,31.48-27.73,56.18s7.81,58.59,32.27,58c-6.93,1.21-21.85,1.64-37.31,1.78-1.41,9.85-3.68,18.59-7,25.67a101.67,101.67,0,0,1-43.3,45.54,123.7,123.7,0,0,1-35.23,12.83c-4.24.87-8.55,1.53-12.89,2,4.5,12.81,9,19.86,13,32.86,5.86,18.82,7.57,32.51-5.88,32.51s-18.59-10-36.15-42.68c-2.93-5.46-7.46-13.89-11.47-21.34-33.24.79-82.87,2.13-98.16,2.18a668.64,668.64,0,0,1-71.44-3.66q-17.73-1.81-35.46-4.43c-3.28-.48-6.57-1-9.86-1.49l-.87-.32c-4.12,11.18-10,24.59-13.65,33.77-4.21,10.56-7.23,22.92-15.41,31.19-5.8,5.86-12.92,8.91-19.51,2.49-9.57-9.32-1.55-27.5.62-38.82,2-10.43,6.11-27.2,9.35-39.87a107,107,0,0,1-26.56-19c-12-11.47-17.78-28.48-23-44.42,3.33-41.4,4.23-105.49,7.51-128.48,0,0,29.74-12.64,45.48-20.58,22.27-11.21,44.93-23,65.57-35.43a64,64,0,0,0,10.75-8.6s9.18.22,23,.52h0c16.85.36,40.57.83,62.79,1.14,25.5.35,49,.5,57.95,0L765.16,650c-14.92-.73-41.36-1-41.36-1h0a83.41,83.41,0,0,0,12.58-13.83l.73.54h54.14c2.7-16.08,10.15-32.45,21.67-44.08,6.13-6.2,10-6.34,15.41,1.12,7.83,10.85,11.46,23.19,15,35.86C844.17,631.48,844.94,634.67,845.54,637.42Z"/><path class="cls-7" d="M927,354.84c-2.69.85-6.48.66-9.7,1.37,0,0,1,28.72,1,34.46-7.23,0-17.07.82-17.46.47,0-10.09.48-36,.48-36-2.76,0-5.62.41-8.4.41A229.82,229.82,0,0,1,908.91,333S924.27,348.07,927,354.84Z"/><path class="cls-8" d="M902.49,964.19c5.85,18.84,7.57,29.15-5.9,29.15s-18.57-10-36.13-42.69l-6.52-12.11A121.23,121.23,0,0,0,886.55,922h0C892,937,897.58,948.42,902.49,964.19Z"/><path class="cls-8" d="M900.64,592c3,16-1.77,35.46-10,57.89l-1.26.32c-8.64-6.47-22.51-10.68-43.82-12.81-.6-2.75-1.37-5.94-2.18-8.78,6.34-10.73,17.14-21.5,30.78-32.68C880,591.17,898.09,578.39,900.64,592Z"/><path d="M886.56,922h0a121.23,121.23,0,0,1-32.61,16.58l-4.23-7.86a123.7,123.7,0,0,0,35.23-12.83l.43.76C885.77,919.75,886.16,920.86,886.56,922Z"/><path d="M765.16,650l.27,10.24c-8.92.48-32.45.33-57.95,0A83,83,0,0,0,723.8,649h0S750.24,649.31,765.16,650Z"/><path class="cls-3" d="M675,569.75c-9.33,2.82-17.86,8.2-16,18.55,1.59,8.67,13.36,9.63,24.31,8.29-2-7.15-4.47-14.14-6.64-21.45C676.34,573.81,675.72,571.9,675,569.75Zm77.11,16.73a83.48,83.48,0,0,1-44.65,73.78c-22.22-.31-45.94-.78-62.79-1.14h0c-3-1-10.12-6.21-13.9-10.55l-.28-.2c.51-.71,1-1.43,1.45-2.16,6.47-10.17,6.88-23.17.43-34.9a54.35,54.35,0,0,0-5.88-8.68c-3-3.57-6.66-6.48-10.23-6.08-5,.58-6.62,6.22-9.06,9.7a16.39,16.39,0,0,1-1.57,1.91q-1.59-4.15-2.78-8.38c-.57-2-1.07-4-1.5-6a83.28,83.28,0,0,1-.84-31.43,74.5,74.5,0,0,1,21.23-40.67,84.53,84.53,0,0,1,14.77-11.77l-.08-.18a83.33,83.33,0,0,1,115.69,76.73Z"/><path class="cls-3" d="M676.73,575.14c2.17,7.31,4.6,14.3,6.64,21.45-11,1.34-22.72.38-24.31-8.29-1.9-10.35,6.63-15.73,16-18.55C675.72,571.9,676.34,573.81,676.73,575.14Z"/><path class="cls-9" d="M630.78,648.57c3.78,4.34,10.9,9.58,13.9,10.55-13.78-.3-23-.52-23-.52a72,72,0,0,0,8.78-10.23Z"/><path class="cls-9" d="M636.44,509.75l.08.18a84.53,84.53,0,0,0-14.77,11.77,74.5,74.5,0,0,0-21.23,40.67l-.54-.1-11.66,4.79-.43-.1A83.41,83.41,0,0,1,636.44,509.75Z"/><path class="cls-2" d="M492.41,851.69c-.36,4.48-.75,8.69-1.17,12.56-3.61,32.9-12.13,88.29-14.91,104.92a15.2,15.2,0,0,0,1.78,10l5.26,9.24a4.7,4.7,0,0,1-3.87,7.36H458.86a17.2,17.2,0,0,1-12.78-5.7c-5-5.53-12.17-14.23-15.83-22-1.53-3.27-3.82-6.59-5.61-10l-2.05,12.17a11.88,11.88,0,0,0,1.21,7.52l5.27,10a3.75,3.75,0,0,1-3.21,5.7H402.52a14.52,14.52,0,0,1-10.72-5.31,142.39,142.39,0,0,0-12-13.1c-8.33-7.81-8.41-13.57-7.56-25.1.82-11.14,10.17-84.49,12.53-113.79s3.86-102.08,11-122.85c8.25-23.92,20.08-43.35,43.13-52.69l.36-.66A26.5,26.5,0,0,0,453,663.51l.36,6c11.56-3.43,49.72-14.89,64.46-21,11.88-4.89,35.38-15.21,46.68-21.36,9.79-5.31,13.92-28.67,21.84-29.15a79.55,79.55,0,0,0,2.14,8.22c1.81,5.72,3.83,10.54,3.83,10.54,4.43-1.94,9.81-4.94,13.29-8.68a16.39,16.39,0,0,0,1.57-1.91c2.44-3.48,4.1-9.12,9.06-9.7,3.57-.4,7.2,2.51,10.23,6.08a54.35,54.35,0,0,1,5.88,8.68c6.45,11.73,6,24.73-.43,34.9-.46.73-.94,1.45-1.45,2.16a72,72,0,0,1-8.78,10.23A64,64,0,0,1,611,667.2c-20.64,12.38-43.3,24.22-65.57,35.43-15.74,7.94-45.48,20.58-45.48,20.58C496.64,746.2,495.74,810.29,492.41,851.69Z"/><path d="M626.74,932.55l0,.25c-.47,1.16-.93,2.29-1.4,3.41-12,.42-24,.56-36.16.47l-.24-.07c.76-2.77,1.55-5.63,2.36-8.49Q609,930.72,626.74,932.55Z"/><path class="cls-8" d="M625.32,936.21c-3.56,8.43-7.41,16.1-10.09,22.38-4.37,10.22-7.75,22.27-15.53,30-5.5,5.48-12,8.14-17.55,1.45-8-9.69.31-27.2,2.88-38.27,1-4.24,2.36-9.55,3.89-15.19l.24.07C601.28,936.77,613.31,936.63,625.32,936.21Z"/><path class="cls-9" d="M602.86,599.78q1.18,4.23,2.78,8.38c-3.48,3.74-8.86,6.74-13.29,8.68,0,0-2-4.82-3.83-10.54l.38-.12,13.65-6.31Z"/><path class="cls-9" d="M602.86,599.78l-.31.09-13.65,6.31-.38.12a79.55,79.55,0,0,1-2.14-8.22l5.8-.33,9.18-4C601.79,595.8,602.29,597.8,602.86,599.78Z"/><path class="cls-9" d="M601.36,593.8l-9.18,4-5.8.33a80.45,80.45,0,0,1-.75-8.58c0-1,0-2,0-3A82.59,82.59,0,0,1,587.89,567l.43.1L600,562.27l.54.1A83.28,83.28,0,0,0,601.36,593.8Z"/><path class="cls-2" d="M585.63,589.5a80.45,80.45,0,0,0,.75,8.58c-7.92.48-12,23.84-21.84,29.15-11.3,6.15-34.8,16.47-46.68,21.36-14.74,6.07-52.9,17.53-64.46,21l-.36-6a20.81,20.81,0,0,0,10.8-3.71c.34-.23.69-.48,1-.74a28.44,28.44,0,0,0,9.59-12.63c9.21-3.92,18.57-8.06,27.15-12.06C521.48,625.13,564.24,598.92,585.63,589.5Z"/><path class="cls-2" d="M433,589c26.05-10.41,51.72,31.06,41.45,57.42a28.44,28.44,0,0,1-9.59,12.63c-.34.26-.69.51-1,.74a20.81,20.81,0,0,1-10.8,3.71,26.5,26.5,0,0,1-13.78-3.58,44.19,44.19,0,0,1-5-3.15C414.14,642.4,408.39,598.84,433,589Z"/><path class="cls-10" d="M611,626c5.22-4.87,14.34-11.68,15.53-23.34"/><path class="cls-10" d="M621.72,636.73s10.23-9.25,12.17-22.26"/><path class="cls-10" d="M697.41,593.68a87.79,87.79,0,0,1-14,2.91c-11,1.34-22.72.38-24.31-8.29-1.9-10.35,6.63-15.73,16-18.55a77.56,77.56,0,0,1,13.38-2.62"/><path class="cls-10" d="M686.51,610a134.36,134.36,0,0,0-3.14-13.38c-2-7.15-4.47-14.14-6.64-21.45-.39-1.33-1-3.24-1.71-5.39-2.22-6.67-5.33-15.5-5.33-15.5"/><path class="cls-10" d="M437.43,772.16c-.81,15.87-1.46,54-4.33,93.9-2.75,38.23-11.13,78.65-11.18,82.8a19.6,19.6,0,0,0,2.72,9.18c1.79,3.41,4.08,6.73,5.61,10,3.66,7.81,10.84,16.51,15.83,22a17.2,17.2,0,0,0,12.78,5.7H479.5a4.7,4.7,0,0,0,3.87-7.36l-5.26-9.24a15.2,15.2,0,0,1-1.78-10c2.78-16.63,11.3-72,14.91-104.92.42-3.87.81-8.08,1.17-12.56,3.33-41.4,4.23-105.49,7.51-128.48,0,0,29.74-12.64,45.48-20.58,22.27-11.21,44.93-23,65.57-35.43a64,64,0,0,0,10.75-8.6,72,72,0,0,0,8.78-10.23c.51-.71,1-1.43,1.45-2.16,6.47-10.17,6.88-23.17.43-34.9a54.35,54.35,0,0,0-5.88-8.68c-3-3.57-6.66-6.48-10.23-6.08-5,.58-6.62,6.22-9.06,9.7a16.39,16.39,0,0,1-1.57,1.91c-3.48,3.74-8.86,6.74-13.29,8.68,0,0-2-4.82-3.83-10.54a79.55,79.55,0,0,1-2.14-8.22c-7.92.48-12,23.84-21.84,29.15-11.3,6.15-34.8,16.47-46.68,21.36-14.74,6.07-52.9,17.53-64.46,21l-3.38,1"/><path class="cls-10" d="M438.9,660.59c-23,9.34-34.88,28.77-43.13,52.69-7.16,20.77-8.66,93.55-11,122.85S373,938.78,372.22,949.92c-.85,11.53-.77,17.29,7.56,25.1a142.39,142.39,0,0,1,12,13.1,14.52,14.52,0,0,0,10.72,5.31h23.34a3.75,3.75,0,0,0,3.21-5.7l-5.27-10a11.88,11.88,0,0,1-1.21-7.52L424.64,958"/><path class="cls-10" d="M585.63,589.5c-21.39,9.42-64.15,35.63-84,44.87-8.58,4-17.94,8.14-27.15,12.06"/><path class="cls-10" d="M453,663.51a20.81,20.81,0,0,0,10.8-3.71c.34-.23.69-.48,1-.74a28.44,28.44,0,0,0,9.59-12.63C484.73,620.07,459.06,578.6,433,589c-24.62,9.83-18.87,53.39,1.22,67.77a44.19,44.19,0,0,0,5,3.15A26.5,26.5,0,0,0,453,663.51Z"/><path class="cls-10" d="M448.6,633.08c7.09,5.46,16.48,1.69,19.48-3.37"/><path class="cls-10" d="M460.31,616.84a20.15,20.15,0,0,0-1.82-4.74"/><path class="cls-10" d="M644.69,659.12c16.85.36,40.57.83,62.79,1.14,25.5.35,49,.5,57.95,0L765.16,650c-14.92-.73-41.36-1-41.36-1"/><path class="cls-10" d="M621.72,658.6s9.18.22,23,.52"/><path class="cls-10" d="M878.29,747.16c-.89,8.91-11.37,16.53-19.63,16.44-11.28-.13-17.19-7.7-19.64-14.61"/><path class="cls-10" d="M791.25,635.74H737.11"/><path class="cls-10" d="M836.82,932.68c4.34-.47,8.65-1.13,12.89-2a123.7,123.7,0,0,0,35.23-12.83,101.67,101.67,0,0,0,43.3-45.54c3.35-7.08,5.62-15.82,7-25.67,15.46-.14,30.38-.57,37.31-1.78,39.35-6.89,40.28-53.46,28.59-85-6.93-18.61-14.26-26.16-33.12-29.27l-.93-.15c-6.51-1-30.37,0-38.35.54A361.81,361.81,0,0,0,920.16,693c-5.19-18.18-17.54-32.82-30.8-42.72-8.64-6.47-22.51-10.68-43.82-12.81"/><path class="cls-10" d="M581.42,926.63c3.29.52,6.58,1,9.86,1.49q17.75,2.6,35.46,4.43a668.64,668.64,0,0,0,71.44,3.66c15.29-.05,64.92-1.39,98.16-2.18"/><path class="cls-10" d="M589.16,936.68c12.12.09,24.15,0,36.16-.47h0"/><path class="cls-10" d="M492.4,851.67v0c5.2,15.94,11,32.95,23,44.42a107,107,0,0,0,26.56,19"/><line class="cls-10" x1="966.25" y1="795.99" x2="966" y2="781.12"/><path class="cls-10" d="M972.58,844.86c-24.46.62-32.27-33.28-32.27-58s5.51-47.95,27.73-56.18"/><path class="cls-10" d="M580.55,926.31c-4.12,11.18-10,24.59-13.65,33.77-4.21,10.56-7.23,22.92-15.41,31.19-5.8,5.86-12.92,8.91-19.51,2.49-9.57-9.32-1.55-27.5.62-38.82,2-10.43,6.11-27.2,9.35-39.87"/><path class="cls-10" d="M626.72,932.8c-.47,1.16-.93,2.29-1.4,3.41-3.56,8.43-7.41,16.1-10.09,22.38-4.37,10.22-7.75,22.27-15.53,30-5.5,5.48-12,8.14-17.55,1.45-8-9.69.31-27.2,2.88-38.27,1-4.24,2.36-9.55,3.89-15.19.76-2.77,1.55-5.63,2.36-8.49"/><path class="cls-10" d="M836.82,932.68c4.5,12.81,9,19.86,13,32.86,5.86,18.82,7.57,32.51-5.88,32.51s-18.59-10-36.15-42.68c-2.93-5.46-7.46-13.89-11.47-21.34-4.65-8.6-8.6-15.93-8.6-15.93"/><path class="cls-10" d="M885.37,918.61c.4,1.14.79,2.25,1.19,3.35,5.43,15,11,26.46,15.93,42.23,5.85,18.84,7.57,29.15-5.9,29.15s-18.57-10-36.13-42.69l-6.52-12.11-4.23-7.86h0"/><line class="cls-10" x1="986.41" y1="795.08" x2="986.16" y2="780.19"/><path class="cls-10" d="M853.94,938.54A121.23,121.23,0,0,0,886.55,922"/><path class="cls-10" d="M789.63,669.05c-.85-8,.09-21.6,1.08-29.62.16-1.23.33-2.46.54-3.69,2.7-16.08,10.15-32.45,21.67-44.08,6.13-6.2,10-6.34,15.41,1.12,7.83,10.85,11.46,23.19,15,35.86.81,2.84,1.58,6,2.18,8.78.84,3.75,1.4,6.66,1.4,6.66"/><path class="cls-10" d="M815,680.09c-2.67-14-3.54-36.34-3.52-50.59,0-9.75,1.12-21.25,5.23-30.24"/><path class="cls-10" d="M843.36,628.64c6.34-10.73,17.14-21.5,30.78-32.68,5.83-4.79,24-17.57,26.5-3.94,3,16-1.77,35.46-10,57.89"/><path class="cls-10" d="M860.28,638.44c9.43-17.4,19.59-32.14,30.92-43.35"/><path class="cls-10" d="M586.38,598.08a80.45,80.45,0,0,1-.75-8.58c0-1,0-2,0-3a83.22,83.22,0,1,1,121.9,73.78"/><path class="cls-10" d="M605.64,608.16q-1.59-4.15-2.78-8.38c-.57-2-1.07-4-1.5-6a83.28,83.28,0,0,1-.84-31.43,74.5,74.5,0,0,1,21.23-40.67,84.53,84.53,0,0,1,14.77-11.77"/><path class="cls-10" d="M630.78,648.57c3.78,4.34,10.9,9.58,13.9,10.55h0"/><line class="cls-10" x1="588.32" y1="567.06" x2="599.98" y2="562.27"/><line class="cls-10" x1="588.9" y1="606.18" x2="602.55" y2="599.87"/><line class="cls-10" x1="592.18" y1="597.75" x2="601.36" y2="593.8"/><path class="cls-10" d="M450.11,619.4a20.5,20.5,0,0,0-1.82-4.75"/><line class="cls-10" x1="1154.14" y1="704.29" x2="1153.06" y2="703.67"/><path class="cls-10" d="M1122,624.26a61.42,61.42,0,0,0-3.08,8.53c-5,17-9,45.67-10.82,60.16a11.2,11.2,0,0,0,7.35,12l24,8.57a10,10,0,0,0,11.77-4c1.44-2.22,3.14-4.83,5-7.7,7.39-11.44,17.41-27,24.92-38.61,3.77-5.85,6.91-10.7,8.74-13.5,6-9.16,25.54-38,36.41-52.28,1.88-2.47,3.51-4.51,4.76-5.93,5.49-6.27,10.49-21.62,7.3-29.63,6.12-1,11.69,3.13,16.37,10.18,3.73,5.62,6.89,13.09,9.31,21.26,2.26,7.62-2.26,22.27-5.42,30.07-4.78,11.77-19.51,38.67-26.73,49.56-17.27,26-26.28,44.52-37.75,73.65-5.35,13.6-9.57,35.22-10.46,49.86-3.07,50.86-3.13,103.38-3.09,154.28,0,16.39.78,30.67-.1,47-9.45.51-66.79,0-66.79,0s7.45-7.51,7.62-15c.38-16.66.87-130.39,1.34-154.26.19-9.68-1-35-1-35L1105,792s-2.75,33.64-3.07,51.72c-.46,25.46-3,89.1-3,114.64,0,8.57-.21,39.28-.21,39.28h-72s8.91-13.47,9.26-18c.54-7.05.82-17.49.82-24.44,0-34.14,2.26-68.22,2.6-102.25.76-75.83,20.25-208.67,53.61-283.31"/><path class="cls-10" d="M1181.12,663.2a37.47,37.47,0,0,0-6.67-18.77c-8.53-12.41-25.63-13.8-36.87-4.81a27,27,0,0,0-6.13,7,55,55,0,0,0-8,26.3c-.43,9,.62,16.85,6.19,24s18.05,9,26.6,4.95"/><line class="cls-10" x1="1151.62" y1="659.41" x2="1153.25" y2="655.68"/><line class="cls-10" x1="1139.69" y1="656.07" x2="1141.31" y2="652.34"/><path class="cls-10" d="M1149.19,671.11c-1.71,1.93-6.47,1.24-8.68-.1"/><path class="cls-10" d="M1096.56,581.67A133.87,133.87,0,0,0,1122,624.25h0a149.23,149.23,0,0,0,15.55,15.36h0"/><path class="cls-10" d="M1100,516.8c-5,6.61-8.28,14.9-9.1,24.94a91.16,91.16,0,0,0,2.18,27.93v0a104.76,104.76,0,0,0,3.51,12"/><path class="cls-10" d="M1238.33,561.86a135.55,135.55,0,0,0-9.23-14.18c-.4-.55-.8-1.09-1.22-1.63-2.83-3.74-5.89-7.43-9.12-11.07-19-21.38-41-37.33-70.27-38-1.6,0-3.23,0-4.88,0-17.93.64-34,7.12-43.64,19.75"/><path class="cls-10" d="M1096.56,581.66h0a139.31,139.31,0,0,0,22.38,51.12"/><path class="cls-10" d="M1226.25,597.41a132,132,0,0,0-15.91-39.74c-15.54-25.5-40-44.73-71.5-49.45-1.43-.22-2.88-.4-4.34-.56-14.68-1.55-28.92,2.64-34.53,9.12v0"/><path class="cls-10" d="M1179.8,596a34.47,34.47,0,0,1-11.67,3.08c-10.12.75-18.38-3.77-22.34-10.31-4.51-7.48-.41-13.13,5.81-15.82a21.52,21.52,0,0,1,11.66-1.53"/><path class="cls-10" d="M1143.09,558.78s3.81,6.38,8.51,14.12c4.55,7.46,9.94,16.17,13.57,21.61.8,1.19,1.84,2.78,3,4.52,3.33,5.12,7.31,11.37,7.31,11.37"/><path class="cls-10" d="M1259.15,588.7a40.34,40.34,0,0,0,1.12-4.49"/><path class="cls-10" d="M1254.07,576.86a10.1,10.1,0,0,0,.63-4.82c0-.07,0-.13,0-.2"/><path class="cls-10" d="M1222.91,583.08c2.57-2.6,5.73-4.73,8.15-7.3"/><path class="cls-10" d="M1221.78,560.05a41.52,41.52,0,0,0-5.89,5.33"/><path class="cls-10" d="M1226.84,546.84c-3.42,2.62-10.39,9-10.39,9"/><path class="cls-10" d="M1197.35,525.49a43.55,43.55,0,0,0-6.46,6.18"/><path class="cls-10" d="M1174.59,502.46c-2.23,2.24-5.16,4.16-7,6.74"/><path class="cls-10" d="M1148.46,498.24c-2.94,2.17-9.52,9.25-9.52,9.25"/><line class="cls-10" x1="787.56" y1="511" x2="808.93" y2="498.86"/><line class="cls-10" x1="761.04" y1="467.56" x2="773.57" y2="446.98"/><line class="cls-10" x1="559.39" y1="522.75" x2="546.57" y2="511.35"/><line class="cls-10" x1="598.58" y1="476.84" x2="585.47" y2="455.75"/><line class="cls-10" x1="691.26" y1="442.06" x2="695.89" y2="412.52"/><path class="cls-10" d="M1148.41,316.28h-272a11.06,11.06,0,0,0-11.06,11.06v69.55a11.06,11.06,0,0,0,11.06,11.05h14.85c.83,13.1,3.31,39.05,3.31,39.05,5.56-5.28,27.18-32.47,33.33-39.05h220.46a11.05,11.05,0,0,0,11-11.05V327.34A11.06,11.06,0,0,0,1148.41,316.28Z"/><path class="cls-10" d="M1106.54,340.53c0,3.25-.19,6.64-.42,10.13s-.53,7.18-.72,10.8c-.24,3.85-.37,7.7-.24,11.44a54.47,54.47,0,0,0,1.38,11.33"/><path class="cls-10" d="M1115.8,340c-.4,3.6-.73,7.18-1,10.76q-.4,5.73-.57,11.48c-.12,3.59-.17,7.19-.17,10.81q0,4.88.12,9.81"/><path class="cls-10" d="M1124,352.1a44.89,44.89,0,0,0-9.17-1.35,74.07,74.07,0,0,0-8.7-.09c-5.62.32-10.56,1.47-11.56,4.14-1.49,4,4,5.75,10.84,6.66,2.86.37,5.95.6,8.85.77,5.66.34,10.59.46,11.63,1.12,6.68,4.18,1,8-4.45,9a53.21,53.21,0,0,1-7.35.7c-2.86.1-5.9,0-8.92-.14a123.43,123.43,0,0,1-13.3-1.52"/><path class="cls-10" d="M900.9,391.14c0-10.09.48-36,.48-36-2.76,0-5.62.41-8.4.41A229.82,229.82,0,0,1,908.91,333s15.36,15.08,18.12,21.85c-2.69.85-6.48.66-9.7,1.37,0,0,1,28.72,1,34.46C911.13,390.67,901.29,391.49,900.9,391.14Z"/><path class="cls-10" d="M1059.4,348.24c5-2.48,13-2.63,15.48.81,5.32,7.48,1.86,20.42-1.69,30"/><path class="cls-10" d="M1059.4,348.24c5.88,7,5.55,21.15.19,26.07-4.65,4.28-10.51,2-11-1.15-1.36-8.35,4.19-19.05,8.06-23A10,10,0,0,1,1059.4,348.24Z"/><path class="cls-10" d="M1033.71,347.63a8.62,8.62,0,0,1,.78-.44c5.67-2.91,15-4.79,21-2.05a11.18,11.18,0,0,1,4,3.1"/><path class="cls-10" d="M1033.71,347.63c4.11,3.46,6.83,8.95,6.12,14.26-1.21,8.94-7.27,21.77-16.88,18.39C1013.59,377,1023.74,353.67,1033.71,347.63Z"/><path class="cls-10" d="M1007.21,347.44c5.65-2.74,11.47-3.06,16.75-3.41a13.84,13.84,0,0,1,9.75,3.6"/><path class="cls-10" d="M1007.21,347.44a17.81,17.81,0,0,1,4.87,19.26c-4.15,12.93-9.74,16.27-17.41,16.28s-5.81-16.69,2.56-27.3A28,28,0,0,1,1007.21,347.44Z"/><path class="cls-10" d="M977.92,353.15c8.35-7.87,18.29-11.14,24-9.12a16.36,16.36,0,0,1,5.32,3.41"/><path class="cls-10" d="M977.92,353.15c3.16,11.92-.43,31.93-6.58,32.06-8.92.19-7.27-14.93,1.69-26.65A44.85,44.85,0,0,1,977.92,353.15Z"/><path class="cls-10" d="M951.82,381.76c0-10.38,2.82-35.89,17.39-37.26,4.51-.43,7.3,3.3,8.71,8.65"/></g></svg>